{"glyphs":{"0":{"ha":764,"x_min":0,"x_max":0,"o":"m 354 597 b 174 368 264 597 174 521 b 410 28 174 153 278 28 b 590 257 500 28 590 104 b 354 597 590 458 486 597 m 49 313 b 382 646 49 496 185 646 b 715 313 579 646 715 496 b 382 -21 715 129 579 -21 b 49 313 185 -21 49 129 "},"1":{"ha":438,"x_min":0,"x_max":0,"o":"m 49 514 l 285 646 l 285 63 l 438 0 l 21 0 l 174 63 l 174 514 "},"2":{"ha":625,"x_min":0,"x_max":0,"o":"m 563 0 l 21 0 l 292 236 b 417 458 394 325 417 382 b 271 604 417 535 368 604 b 139 514 188 604 139 561 b 181 438 139 494 181 489 b 125 382 181 413 161 382 b 56 465 88 382 56 407 b 282 646 56 560 143 646 b 535 465 468 646 535 549 b 326 201 535 361 464 322 l 217 104 l 500 104 l 563 215 "},"3":{"ha":667,"x_min":0,"x_max":0,"o":"m 49 625 l 604 625 l 347 340 b 604 90 458 354 604 264 b 283 -229 604 -90 463 -229 b 42 -74 131 -229 42 -154 b 107 -8 42 -31 75 -8 b 167 -75 149 -8 167 -44 b 286 -187 167 -147 211 -187 b 493 35 397 -187 493 -111 b 278 250 493 164 417 250 b 181 229 221 250 188 233 l 438 514 l 111 514 l 49 403 "},"4":{"ha":701,"x_min":0,"x_max":0,"o":"m 389 0 l 7 0 l 500 646 l 500 69 l 681 69 l 681 0 l 500 0 l 500 -146 l 611 -208 l 278 -208 l 389 -146 m 389 69 l 389 424 l 125 69 "},"5":{"ha":647,"x_min":0,"x_max":0,"o":"m 100 -8 b 160 -75 142 -8 160 -44 b 278 -187 160 -147 217 -187 b 474 35 375 -187 474 -125 b 258 257 474 188 375 257 b 47 188 133 257 47 188 l 144 625 l 571 625 l 543 514 l 168 514 l 113 269 b 314 354 157 313 228 354 b 585 90 481 354 585 243 b 275 -229 585 -104 440 -229 b 35 -74 136 -229 35 -154 b 100 -8 35 -31 68 -8 "},"6":{"ha":708,"x_min":0,"x_max":0,"o":"m 179 451 b 396 569 219 513 288 569 b 660 285 528 569 660 472 b 354 -21 660 97 521 -21 b 49 368 174 -21 49 125 b 651 993 49 896 638 990 b 179 451 631 986 231 865 m 174 361 b 375 21 174 125 278 21 b 535 250 465 21 535 97 b 340 507 535 393 465 507 b 175 419 263 507 210 465 b 174 361 174 400 174 381 "},"7":{"ha":632,"x_min":0,"x_max":0,"o":"m 42 625 l 604 625 l 264 -208 l 139 -208 l 521 514 l 104 514 l 42 403 "},"8":{"ha":688,"x_min":0,"x_max":0,"o":"m 97 660 b 340 854 97 790 218 854 b 569 674 450 854 569 806 b 393 499 569 569 460 519 b 639 215 510 431 639 360 b 340 -21 639 71 511 -21 b 49 208 161 -21 49 71 b 263 453 49 351 181 422 b 97 660 174 506 97 565 m 167 215 b 347 21 167 99 235 21 b 521 181 460 21 521 101 b 282 442 521 308 396 374 b 167 215 235 403 167 326 m 465 674 b 333 813 465 776 404 813 b 208 694 263 813 208 760 b 376 507 208 611 286 560 b 465 674 414 533 465 586 "},"9":{"ha":694,"x_min":0,"x_max":0,"o":"m 522 172 b 306 56 481 111 413 56 b 42 340 174 56 42 153 b 347 646 42 528 181 646 b 653 257 528 646 653 500 b 49 -368 653 -271 64 -365 b 522 172 71 -361 469 -240 m 528 264 b 326 604 528 500 424 604 b 167 375 236 604 167 528 b 361 118 167 232 236 118 b 525 206 438 118 490 160 b 528 264 526 224 528 243 "},"B":{"ha":861,"x_min":0,"x_max":0,"o":"m 160 76 l 160 826 l 21 903 l 444 903 b 757 688 632 903 757 840 b 569 486 757 514 569 486 l 569 479 b 806 250 569 479 806 458 b 451 0 806 76 653 0 l 21 0 m 292 451 l 292 76 l 340 49 l 438 49 b 653 250 563 49 653 111 b 431 451 653 396 556 451 m 292 500 l 431 500 b 618 681 542 500 618 563 b 431 854 618 806 542 854 l 340 854 l 292 826 "},"C":{"ha":896,"x_min":0,"x_max":0,"o":"m 813 583 l 708 806 b 507 882 708 806 639 882 b 201 472 319 882 201 715 b 528 63 201 236 313 63 b 847 304 764 63 843 293 b 486 -21 844 289 783 -21 b 49 444 229 -21 49 174 b 486 924 49 743 231 924 b 729 847 644 924 729 847 l 813 924 "},"D":{"ha":917,"x_min":0,"x_max":0,"o":"m 21 0 l 160 76 l 160 826 l 21 903 l 389 903 b 868 451 632 903 868 764 b 389 0 868 139 632 0 m 292 76 l 340 49 l 389 49 b 715 451 556 49 715 160 b 389 854 715 743 556 854 l 340 854 l 292 826 "},"E":{"ha":847,"x_min":0,"x_max":0,"o":"m 292 493 l 465 493 l 563 639 l 563 299 l 465 444 l 292 444 l 292 76 l 340 49 l 639 49 l 764 292 l 764 0 l 21 0 l 160 76 l 160 826 l 21 903 l 743 903 l 743 611 l 618 854 l 340 854 l 292 826 "},"F":{"ha":799,"x_min":0,"x_max":0,"o":"m 292 76 l 444 0 l 21 0 l 160 76 l 160 826 l 21 903 l 743 903 l 743 611 l 618 854 l 340 854 l 292 826 l 292 493 l 451 493 l 549 639 l 549 299 l 451 444 l 292 444 "},"G":{"ha":972,"x_min":0,"x_max":0,"o":"m 840 583 l 736 806 b 521 882 736 806 653 882 b 201 451 333 882 201 715 b 528 35 201 222 313 35 b 715 118 660 35 715 118 l 715 354 l 549 431 l 958 431 l 847 354 l 847 -14 l 743 90 b 486 -21 743 90 667 -21 b 49 444 229 -21 49 167 b 507 924 49 757 257 924 b 757 847 665 924 757 847 l 840 924 "},"H":{"ha":1007,"x_min":0,"x_max":0,"o":"m 847 826 l 847 76 l 986 0 l 576 0 l 715 76 l 715 444 l 292 444 l 292 76 l 431 0 l 21 0 l 160 76 l 160 826 l 21 903 l 431 903 l 292 826 l 292 493 l 715 493 l 715 826 l 576 903 l 986 903 "},"I":{"ha":451,"x_min":0,"x_max":0,"o":"m 292 826 l 292 76 l 431 0 l 21 0 l 160 76 l 160 826 l 21 903 l 431 903 "},"J":{"ha":715,"x_min":0,"x_max":0,"o":"m 569 826 l 569 313 b 292 -21 569 97 458 -21 b 42 188 101 -21 42 97 b 139 317 42 285 93 317 b 215 243 194 317 215 278 b 146 125 215 167 146 188 b 285 21 146 69 194 21 b 438 229 382 21 438 88 l 438 826 l 271 903 l 708 903 "},"K":{"ha":944,"x_min":0,"x_max":0,"o":"m 292 826 l 292 486 l 650 831 l 558 903 l 915 903 l 703 814 l 410 521 l 833 76 l 944 0 l 722 0 l 292 457 l 292 76 l 431 0 l 21 0 l 160 76 l 160 826 l 21 903 l 431 903 "},"L":{"ha":813,"x_min":0,"x_max":0,"o":"m 292 826 l 292 76 l 340 49 l 625 49 l 757 306 l 757 0 l 21 0 l 160 76 l 160 826 l 21 903 l 444 903 "},"M":{"ha":1179,"x_min":0,"x_max":0,"o":"m 160 76 l 160 826 l 21 903 l 296 903 l 586 219 l 588 219 l 878 903 l 1158 903 l 1019 826 l 1019 76 l 1158 0 l 749 0 l 888 76 l 888 778 l 549 -21 l 222 750 l 222 76 l 361 0 l 21 0 "},"O":{"ha":944,"x_min":0,"x_max":0,"o":"m 49 451 b 472 924 49 736 229 924 b 896 451 715 924 896 736 b 472 -21 896 167 715 -21 b 49 451 229 -21 49 167 m 201 451 b 472 21 201 188 306 21 b 743 451 639 21 743 188 b 472 882 743 715 639 882 b 201 451 306 882 201 715 "},"P":{"ha":799,"x_min":0,"x_max":0,"o":"m 21 0 l 160 76 l 160 826 l 21 903 l 396 903 b 757 660 597 903 757 833 b 396 417 757 486 597 417 l 292 417 l 292 76 l 458 0 m 292 465 l 382 465 b 604 660 507 465 604 507 b 382 854 604 813 507 854 l 292 854 "},"Q":{"ha":944,"x_min":0,"x_max":0,"o":"m 49 451 b 472 924 49 736 229 924 b 896 451 715 924 896 736 b 639 13 896 236 793 78 l 819 -278 l 489 -19 b 472 -21 483 -19 478 -21 b 49 451 229 -21 49 167 m 201 451 b 472 21 201 188 306 21 b 743 451 639 21 743 188 b 472 882 743 715 639 882 b 201 451 306 882 201 715 "},"R":{"ha":889,"x_min":0,"x_max":0,"o":"m 378 417 l 292 417 l 292 76 l 431 0 l 21 0 l 160 76 l 160 826 l 21 903 l 396 903 b 757 660 597 903 757 833 b 528 428 757 526 663 454 l 814 75 l 938 0 l 701 0 m 292 465 l 382 465 b 604 660 507 465 604 507 b 382 854 604 813 507 854 l 292 854 "},"S":{"ha":736,"x_min":0,"x_max":0,"o":"m 632 625 l 528 813 b 354 882 528 813 458 882 b 167 729 243 882 167 813 b 313 569 167 654 231 606 l 486 493 b 681 250 575 454 681 403 b 354 -21 681 76 535 -21 b 153 42 222 -21 153 42 l 69 -21 l 69 319 l 181 90 b 354 21 181 90 236 21 b 556 201 472 21 556 90 b 403 368 556 313 461 342 l 229 444 b 56 674 131 488 56 557 b 354 924 56 847 194 924 b 549 861 472 924 549 861 l 632 924 "},"T":{"ha":868,"x_min":0,"x_max":0,"o":"m 813 611 l 688 854 l 500 854 l 500 76 l 653 0 l 215 0 l 368 76 l 368 854 l 181 854 l 56 611 l 56 903 l 813 903 "},"U":{"ha":972,"x_min":0,"x_max":0,"o":"m 278 301 b 524 56 278 165 346 56 b 771 301 701 56 771 165 l 771 826 l 632 903 l 972 903 l 833 826 l 833 322 b 503 -21 833 132 735 -21 b 146 322 243 -21 146 132 l 146 826 l 7 903 l 417 903 l 278 826 "},"V":{"ha":944,"x_min":0,"x_max":0,"o":"m 826 826 l 485 -21 l 125 819 l -14 903 l 375 903 l 257 833 l 521 215 l 771 833 l 646 903 l 972 903 "},"W":{"ha":1299,"x_min":0,"x_max":0,"o":"m 1181 826 l 922 -21 l 663 657 l 415 -21 l 125 819 l -14 903 l 375 903 l 257 833 l 458 257 l 701 924 l 953 268 l 1125 833 l 1000 903 l 1326 903 "},"X":{"ha":972,"x_min":0,"x_max":0,"o":"m 421 451 l 153 819 l 0 903 l 410 903 l 299 833 l 499 560 l 694 833 l 569 903 l 924 903 l 757 826 l 532 513 l 847 83 l 1000 0 l 590 0 l 701 69 l 456 406 l 215 69 l 340 0 l -14 0 l 153 76 "},"Y":{"ha":931,"x_min":0,"x_max":0,"o":"m 264 833 l 507 451 l 750 833 l 639 903 l 958 903 l 819 826 l 549 399 l 549 76 l 688 0 l 278 0 l 417 76 l 417 361 l 125 819 l -14 903 l 375 903 "},"Z":{"ha":833,"x_min":0,"x_max":0,"o":"m 565 854 l 208 854 l 83 611 l 83 903 l 750 903 l 232 49 l 632 49 l 757 292 l 757 0 l 49 0 "},"a":{"ha":653,"x_min":0,"x_max":0,"o":"m 417 411 l 417 444 b 313 604 417 568 389 604 b 200 483 236 604 200 568 b 143 418 200 440 176 418 b 86 483 110 418 86 443 b 326 646 86 569 243 646 b 528 444 478 646 528 563 l 528 69 l 653 118 b 493 -21 653 118 542 -21 b 417 82 444 -21 417 8 l 310 11 b 210 -21 279 -11 251 -21 b 63 139 125 -21 63 43 b 217 329 63 229 124 290 m 417 371 l 310 326 b 176 160 207 283 176 229 b 272 58 176 104 208 58 b 417 126 307 58 360 81 "},"b":{"ha":694,"x_min":0,"x_max":0,"o":"m 354 -21 b 181 56 236 -21 181 56 l 83 -21 l 83 886 l -28 913 l 194 993 l 194 508 b 396 646 243 583 306 646 b 646 326 542 646 646 528 b 354 -21 646 118 519 -21 m 194 146 b 331 28 194 69 264 28 b 528 292 438 28 528 118 b 340 556 528 472 444 556 b 194 471 285 556 235 529 "},"c":{"ha":632,"x_min":0,"x_max":0,"o":"m 590 246 b 338 -21 579 86 479 -21 b 49 313 158 -21 49 125 b 351 646 49 507 186 646 b 572 490 490 646 572 571 b 507 425 572 447 539 425 b 447 492 465 425 447 461 b 349 604 447 564 410 604 b 160 356 251 604 160 511 b 383 83 160 149 286 83 b 590 246 451 83 540 128 "},"d":{"ha":736,"x_min":0,"x_max":0,"o":"m 611 86 l 722 60 l 500 -21 l 500 117 b 299 -21 451 42 389 -21 b 49 299 153 -21 49 97 b 340 646 49 507 175 646 b 500 583 451 646 500 583 l 500 886 l 389 913 l 611 993 m 500 479 b 364 597 500 556 431 597 b 167 333 257 597 167 507 b 354 69 167 153 250 69 b 500 154 410 69 460 96 "},"e":{"ha":653,"x_min":0,"x_max":0,"o":"m 590 246 b 338 -21 579 86 479 -21 b 49 313 158 -21 49 125 b 344 646 49 507 181 646 b 590 375 521 646 590 521 l 160 375 l 160 356 b 383 83 160 135 286 83 b 590 246 451 83 540 128 m 347 604 b 164 417 263 604 185 536 l 368 417 b 479 493 438 417 479 438 b 347 604 479 563 424 604 "},"f":{"ha":458,"x_min":0,"x_max":0,"o":"m 153 576 l 21 576 l 21 625 l 153 625 b 403 993 153 868 264 993 b 521 911 465 993 521 967 b 460 847 521 871 493 847 b 354 944 383 847 403 944 b 264 681 292 944 264 861 l 264 625 l 424 625 l 424 576 l 264 576 l 264 63 l 396 0 l 42 0 l 153 63 "},"g":{"ha":681,"x_min":0,"x_max":0,"o":"m 69 424 b 313 646 69 546 167 646 b 514 604 410 646 458 604 b 535 640 549 604 535 622 b 588 694 535 669 554 694 b 646 639 626 694 646 667 b 563 569 646 601 625 569 b 493 576 528 569 493 576 b 556 424 493 576 556 521 b 313 201 556 301 458 201 b 281 203 301 201 290 201 b 174 146 239 203 174 194 b 229 104 174 111 208 104 l 458 104 b 653 -56 597 104 653 49 b 299 -312 653 -160 535 -312 b 21 -132 104 -312 21 -215 b 157 3 21 -35 110 -6 b 83 97 119 14 83 50 b 224 215 83 181 160 208 b 69 424 129 246 69 328 m 186 0 b 118 -90 183 -1 118 -22 b 333 -222 118 -160 181 -222 b 611 -62 535 -222 611 -125 b 535 0 611 -21 583 0 m 188 424 b 313 236 188 306 236 236 b 438 424 389 236 438 306 b 313 611 438 542 389 611 b 188 424 236 611 188 542 "},"h":{"ha":736,"x_min":0,"x_max":0,"o":"m 514 63 l 514 400 b 406 563 514 514 492 563 b 243 475 347 563 285 526 l 243 63 l 354 0 l 21 0 l 132 63 l 132 886 l 21 913 l 243 993 l 243 517 b 454 646 292 569 365 646 b 625 418 588 646 625 556 l 625 63 l 736 0 l 403 0 "},"i":{"ha":382,"x_min":0,"x_max":0,"o":"m 139 539 l 139 63 l 28 0 l 361 0 l 250 63 l 250 646 l 28 565 m 104 847 b 181 924 104 889 139 924 b 257 847 222 924 257 889 b 181 771 257 806 222 771 b 104 847 139 771 104 806 "},"j":{"ha":319,"x_min":0,"x_max":0,"o":"m 111 0 b 49 -264 111 -181 90 -264 b -43 -167 14 -264 33 -167 b -104 -231 -76 -167 -104 -190 b 0 -312 -104 -286 -56 -312 b 222 56 139 -312 222 -187 l 222 646 l 0 565 l 111 539 m 76 847 b 153 924 76 889 111 924 b 229 847 194 924 229 889 b 153 771 229 806 194 771 b 76 847 111 771 76 806 "},"k":{"ha":694,"x_min":0,"x_max":0,"o":"m 486 569 l 403 625 l 701 625 l 542 563 l 343 369 l 618 63 l 715 0 l 521 0 l 243 325 l 243 63 l 354 0 l 21 0 l 132 63 l 132 886 l 21 913 l 243 993 l 243 339 "},"l":{"ha":375,"x_min":0,"x_max":0,"o":"m 21 913 l 243 993 l 243 63 l 354 0 l 21 0 l 132 63 l 132 886 "},"m":{"ha":1125,"x_min":0,"x_max":0,"o":"m 903 63 l 903 400 b 794 563 903 514 881 563 b 629 472 736 563 674 526 b 632 418 631 454 632 436 l 632 63 l 743 0 l 410 0 l 521 63 l 521 400 b 413 563 521 514 499 563 b 250 475 354 563 292 526 l 250 63 l 361 0 l 28 0 l 139 63 l 139 539 l 28 565 l 250 646 l 250 517 b 461 646 299 569 372 646 b 625 508 563 646 608 594 b 843 646 681 569 754 646 b 1014 418 976 646 1014 556 l 1014 63 l 1125 0 l 792 0 "},"n":{"ha":743,"x_min":0,"x_max":0,"o":"m 521 63 l 521 400 b 413 563 521 514 499 563 b 250 475 354 563 292 526 l 250 63 l 361 0 l 28 0 l 139 63 l 139 539 l 28 565 l 250 646 l 250 517 b 461 646 299 569 372 646 b 632 418 594 646 632 556 l 632 63 l 743 0 l 410 0 "},"o":{"ha":700,"x_min":0,"x_max":0,"o":"m 332 597 b 174 368 231 597 174 507 b 369 28 174 165 256 28 b 526 257 472 28 526 121 b 332 597 526 460 447 597 m 49 313 b 350 646 49 493 171 646 b 651 313 543 646 651 493 b 350 -21 651 132 529 -21 b 49 313 157 -21 49 132 "},"p":{"ha":708,"x_min":0,"x_max":0,"o":"m 208 146 b 344 28 208 69 278 28 b 542 292 451 28 542 118 b 354 556 542 472 458 556 b 208 471 299 556 249 529 m 97 -229 l 97 539 l -14 565 l 208 646 l 208 508 b 410 646 257 583 319 646 b 660 326 556 646 660 528 b 368 -21 660 118 533 -21 b 208 42 257 -21 208 42 l 208 -229 l 319 -292 l -14 -292 "},"q":{"ha":708,"x_min":0,"x_max":0,"o":"m 500 479 b 364 597 500 556 431 597 b 167 333 257 597 167 507 b 354 69 167 153 250 69 b 500 154 410 69 460 96 m 340 646 b 514 569 458 646 514 569 l 611 646 l 611 -229 l 722 -292 l 389 -292 l 500 -229 l 500 117 b 299 -21 451 42 389 -21 b 49 299 153 -21 49 97 b 340 646 49 507 175 646 "},"r":{"ha":569,"x_min":0,"x_max":0,"o":"m 28 565 l 250 646 l 250 500 l 306 561 b 444 646 368 629 406 646 b 535 567 493 646 535 619 b 474 500 535 526 507 500 b 375 563 410 500 424 563 b 250 451 347 563 313 528 l 250 63 l 389 0 l 28 0 l 139 63 l 139 539 "},"s":{"ha":556,"x_min":0,"x_max":0,"o":"m 278 -21 b 125 28 174 -21 125 28 l 69 -21 l 69 257 b 278 21 125 104 174 21 b 396 125 354 21 396 69 b 306 243 396 194 357 218 l 208 289 b 63 465 146 317 63 354 b 271 646 63 567 146 646 b 403 604 354 646 403 604 l 465 646 l 465 403 l 382 563 b 271 604 382 563 347 604 b 153 507 201 604 153 563 b 264 396 153 444 196 428 l 361 350 b 500 167 467 300 500 250 b 278 -21 500 56 403 -21 "},"t":{"ha":417,"x_min":0,"x_max":0,"o":"m 229 785 l 229 625 l 375 625 l 375 576 l 229 576 l 229 132 b 285 63 229 76 257 63 b 389 118 333 63 389 118 b 229 -21 389 118 313 -21 b 118 111 160 -21 118 21 l 118 576 l 7 576 "},"u":{"ha":729,"x_min":0,"x_max":0,"o":"m -7 565 l 215 646 l 215 225 b 324 63 215 111 238 63 b 493 150 382 63 451 99 l 493 539 l 382 565 l 604 646 l 604 86 l 715 60 l 493 -21 l 493 108 b 275 -21 444 56 364 -21 b 104 207 142 -21 104 69 l 104 539 "},"v":{"ha":694,"x_min":0,"x_max":0,"o":"m 604 563 l 340 -21 l 76 563 l -49 625 l 307 625 l 196 569 l 375 174 l 553 569 l 442 625 l 729 625 "},"w":{"ha":979,"x_min":0,"x_max":0,"o":"m 889 563 l 688 -21 l 482 446 l 278 -21 l 76 563 l -49 625 l 303 625 l 192 569 l 319 196 l 517 646 l 713 199 l 840 569 l 729 625 l 1014 625 "},"x":{"ha":722,"x_min":0,"x_max":0,"o":"m 236 576 l 372 396 l 507 569 l 410 625 l 694 625 l 563 563 l 401 357 l 625 63 l 750 0 l 403 0 l 500 49 l 333 268 l 167 56 l 264 0 l -21 0 l 111 63 l 303 308 l 111 563 l -14 625 l 333 625 "},"y":{"ha":688,"x_min":0,"x_max":0,"o":"m 597 563 l 310 -161 b 153 -312 263 -286 208 -312 b 69 -239 104 -312 69 -281 b 132 -169 69 -197 97 -169 b 189 -197 157 -169 171 -182 b 251 -153 211 -217 232 -200 l 329 40 l 76 563 l -49 625 l 307 625 l 196 569 l 383 178 l 539 569 l 428 625 l 722 625 "},"z":{"ha":632,"x_min":0,"x_max":0,"o":"m 583 194 l 583 0 l 42 0 l 431 583 l 188 583 l 76 431 l 76 625 l 583 625 l 194 42 l 472 42 "},"А":{"ha":944,"x_min":0,"x_max":0,"o":"m 118 76 l 403 750 l 271 903 l 475 903 l 819 83 l 958 0 l 569 0 l 688 69 l 597 285 l 263 285 l 174 69 l 299 0 l -28 0 m 283 333 l 578 333 l 431 688 "},"Б":{"ha":847,"x_min":0,"x_max":0,"o":"m 292 500 l 424 500 b 785 250 625 500 785 424 b 424 0 785 76 625 0 l 21 0 l 160 76 l 160 826 l 21 903 l 729 903 l 729 611 l 604 854 l 340 854 l 292 826 m 292 76 l 340 49 l 410 49 b 632 250 535 49 632 97 b 410 451 632 403 535 451 l 292 451 "},"В":{"ha":861,"x_min":0,"x_max":0,"o":"m 160 76 l 160 826 l 21 903 l 444 903 b 757 688 632 903 757 840 b 569 486 757 514 569 486 l 569 479 b 806 250 569 479 806 458 b 451 0 806 76 653 0 l 21 0 m 292 451 l 292 76 l 340 49 l 438 49 b 653 250 563 49 653 111 b 431 451 653 396 556 451 m 292 500 l 431 500 b 618 681 542 500 618 563 b 431 854 618 806 542 854 l 340 854 l 292 826 "},"Г":{"ha":785,"x_min":0,"x_max":0,"o":"m 292 76 l 444 0 l 21 0 l 160 76 l 160 826 l 21 903 l 729 903 l 729 611 l 604 854 l 340 854 l 292 826 "},"Д":{"ha":965,"x_min":0,"x_max":0,"o":"m 771 826 l 771 76 l 821 49 l 965 49 l 813 -292 l 813 0 l 132 0 l 132 -292 l -21 49 l 63 49 b 292 674 194 49 292 264 l 292 826 l 153 903 l 910 903 m 590 854 l 403 854 l 354 826 l 354 674 b 194 49 354 146 194 49 l 590 49 l 639 76 l 639 826 "},"Е":{"ha":847,"x_min":0,"x_max":0,"o":"m 292 493 l 465 493 l 563 639 l 563 299 l 465 444 l 292 444 l 292 76 l 340 49 l 639 49 l 764 292 l 764 0 l 21 0 l 160 76 l 160 826 l 21 903 l 743 903 l 743 611 l 618 854 l 340 854 l 292 826 "},"Ж":{"ha":1354,"x_min":0,"x_max":0,"o":"m 743 826 l 743 486 l 1081 831 l 982 903 l 1353 903 l 1140 814 l 858 521 l 1229 76 l 1354 0 l 1118 0 l 743 457 l 743 76 l 882 0 l 472 0 l 611 76 l 611 457 l 236 0 l 0 0 l 125 76 l 496 521 l 214 814 l 1 903 l 372 903 l 274 831 l 611 486 l 611 826 l 472 903 l 882 903 "},"З":{"ha":778,"x_min":0,"x_max":0,"o":"m 76 924 l 160 847 b 375 924 160 847 231 924 b 688 701 583 924 688 826 b 507 500 688 514 507 500 l 507 493 b 729 257 507 493 729 486 b 368 -21 729 92 576 -21 b 146 56 210 -21 146 56 l 63 -21 l 63 319 l 167 97 b 354 21 167 97 222 21 b 576 250 507 21 576 111 b 340 465 576 396 479 465 l 236 465 l 236 514 l 368 514 b 549 694 465 514 549 563 b 354 882 549 813 472 882 b 181 806 236 882 181 806 l 76 583 "},"И":{"ha":1014,"x_min":0,"x_max":0,"o":"m 854 826 l 854 76 l 993 0 l 583 0 l 722 76 l 722 719 l 292 93 l 292 76 l 431 0 l 21 0 l 160 76 l 160 826 l 21 903 l 431 903 l 292 826 l 292 183 l 722 810 l 722 826 l 583 903 l 993 903 "},"Й":{"ha":1014,"x_min":0,"x_max":0,"o":"m 854 826 l 854 76 l 993 0 l 583 0 l 722 76 l 722 719 l 292 93 l 292 76 l 431 0 l 21 0 l 160 76 l 160 826 l 21 903 l 431 903 l 292 826 l 292 183 l 722 810 l 722 826 l 583 903 l 993 903 m 651 1190 b 725 1118 706 1190 725 1150 b 507 993 725 1026 615 993 b 289 1118 399 993 289 1026 b 363 1190 289 1150 308 1190 b 431 1135 399 1190 431 1169 b 407 1064 431 1096 399 1089 b 507 1028 414 1040 460 1028 b 607 1064 554 1028 600 1040 b 583 1135 615 1089 583 1096 b 651 1190 583 1169 615 1190 "},"К":{"ha":944,"x_min":0,"x_max":0,"o":"m 292 826 l 292 486 l 650 831 l 558 903 l 915 903 l 703 814 l 410 521 l 833 76 l 944 0 l 722 0 l 292 457 l 292 76 l 431 0 l 21 0 l 160 76 l 160 826 l 21 903 l 431 903 "},"Л":{"ha":951,"x_min":0,"x_max":0,"o":"m 792 826 l 792 76 l 931 0 l 521 0 l 660 76 l 660 826 l 611 854 l 424 854 l 375 826 l 375 674 b 111 -21 375 181 271 -21 b 0 69 56 -21 0 7 b 63 139 0 118 35 139 b 160 76 132 139 111 76 b 313 674 236 76 313 264 l 313 826 l 174 903 l 931 903 "},"М":{"ha":1179,"x_min":0,"x_max":0,"o":"m 160 76 l 160 826 l 21 903 l 296 903 l 586 219 l 588 219 l 878 903 l 1158 903 l 1019 826 l 1019 76 l 1158 0 l 749 0 l 888 76 l 888 778 l 549 -21 l 222 750 l 222 76 l 361 0 l 21 0 "},"Н":{"ha":1007,"x_min":0,"x_max":0,"o":"m 847 826 l 847 76 l 986 0 l 576 0 l 715 76 l 715 444 l 292 444 l 292 76 l 431 0 l 21 0 l 160 76 l 160 826 l 21 903 l 431 903 l 292 826 l 292 493 l 715 493 l 715 826 l 576 903 l 986 903 "},"О":{"ha":944,"x_min":0,"x_max":0,"o":"m 49 451 b 472 924 49 736 229 924 b 896 451 715 924 896 736 b 472 -21 896 167 715 -21 b 49 451 229 -21 49 167 m 201 451 b 472 21 201 188 306 21 b 743 451 639 21 743 188 b 472 882 743 715 639 882 b 201 451 306 882 201 715 "},"П":{"ha":993,"x_min":0,"x_max":0,"o":"m 833 826 l 833 76 l 972 0 l 563 0 l 701 76 l 701 826 l 653 854 l 340 854 l 292 826 l 292 76 l 431 0 l 21 0 l 160 76 l 160 826 l 21 903 l 972 903 "},"Р":{"ha":799,"x_min":0,"x_max":0,"o":"m 21 0 l 160 76 l 160 826 l 21 903 l 396 903 b 757 660 597 903 757 833 b 396 417 757 486 597 417 l 292 417 l 292 76 l 458 0 m 292 465 l 382 465 b 604 660 507 465 604 507 b 382 854 604 813 507 854 l 292 854 "},"С":{"ha":896,"x_min":0,"x_max":0,"o":"m 813 583 l 708 806 b 507 882 708 806 639 882 b 201 472 319 882 201 715 b 528 63 201 236 313 63 b 847 304 764 63 843 293 b 486 -21 844 289 783 -21 b 49 444 229 -21 49 174 b 486 924 49 743 231 924 b 729 847 644 924 729 847 l 813 924 "},"Т":{"ha":868,"x_min":0,"x_max":0,"o":"m 813 611 l 688 854 l 500 854 l 500 76 l 653 0 l 215 0 l 368 76 l 368 854 l 181 854 l 56 611 l 56 903 l 813 903 "},"У":{"ha":910,"x_min":0,"x_max":0,"o":"m 792 826 l 444 90 b 299 -21 408 14 361 -21 b 188 76 236 -21 188 21 b 264 160 188 132 229 160 b 361 90 340 160 326 90 b 404 126 382 90 394 104 l 457 239 l 125 819 l -14 903 l 375 903 l 257 833 l 524 383 l 736 833 l 611 903 l 938 903 "},"Ф":{"ha":993,"x_min":0,"x_max":0,"o":"m 563 826 l 563 764 l 590 764 b 951 458 799 764 951 653 b 590 153 951 264 799 153 l 563 153 l 563 76 l 701 0 l 292 0 l 431 76 l 431 153 l 403 153 b 42 458 194 153 42 264 b 403 764 42 653 194 764 l 431 764 l 431 826 l 292 903 l 701 903 m 799 458 b 563 715 799 639 688 715 l 563 201 b 799 458 688 201 799 278 m 431 715 b 194 458 306 715 194 639 b 431 201 194 278 306 201 "},"Х":{"ha":972,"x_min":0,"x_max":0,"o":"m 421 451 l 153 819 l 0 903 l 410 903 l 299 833 l 499 560 l 694 833 l 569 903 l 924 903 l 757 826 l 532 513 l 847 83 l 1000 0 l 590 0 l 701 69 l 456 406 l 215 69 l 340 0 l -14 0 l 153 76 "},"Ц":{"ha":1028,"x_min":0,"x_max":0,"o":"m 160 76 l 160 826 l 21 903 l 431 903 l 292 826 l 292 76 l 340 49 l 653 49 l 701 76 l 701 826 l 563 903 l 972 903 l 833 826 l 833 76 l 883 49 l 1028 49 l 875 -292 l 875 0 l 21 0 "},"Ч":{"ha":917,"x_min":0,"x_max":0,"o":"m 757 826 l 757 76 l 896 0 l 458 0 l 625 76 l 625 472 b 375 375 625 472 528 375 b 125 646 194 375 125 479 l 125 826 l -14 903 l 396 903 l 257 826 l 257 660 b 431 444 257 535 292 444 b 625 507 542 444 625 507 l 625 826 l 486 903 l 896 903 "},"Ш":{"ha":1396,"x_min":0,"x_max":0,"o":"m 764 826 l 764 76 l 813 49 l 1056 49 l 1104 76 l 1104 826 l 965 903 l 1375 903 l 1236 826 l 1236 76 l 1375 0 l 21 0 l 160 76 l 160 826 l 21 903 l 431 903 l 292 826 l 292 76 l 340 49 l 583 49 l 632 76 l 632 826 l 493 903 l 903 903 "},"Щ":{"ha":1431,"x_min":0,"x_max":0,"o":"m 764 826 l 764 76 l 813 49 l 1056 49 l 1104 76 l 1104 826 l 965 903 l 1375 903 l 1236 826 l 1236 76 l 1285 49 l 1431 49 l 1278 -292 l 1278 0 l 21 0 l 160 76 l 160 826 l 21 903 l 431 903 l 292 826 l 292 76 l 340 49 l 583 49 l 632 76 l 632 826 l 493 903 l 903 903 "},"Ъ":{"ha":965,"x_min":0,"x_max":0,"o":"m 313 826 l 264 854 l 181 854 l 56 611 l 56 903 l 583 903 l 444 826 l 444 500 l 563 500 b 924 250 764 500 924 424 b 563 0 924 76 764 0 l 174 0 l 313 76 m 444 76 l 493 49 l 549 49 b 771 250 674 49 771 97 b 549 451 771 403 674 451 l 444 451 "},"Ы":{"ha":1215,"x_min":0,"x_max":0,"o":"m 431 903 l 292 826 l 292 500 l 410 500 b 771 250 611 500 771 424 b 410 0 771 76 611 0 l 21 0 l 160 76 l 160 826 l 21 903 m 292 76 l 340 49 l 396 49 b 618 250 521 49 618 97 b 396 451 618 403 521 451 l 292 451 m 1056 826 l 1056 76 l 1194 0 l 785 0 l 924 76 l 924 826 l 785 903 l 1194 903 "},"Ь":{"ha":813,"x_min":0,"x_max":0,"o":"m 431 903 l 292 826 l 292 500 l 410 500 b 771 250 611 500 771 424 b 410 0 771 76 611 0 l 21 0 l 160 76 l 160 826 l 21 903 m 292 76 l 340 49 l 396 49 b 618 250 521 49 618 97 b 396 451 618 403 521 451 l 292 451 "},"Э":{"ha":882,"x_min":0,"x_max":0,"o":"m 69 319 l 174 97 b 375 21 174 97 243 21 b 681 444 561 21 678 178 l 257 444 l 257 493 l 679 493 b 375 882 668 738 553 882 b 174 806 243 882 174 806 l 69 583 l 69 924 l 153 847 b 396 924 153 847 238 924 b 833 451 651 924 833 771 b 396 -21 833 132 651 -21 b 153 56 238 -21 153 56 l 69 -21 "},"Ю":{"ha":1299,"x_min":0,"x_max":0,"o":"m 292 826 l 292 479 l 458 479 b 854 924 469 729 619 924 b 1250 451 1097 924 1250 715 b 854 -21 1250 188 1097 -21 b 458 431 617 -21 465 176 l 292 431 l 292 76 l 431 0 l 21 0 l 160 76 l 160 826 l 21 903 l 431 903 m 611 451 b 854 21 611 208 688 21 b 1097 451 1021 21 1097 208 b 854 882 1097 694 1021 882 b 611 451 688 882 611 694 "},"Я":{"ha":882,"x_min":0,"x_max":0,"o":"m 451 0 l 590 76 l 590 417 l 476 417 l 194 0 l -35 0 l 78 68 l 340 429 b 125 653 213 456 125 524 b 500 903 125 826 292 903 l 861 903 l 722 826 l 722 76 l 861 0 m 590 854 l 514 854 b 278 653 382 854 278 799 b 500 465 278 500 389 465 l 590 465 "},"а":{"ha":653,"x_min":0,"x_max":0,"o":"m 417 411 l 417 444 b 313 604 417 568 389 604 b 200 483 236 604 200 568 b 143 418 200 440 176 418 b 86 483 110 418 86 443 b 326 646 86 569 243 646 b 528 444 478 646 528 563 l 528 69 l 653 118 b 493 -21 653 118 542 -21 b 417 82 444 -21 417 8 l 310 11 b 210 -21 279 -11 251 -21 b 63 139 125 -21 63 43 b 217 329 63 229 124 290 m 417 371 l 310 326 b 176 160 207 283 176 229 b 272 58 176 104 208 58 b 417 126 307 58 360 81 "},"б":{"ha":708,"x_min":0,"x_max":0,"o":"m 111 458 b 354 618 111 458 181 618 b 660 299 549 618 660 479 b 357 -21 660 118 536 -21 b 49 396 164 -21 49 146 b 368 903 49 736 188 903 l 514 903 b 639 967 614 903 635 953 l 639 938 b 500 778 639 889 625 778 l 354 778 b 104 458 160 778 125 653 m 339 568 b 181 353 238 568 181 478 b 376 26 181 164 263 26 b 533 242 479 26 533 119 b 339 568 533 431 454 568 "},"в":{"ha":681,"x_min":0,"x_max":0,"o":"m 139 63 l 139 563 l 28 625 l 347 625 b 590 472 458 625 590 597 b 451 333 590 354 451 333 l 451 329 b 625 174 451 329 625 319 b 375 0 625 35 486 0 l 28 0 m 250 299 l 250 63 l 275 49 l 361 49 b 500 174 444 49 500 104 b 361 299 500 243 458 299 m 250 347 l 319 347 b 472 465 424 347 472 396 b 326 576 472 535 424 576 l 275 576 l 250 563 "},"г":{"ha":604,"x_min":0,"x_max":0,"o":"m 250 76 l 389 0 l 28 0 l 139 63 l 139 563 l 28 625 l 556 625 l 556 431 l 444 583 l 275 583 l 250 569 "},"д":{"ha":736,"x_min":0,"x_max":0,"o":"m 53 49 b 208 479 163 49 208 250 l 208 563 l 97 625 l 694 625 l 583 563 l 583 63 l 608 49 l 722 49 l 604 -264 l 604 0 l 97 0 l 97 -264 l -21 49 m 472 563 l 447 576 l 289 576 l 264 563 l 264 479 b 167 49 264 111 167 49 l 447 49 l 472 63 "},"ж":{"ha":972,"x_min":0,"x_max":0,"o":"m 653 0 l 319 0 l 431 63 l 431 324 l 174 0 l -28 0 l 76 63 l 331 369 l 132 563 l -35 625 l 278 625 l 188 569 l 431 339 l 431 563 l 319 625 l 653 625 l 542 563 l 542 339 l 785 569 l 694 625 l 1007 625 l 840 563 l 642 369 l 896 63 l 1000 0 l 799 0 l 542 324 l 542 63 "},"е":{"ha":653,"x_min":0,"x_max":0,"o":"m 590 246 b 338 -21 579 86 479 -21 b 49 313 158 -21 49 125 b 344 646 49 507 181 646 b 590 375 521 646 590 521 l 160 375 l 160 356 b 383 83 160 135 286 83 b 590 246 451 83 540 128 m 347 604 b 164 417 263 604 185 536 l 368 417 b 479 493 438 417 479 438 b 347 604 479 563 424 604 "},"ё":{"ha":653,"x_min":0,"x_max":0,"o":"m 590 246 b 338 -21 579 86 479 -21 b 49 313 158 -21 49 125 b 344 646 49 507 181 646 b 590 375 521 646 590 521 l 160 375 l 160 356 b 383 83 160 135 286 83 b 590 246 451 83 540 128 m 347 604 b 164 417 263 604 185 536 l 368 417 b 479 493 438 417 479 438 b 347 604 479 563 424 604 m 111 847 b 188 924 111 889 146 924 b 264 847 229 924 264 889 b 188 771 264 806 229 771 b 111 847 146 771 111 806 m 382 847 b 458 924 382 889 417 924 b 535 847 500 924 535 889 b 458 771 535 806 500 771 b 382 847 417 771 382 806 "},"Ё":{"ha":847,"x_min":0,"x_max":0,"o":"m 292 493 l 465 493 l 563 639 l 563 299 l 465 444 l 292 444 l 292 76 l 340 49 l 639 49 l 764 292 l 764 0 l 21 0 l 160 76 l 160 826 l 21 903 l 743 903 l 743 611 l 618 854 l 340 854 l 292 826 m 514 1083 b 590 1160 514 1125 549 1160 b 667 1083 632 1160 667 1125 b 590 1007 667 1042 632 1007 b 514 1083 549 1007 514 1042 m 208 1083 b 285 1160 208 1125 243 1160 b 361 1083 326 1160 361 1125 b 285 1007 361 1042 326 1007 b 208 1083 243 1007 208 1042 "},"з":{"ha":618,"x_min":0,"x_max":0,"o":"m 299 21 b 444 167 390 21 444 76 b 285 306 444 229 424 306 l 194 306 l 194 354 l 292 354 b 417 465 375 354 417 396 b 264 583 417 521 375 583 b 69 417 118 583 69 417 l 69 646 l 132 569 b 306 646 132 569 194 646 b 535 479 424 646 535 597 b 403 338 535 354 403 338 l 403 333 b 569 167 403 333 569 326 b 299 -21 569 69 472 -21 b 42 146 132 -21 42 56 b 97 215 42 188 63 215 b 150 146 139 215 150 176 b 299 21 150 69 194 21 "},"и":{"ha":785,"x_min":0,"x_max":0,"o":"m 535 63 l 535 471 l 250 81 l 250 63 l 361 0 l 28 0 l 139 63 l 139 563 l 28 625 l 361 625 l 250 563 l 250 154 l 535 544 l 535 563 l 424 625 l 757 625 l 646 563 l 646 63 l 757 0 l 424 0 "},"й":{"ha":785,"x_min":0,"x_max":0,"o":"m 271 896 b 331 844 303 896 331 879 b 307 774 331 806 299 799 b 392 736 314 750 344 736 b 478 774 440 736 469 750 b 454 844 486 799 454 806 b 514 896 454 879 482 896 b 582 828 564 896 582 860 b 392 708 582 736 486 708 b 203 828 297 708 203 736 b 271 896 203 860 221 896 m 535 63 l 535 471 l 250 81 l 250 63 l 361 0 l 28 0 l 139 63 l 139 563 l 28 625 l 361 625 l 250 563 l 250 154 l 535 544 l 535 563 l 424 625 l 757 625 l 646 563 l 646 63 l 757 0 l 424 0 "},"к":{"ha":701,"x_min":0,"x_max":0,"o":"m 139 63 l 139 563 l 28 625 l 361 625 l 250 563 l 250 339 l 493 569 l 410 625 l 708 625 l 549 563 l 350 369 l 625 63 l 722 0 l 528 0 l 250 325 l 250 63 l 361 0 l 28 0 "},"л":{"ha":750,"x_min":0,"x_max":0,"o":"m 500 63 l 500 563 l 475 576 l 317 576 l 292 563 l 292 479 b 88 -14 292 264 261 -14 b 7 60 49 -14 7 10 b 64 122 7 104 32 122 b 136 78 107 122 100 78 b 236 479 190 78 236 250 l 236 563 l 125 625 l 722 625 l 611 563 l 611 63 l 722 0 l 389 0 "},"м":{"ha":910,"x_min":0,"x_max":0,"o":"m 660 63 l 660 521 l 424 -21 l 188 521 l 188 63 l 299 0 l 28 0 l 139 63 l 139 563 l 28 625 l 264 625 l 458 181 l 653 625 l 882 625 l 771 563 l 771 63 l 882 0 l 549 0 "},"н":{"ha":771,"x_min":0,"x_max":0,"o":"m 139 63 l 139 563 l 28 625 l 361 625 l 250 563 l 250 347 l 521 347 l 521 563 l 410 625 l 743 625 l 632 563 l 632 63 l 743 0 l 410 0 l 521 63 l 521 299 l 250 299 l 250 63 l 361 0 l 28 0 "},"о":{"ha":700,"x_min":0,"x_max":0,"o":"m 332 597 b 174 368 231 597 174 507 b 369 28 174 165 256 28 b 526 257 472 28 526 121 b 332 597 526 460 447 597 m 49 313 b 350 646 49 493 171 646 b 651 313 543 646 651 493 b 350 -21 651 132 529 -21 b 49 313 157 -21 49 132 "},"п":{"ha":771,"x_min":0,"x_max":0,"o":"m 250 63 l 361 0 l 28 0 l 139 63 l 139 563 l 28 625 l 743 625 l 632 563 l 632 63 l 743 0 l 410 0 l 521 63 l 521 563 l 496 576 l 275 576 l 250 563 "},"р":{"ha":708,"x_min":0,"x_max":0,"o":"m 208 146 b 344 28 208 69 278 28 b 542 292 451 28 542 118 b 354 556 542 472 458 556 b 208 471 299 556 249 529 m 97 -229 l 97 539 l -14 565 l 208 646 l 208 508 b 410 646 257 583 319 646 b 660 326 556 646 660 528 b 368 -21 660 118 533 -21 b 208 42 257 -21 208 42 l 208 -229 l 319 -292 l -14 -292 "},"с":{"ha":632,"x_min":0,"x_max":0,"o":"m 590 246 b 338 -21 579 86 479 -21 b 49 313 158 -21 49 125 b 351 646 49 507 186 646 b 572 490 490 646 572 571 b 507 425 572 447 539 425 b 447 492 465 425 447 461 b 349 604 447 564 410 604 b 160 356 251 604 160 511 b 383 83 160 149 286 83 b 590 246 451 83 540 128 "},"т":{"ha":653,"x_min":0,"x_max":0,"o":"m 271 63 l 271 583 l 160 583 l 49 431 l 49 625 l 604 625 l 604 431 l 493 583 l 382 583 l 382 63 l 507 0 l 146 0 "},"у":{"ha":688,"x_min":0,"x_max":0,"o":"m 597 563 l 310 -161 b 153 -312 263 -286 208 -312 b 69 -239 104 -312 69 -281 b 132 -169 69 -197 97 -169 b 189 -197 157 -169 171 -182 b 251 -153 211 -217 232 -200 l 329 40 l 76 563 l -49 625 l 307 625 l 196 569 l 383 178 l 539 569 l 428 625 l 722 625 "},"ф":{"ha":986,"x_min":0,"x_max":0,"o":"m 438 -229 l 438 68 b 285 -21 435 64 393 -21 b 49 313 153 -21 49 90 b 285 646 49 535 153 646 b 438 556 390 646 433 564 l 438 886 l 326 913 l 549 993 l 549 556 b 701 646 553 568 599 646 b 938 313 833 646 938 535 b 701 -21 938 90 833 -21 b 549 68 596 -21 553 60 l 549 -229 l 660 -292 l 326 -292 m 667 590 b 549 507 576 590 549 507 l 549 117 b 667 35 550 113 578 35 b 813 313 771 35 813 167 b 667 590 813 458 771 590 m 438 507 b 319 590 438 507 410 590 b 174 313 215 590 174 458 b 319 35 174 167 215 35 b 438 118 410 35 438 118 "},"х":{"ha":722,"x_min":0,"x_max":0,"o":"m 236 576 l 372 396 l 507 569 l 410 625 l 694 625 l 563 563 l 401 357 l 625 63 l 750 0 l 403 0 l 500 49 l 333 268 l 167 56 l 264 0 l -21 0 l 111 63 l 303 308 l 111 563 l -14 625 l 333 625 "},"ц":{"ha":785,"x_min":0,"x_max":0,"o":"m 521 563 l 410 625 l 743 625 l 632 563 l 632 63 l 657 49 l 771 49 l 653 -264 l 653 0 l 28 0 l 139 63 l 139 563 l 28 625 l 361 625 l 250 563 l 250 63 l 275 49 l 496 49 l 521 63 "},"ч":{"ha":715,"x_min":0,"x_max":0,"o":"m 465 319 b 285 243 465 319 396 243 b 97 424 181 243 97 292 l 97 563 l -14 625 l 319 625 l 208 563 l 208 424 b 326 299 208 333 257 299 b 465 347 410 299 465 347 l 465 563 l 354 625 l 688 625 l 576 563 l 576 63 l 688 0 l 326 0 l 465 63 "},"ш":{"ha":1069,"x_min":0,"x_max":0,"o":"m 819 563 l 722 625 l 1042 625 l 931 563 l 931 63 l 1042 0 l 28 0 l 139 63 l 139 563 l 28 625 l 347 625 l 250 563 l 250 63 l 275 49 l 479 49 l 479 563 l 382 625 l 688 625 l 590 563 l 590 49 l 794 49 l 819 63 "},"щ":{"ha":1083,"x_min":0,"x_max":0,"o":"m 819 563 l 708 625 l 1042 625 l 931 563 l 931 63 l 956 49 l 1069 49 l 951 -264 l 951 0 l 28 0 l 139 63 l 139 563 l 28 625 l 347 625 l 250 563 l 250 63 l 275 49 l 479 49 l 479 563 l 382 625 l 688 625 l 590 563 l 590 49 l 794 49 l 819 63 "},"ъ":{"ha":736,"x_min":0,"x_max":0,"o":"m 236 569 l 211 583 l 160 583 l 49 431 l 49 625 l 458 625 l 347 563 l 347 347 l 451 347 b 701 174 563 347 701 313 b 451 0 701 35 563 0 l 125 0 l 236 63 m 347 299 l 347 63 l 372 49 l 444 49 b 583 174 528 49 583 104 b 444 299 583 243 542 299 "},"ы":{"ha":958,"x_min":0,"x_max":0,"o":"m 139 63 l 139 563 l 28 625 l 361 625 l 250 563 l 250 347 l 354 347 b 604 174 465 347 604 313 b 354 0 604 35 465 0 l 28 0 m 250 299 l 250 63 l 275 49 l 347 49 b 486 174 431 49 486 104 b 347 299 486 243 444 299 m 708 63 l 708 563 l 597 625 l 931 625 l 819 563 l 819 63 l 931 0 l 597 0 "},"ь":{"ha":639,"x_min":0,"x_max":0,"o":"m 139 63 l 139 563 l 28 625 l 361 625 l 250 563 l 250 347 l 354 347 b 604 174 465 347 604 313 b 354 0 604 35 465 0 l 28 0 m 250 299 l 250 63 l 275 49 l 347 49 b 486 174 431 49 486 104 b 347 299 486 243 444 299 "},"э":{"ha":653,"x_min":0,"x_max":0,"o":"m 194 354 l 476 354 b 271 583 463 519 379 583 b 69 418 132 583 74 432 l 69 646 l 132 569 b 313 646 132 569 201 646 b 604 313 493 646 604 521 b 292 -21 604 97 479 -21 b 49 153 139 -21 49 63 b 104 222 49 194 69 222 b 157 153 146 222 157 183 b 292 21 157 69 201 21 b 479 306 389 21 479 97 l 194 306 "},"ю":{"ha":992,"x_min":0,"x_max":0,"o":"m 139 63 l 139 563 l 28 625 l 361 625 l 250 563 l 250 340 l 368 340 b 656 646 379 508 485 646 b 943 313 849 646 943 493 b 656 -21 943 132 835 -21 b 368 292 469 -21 375 119 l 250 292 l 250 63 l 361 0 l 28 0 m 636 597 b 493 368 535 597 493 493 b 675 28 493 172 561 28 b 818 257 778 28 818 135 b 636 597 818 453 751 597 "},"я":{"ha":701,"x_min":0,"x_max":0,"o":"m 563 563 l 563 63 l 674 0 l 340 0 l 451 63 l 451 278 l 369 278 l 169 0 l -21 0 l 76 63 l 249 288 b 97 451 168 306 97 351 b 347 625 97 590 236 625 l 674 625 m 451 326 l 451 563 l 426 576 l 354 576 b 215 451 271 576 215 521 b 354 326 215 382 257 326 "},"І":{"ha":451,"x_min":0,"x_max":0,"o":"m 292 826 l 292 76 l 431 0 l 21 0 l 160 76 l 160 826 l 21 903 l 431 903 "},"і":{"ha":382,"x_min":0,"x_max":0,"o":"m 139 539 l 139 63 l 28 0 l 361 0 l 250 63 l 250 646 l 28 565 m 104 847 b 181 924 104 889 139 924 b 257 847 222 924 257 889 b 181 771 257 806 222 771 b 104 847 139 771 104 806 "},"Ў":{"ha":910,"x_min":0,"x_max":0,"o":"m 792 826 l 444 90 b 299 -21 408 14 361 -21 b 188 76 236 -21 188 21 b 264 160 188 132 229 160 b 361 90 340 160 326 90 b 404 126 382 90 394 104 l 457 239 l 125 819 l -14 903 l 375 903 l 257 833 l 524 383 l 736 833 l 611 903 l 938 903 m 631 1190 b 704 1118 685 1190 704 1150 b 486 993 704 1026 594 993 b 268 1118 378 993 268 1026 b 342 1190 268 1150 288 1190 b 410 1135 378 1190 410 1169 b 386 1064 410 1096 378 1089 b 486 1028 393 1040 439 1028 b 586 1064 533 1028 579 1040 b 563 1135 594 1089 563 1096 b 631 1190 563 1169 594 1190 "},"ў":{"ha":688,"x_min":0,"x_max":0,"o":"m 597 563 l 310 -161 b 153 -312 263 -286 208 -312 b 69 -239 104 -312 69 -281 b 132 -169 69 -197 97 -169 b 189 -197 157 -169 171 -182 b 251 -153 211 -217 232 -200 l 329 40 l 76 563 l -49 625 l 307 625 l 196 569 l 383 178 l 539 569 l 428 625 l 722 625 m 243 896 b 303 844 275 896 303 879 b 279 774 303 806 271 799 b 364 736 286 750 317 736 b 450 774 413 736 442 750 b 426 844 458 799 426 806 b 486 896 426 879 454 896 b 554 828 536 896 554 860 b 364 708 554 736 458 708 b 175 828 269 708 175 736 b 243 896 175 860 193 896 "},"Ђ":{"ha":1007,"x_min":0,"x_max":0,"o":"m 826 206 b 632 493 826 372 778 493 b 458 410 521 493 458 410 l 458 76 l 597 0 l 188 0 l 326 76 l 326 854 l 181 854 l 56 611 l 56 903 l 861 903 l 861 611 l 736 854 l 458 854 l 458 451 b 688 556 458 451 556 556 b 958 229 889 556 958 396 b 465 -312 958 -243 482 -306 b 826 206 476 -304 826 -219 "},"ђ":{"ha":715,"x_min":0,"x_max":0,"o":"m 243 514 b 438 646 292 581 347 646 b 653 293 556 646 653 542 b 208 -312 653 -186 225 -306 b 542 275 219 -304 542 -178 b 385 563 542 431 499 563 b 243 471 326 563 285 522 l 243 63 l 354 0 l 21 0 l 132 63 l 132 722 l -21 722 l -21 771 l 132 771 l 132 886 l 21 913 l 243 993 l 243 771 l 417 771 l 417 722 l 243 722 "},"ј":{"ha":319,"x_min":0,"x_max":0,"o":"m 111 0 b 49 -264 111 -181 90 -264 b -43 -167 14 -264 33 -167 b -104 -231 -76 -167 -104 -190 b 0 -312 -104 -286 -56 -312 b 222 56 139 -312 222 -187 l 222 646 l 0 565 l 111 539 m 76 847 b 153 924 76 889 111 924 b 229 847 194 924 229 889 b 153 771 229 806 194 771 b 76 847 111 771 76 806 "},"Ј":{"ha":715,"x_min":0,"x_max":0,"o":"m 569 826 l 569 313 b 292 -21 569 97 458 -21 b 42 188 101 -21 42 97 b 139 317 42 285 93 317 b 215 243 194 317 215 278 b 146 125 215 167 146 188 b 285 21 146 69 194 21 b 438 229 382 21 438 88 l 438 826 l 271 903 l 708 903 "},"Љ":{"ha":1326,"x_min":0,"x_max":0,"o":"m 799 826 l 799 500 l 924 500 b 1285 250 1125 500 1285 424 b 924 0 1285 76 1125 0 l 528 0 l 667 76 l 667 826 l 618 854 l 424 854 l 375 826 l 375 674 b 111 -21 375 181 271 -21 b 0 69 56 -21 0 7 b 63 139 0 118 35 139 b 160 76 132 139 111 76 b 313 674 236 76 313 264 l 313 826 l 174 903 l 938 903 m 799 76 l 847 49 l 910 49 b 1132 250 1035 49 1132 97 b 910 451 1132 403 1035 451 l 799 451 "},"љ":{"ha":986,"x_min":0,"x_max":0,"o":"m 486 63 l 486 563 l 461 576 l 317 576 l 292 563 l 292 479 b 88 -14 292 264 261 -14 b 7 60 49 -14 7 10 b 64 122 7 104 32 122 b 136 78 107 122 100 78 b 236 479 190 78 236 250 l 236 563 l 125 625 l 708 625 l 597 563 l 597 347 l 701 347 b 951 174 813 347 951 313 b 701 0 951 35 813 0 l 375 0 m 597 299 l 597 63 l 622 49 l 694 49 b 833 174 778 49 833 104 b 694 299 833 243 792 299 "},"њ":{"ha":1021,"x_min":0,"x_max":0,"o":"m 139 63 l 139 563 l 28 625 l 361 625 l 250 563 l 250 347 l 521 347 l 521 563 l 410 625 l 743 625 l 632 563 l 632 347 l 736 347 b 986 174 847 347 986 313 b 736 0 986 35 847 0 l 410 0 l 521 63 l 521 299 l 250 299 l 250 63 l 361 0 l 28 0 m 632 299 l 632 63 l 657 49 l 729 49 b 868 174 813 49 868 104 b 729 299 868 243 826 299 "},"Њ":{"ha":1368,"x_min":0,"x_max":0,"o":"m 833 826 l 833 500 l 965 500 b 1326 250 1167 500 1326 424 b 965 0 1326 76 1167 0 l 563 0 l 701 76 l 701 451 l 292 451 l 292 76 l 431 0 l 21 0 l 160 76 l 160 826 l 21 903 l 431 903 l 292 826 l 292 500 l 701 500 l 701 826 l 563 903 l 972 903 m 833 76 l 882 49 l 951 49 b 1174 250 1076 49 1174 97 b 951 451 1174 403 1076 451 l 833 451 "},"Ћ":{"ha":1042,"x_min":0,"x_max":0,"o":"m 326 76 l 326 854 l 181 854 l 56 611 l 56 903 l 861 903 l 861 611 l 736 854 l 458 854 l 458 451 b 688 556 458 451 556 556 b 931 243 889 556 931 410 l 931 76 l 1069 0 l 660 0 l 799 76 l 799 236 b 632 493 799 375 778 493 b 458 410 521 493 458 410 l 458 76 l 597 0 l 188 0 "},"ћ":{"ha":736,"x_min":0,"x_max":0,"o":"m 243 517 b 454 646 292 569 365 646 b 625 418 588 646 625 556 l 625 63 l 736 0 l 403 0 l 514 63 l 514 400 b 406 563 514 514 492 563 b 243 475 347 563 285 526 l 243 63 l 354 0 l 21 0 l 132 63 l 132 722 l -21 722 l -21 771 l 132 771 l 132 886 l 21 913 l 243 993 l 243 771 l 417 771 l 417 722 l 243 722 "},"Џ":{"ha":993,"x_min":0,"x_max":0,"o":"m 160 76 l 160 826 l 21 903 l 431 903 l 292 826 l 292 76 l 340 49 l 653 49 l 701 76 l 701 826 l 563 903 l 972 903 l 833 826 l 833 76 l 972 0 l 569 0 l 496 -292 l 422 0 l 21 0 "},"џ":{"ha":771,"x_min":0,"x_max":0,"o":"m 326 0 l 28 0 l 139 63 l 139 563 l 28 625 l 361 625 l 250 563 l 250 63 l 275 49 l 496 49 l 521 63 l 521 563 l 410 625 l 743 625 l 632 563 l 632 63 l 743 0 l 443 0 l 385 -264 "},"Ә":{"ha":938,"x_min":0,"x_max":0,"o":"m 125 924 l 208 847 b 465 924 208 847 293 924 b 889 451 729 924 889 743 b 465 -21 889 167 708 -21 b 42 444 201 -21 42 160 l 42 493 l 735 493 b 451 882 725 732 629 882 b 229 806 306 882 229 806 l 125 583 m 465 21 b 736 444 631 21 733 185 l 194 444 b 465 21 194 181 285 21 "},"ә":{"ha":653,"x_min":0,"x_max":0,"o":"m 63 379 b 315 646 74 539 174 646 b 604 313 494 646 604 500 b 315 -21 604 118 479 -21 b 63 250 139 -21 63 104 l 492 250 b 493 269 492 256 493 263 b 269 542 493 490 367 542 b 63 379 201 542 113 497 m 313 21 b 489 208 396 21 469 88 l 285 208 b 174 132 215 208 174 188 b 313 21 174 63 236 21 "},"Ғ":{"ha":785,"x_min":0,"x_max":0,"o":"m 14 493 l 160 493 l 160 826 l 21 903 l 729 903 l 729 611 l 604 854 l 340 854 l 292 826 l 292 493 l 542 493 l 542 444 l 292 444 l 292 76 l 444 0 l 21 0 l 160 76 l 160 444 l 14 444 "},"ғ":{"ha":604,"x_min":0,"x_max":0,"o":"m 14 347 l 139 347 l 139 563 l 28 625 l 556 625 l 556 431 l 444 583 l 275 583 l 250 569 l 250 347 l 417 347 l 417 299 l 250 299 l 250 76 l 389 0 l 28 0 l 139 63 l 139 299 l 14 299 "},"Қ":{"ha":958,"x_min":0,"x_max":0,"o":"m 292 826 l 292 486 l 650 831 l 558 903 l 915 903 l 703 814 l 410 521 l 860 49 l 986 49 l 833 -292 l 833 0 l 722 0 l 292 457 l 292 76 l 431 0 l 21 0 l 160 76 l 160 826 l 21 903 l 431 903 "},"қ":{"ha":715,"x_min":0,"x_max":0,"o":"m 139 63 l 139 563 l 28 625 l 361 625 l 250 563 l 250 339 l 493 569 l 410 625 l 708 625 l 549 563 l 350 369 l 638 49 l 736 49 l 618 -264 l 618 0 l 528 0 l 250 325 l 250 63 l 361 0 l 28 0 "},"Ң":{"ha":1042,"x_min":0,"x_max":0,"o":"m 576 0 l 715 76 l 715 444 l 292 444 l 292 76 l 431 0 l 21 0 l 160 76 l 160 826 l 21 903 l 431 903 l 292 826 l 292 493 l 715 493 l 715 826 l 576 903 l 986 903 l 847 826 l 847 76 l 897 49 l 1042 49 l 889 -292 l 889 0 "},"ң":{"ha":785,"x_min":0,"x_max":0,"o":"m 139 63 l 139 563 l 28 625 l 361 625 l 250 563 l 250 347 l 521 347 l 521 563 l 410 625 l 743 625 l 632 563 l 632 63 l 657 49 l 771 49 l 653 -264 l 653 0 l 410 0 l 521 63 l 521 299 l 250 299 l 250 63 l 361 0 l 28 0 "},"Ө":{"ha":944,"x_min":0,"x_max":0,"o":"m 49 451 b 472 924 49 736 229 924 b 896 451 715 924 896 736 b 472 -21 896 167 715 -21 b 49 451 229 -21 49 167 m 472 21 b 743 444 638 21 740 185 l 201 444 b 472 21 203 185 307 21 m 472 882 b 201 493 314 882 213 732 l 742 493 b 472 882 732 732 629 882 "},"ө":{"ha":700,"x_min":0,"x_max":0,"o":"m 49 313 b 350 646 49 493 171 646 b 651 313 543 646 651 493 b 350 -21 651 132 529 -21 b 49 313 157 -21 49 132 m 526 257 b 525 299 526 271 525 285 l 176 299 b 369 28 193 135 268 28 b 526 257 472 28 526 121 m 332 597 b 174 368 231 597 174 507 l 174 347 l 521 347 b 332 597 500 499 429 597 "},"Ү":{"ha":931,"x_min":0,"x_max":0,"o":"m 264 833 l 507 451 l 750 833 l 639 903 l 958 903 l 819 826 l 549 399 l 549 76 l 688 0 l 278 0 l 417 76 l 417 361 l 125 819 l -14 903 l 375 903 "},"ү":{"ha":694,"x_min":0,"x_max":0,"o":"m 604 563 l 403 117 l 403 -229 l 514 -292 l 181 -292 l 292 -229 l 292 86 l 76 563 l -49 625 l 307 625 l 196 569 l 375 174 l 553 569 l 442 625 l 729 625 "},"Ұ":{"ha":931,"x_min":0,"x_max":0,"o":"m 208 299 l 417 299 l 417 361 l 125 819 l -14 903 l 375 903 l 264 833 l 507 451 l 750 833 l 639 903 l 958 903 l 819 826 l 549 399 l 549 299 l 757 299 l 757 250 l 549 250 l 549 76 l 688 0 l 278 0 l 417 76 l 417 250 l 208 250 "},"ұ":{"ha":694,"x_min":0,"x_max":0,"o":"m 111 49 l 292 49 l 292 85 l 76 563 l -49 625 l 307 625 l 196 569 l 375 174 l 553 569 l 442 625 l 729 625 l 604 563 l 403 115 l 403 49 l 583 49 l 583 0 l 403 0 l 403 -229 l 514 -292 l 181 -292 l 292 -229 l 292 0 l 111 0 "},"Һ":{"ha":889,"x_min":0,"x_max":0,"o":"m 160 826 l 21 903 l 431 903 l 292 826 l 292 451 b 521 556 292 451 389 556 b 764 243 722 556 764 410 l 764 76 l 903 0 l 493 0 l 632 76 l 632 236 b 465 493 632 375 611 493 b 292 410 354 493 292 410 l 292 76 l 431 0 l 21 0 l 160 76 "},"һ":{"ha":736,"x_min":0,"x_max":0,"o":"m 514 63 l 514 400 b 406 563 514 514 492 563 b 243 475 347 563 285 526 l 243 63 l 354 0 l 21 0 l 132 63 l 132 886 l 21 913 l 243 993 l 243 517 b 454 646 292 569 365 646 b 625 418 588 646 625 556 l 625 63 l 736 0 l 403 0 "},"ѓ":{"ha":604,"x_min":0,"x_max":0,"o":"m 250 76 l 389 0 l 28 0 l 139 63 l 139 563 l 28 625 l 556 625 l 556 431 l 444 583 l 275 583 l 250 569 m 542 972 l 222 694 l 382 972 "},"Ѓ":{"ha":785,"x_min":0,"x_max":0,"o":"m 292 76 l 444 0 l 21 0 l 160 76 l 160 826 l 21 903 l 729 903 l 729 611 l 604 854 l 340 854 l 292 826 m 674 1250 l 326 972 l 486 1250 "},"Ѕ":{"ha":736,"x_min":0,"x_max":0,"o":"m 632 625 l 528 813 b 354 882 528 813 458 882 b 167 729 243 882 167 813 b 313 569 167 654 231 606 l 486 493 b 681 250 575 454 681 403 b 354 -21 681 76 535 -21 b 153 42 222 -21 153 42 l 69 -21 l 69 319 l 181 90 b 354 21 181 90 236 21 b 556 201 472 21 556 90 b 403 368 556 313 461 342 l 229 444 b 56 674 131 488 56 557 b 354 924 56 847 194 924 b 549 861 472 924 549 861 l 632 924 "},"ѕ":{"ha":556,"x_min":0,"x_max":0,"o":"m 278 -21 b 125 28 174 -21 125 28 l 69 -21 l 69 257 b 278 21 125 104 174 21 b 396 125 354 21 396 69 b 306 243 396 194 357 218 l 208 289 b 63 465 146 317 63 354 b 271 646 63 567 146 646 b 403 604 354 646 403 604 l 465 646 l 465 403 l 382 563 b 271 604 382 563 347 604 b 153 507 201 604 153 563 b 264 396 153 444 196 428 l 361 350 b 500 167 467 300 500 250 b 278 -21 500 56 403 -21 "},"Ќ":{"ha":944,"x_min":0,"x_max":0,"o":"m 743 1250 l 396 972 l 556 1250 m 292 826 l 292 486 l 650 831 l 558 903 l 915 903 l 703 814 l 410 521 l 833 76 l 944 0 l 722 0 l 292 457 l 292 76 l 431 0 l 21 0 l 160 76 l 160 826 l 21 903 l 431 903 "},"ќ":{"ha":701,"x_min":0,"x_max":0,"o":"m 604 972 l 285 694 l 444 972 m 28 0 l 361 0 l 250 63 l 250 325 l 528 0 l 722 0 l 625 63 l 350 369 l 549 563 l 708 625 l 410 625 l 493 569 l 250 339 l 250 563 l 361 625 l 28 625 l 139 563 l 139 63 "},"Ҙ":{"ha":778,"x_min":0,"x_max":0,"o":"m 76 924 l 160 847 b 375 924 160 847 231 924 b 688 701 583 924 688 826 b 507 500 688 514 507 500 l 507 493 b 729 257 507 493 729 486 b 414 -18 729 104 599 -3 l 386 -62 b 472 -160 386 -62 472 -69 b 326 -278 472 -229 414 -278 b 236 -243 265 -278 238 -244 b 299 -257 240 -246 261 -257 b 382 -181 354 -257 382 -222 b 326 -125 382 -146 358 -125 b 306 -128 314 -125 306 -128 l 371 -21 l 368 -21 b 146 56 210 -21 146 56 l 63 -21 l 63 319 l 167 97 b 354 21 167 97 222 21 b 576 250 507 21 576 111 b 340 465 576 396 479 465 l 236 465 l 236 514 l 368 514 b 549 694 465 514 549 563 b 354 882 549 813 472 882 b 181 806 236 882 181 806 l 76 583 "},"ҙ":{"ha":618,"x_min":0,"x_max":0,"o":"m 299 21 b 444 167 390 21 444 76 b 285 306 444 229 424 306 l 194 306 l 194 354 l 292 354 b 417 465 375 354 417 396 b 264 583 417 521 375 583 b 69 417 118 583 69 417 l 69 646 l 132 569 b 306 646 132 569 194 646 b 535 479 424 646 535 597 b 403 338 535 354 403 338 l 403 333 b 569 167 403 333 569 326 b 331 -19 569 75 483 -8 l 303 -62 b 389 -160 303 -62 389 -69 b 243 -278 389 -229 331 -278 b 153 -243 182 -278 154 -246 b 215 -257 156 -246 176 -257 b 299 -181 271 -257 299 -222 b 243 -125 299 -146 275 -125 b 222 -128 231 -125 222 -128 l 288 -21 b 42 146 128 -18 42 57 b 97 215 42 188 63 215 b 150 146 139 215 150 176 b 299 21 150 69 194 21 "},"Ҡ":{"ha":1069,"x_min":0,"x_max":0,"o":"m 403 826 l 403 486 l 761 831 l 669 903 l 1026 903 l 814 814 l 521 521 l 944 76 l 1056 0 l 833 0 l 403 457 l 403 76 l 542 0 l 132 0 l 271 76 l 271 826 l 222 854 l 167 854 l 42 611 l 42 903 l 542 903 "},"ҡ":{"ha":757,"x_min":0,"x_max":0,"o":"m 194 63 l 194 569 l 169 583 l 132 583 l 21 431 l 21 625 l 417 625 l 306 563 l 306 339 l 549 569 l 465 625 l 764 625 l 604 563 l 406 369 l 681 63 l 778 0 l 583 0 l 306 325 l 306 63 l 417 0 l 83 0 "},"Ҫ":{"ha":896,"x_min":0,"x_max":0,"o":"m 813 583 l 708 806 b 507 882 708 806 639 882 b 201 472 319 882 201 715 b 528 63 201 236 313 63 b 847 304 764 63 843 293 b 501 -19 844 289 785 -8 l 476 -62 b 563 -160 476 -62 563 -69 b 417 -278 563 -229 504 -278 b 326 -243 356 -278 328 -246 b 389 -257 329 -246 350 -257 b 472 -181 444 -257 472 -222 b 417 -125 472 -146 449 -125 b 396 -128 404 -125 396 -128 l 463 -19 b 49 444 218 -8 49 182 b 486 924 49 743 231 924 b 729 847 644 924 729 847 l 813 924 "},"ҫ":{"ha":632,"x_min":0,"x_max":0,"o":"m 590 246 b 365 -19 579 96 492 -6 l 338 -62 b 424 -160 338 -62 424 -69 b 278 -278 424 -229 365 -278 b 188 -243 217 -278 189 -246 b 250 -257 190 -246 211 -257 b 333 -181 306 -257 333 -222 b 278 -125 333 -146 310 -125 b 257 -128 265 -125 257 -128 l 322 -21 b 49 313 153 -12 49 129 b 351 646 49 507 186 646 b 572 490 490 646 572 571 b 507 425 572 447 539 425 b 447 492 465 425 447 461 b 349 604 447 564 410 604 b 160 356 251 604 160 511 b 383 83 160 149 286 83 b 590 246 451 83 540 128 "},"Җ":{"ha":1354,"x_min":0,"x_max":0,"o":"m 743 826 l 743 486 l 1081 831 l 982 903 l 1353 903 l 1140 814 l 858 521 l 1251 49 l 1396 49 l 1243 -292 l 1243 0 l 1118 0 l 743 457 l 743 76 l 882 0 l 472 0 l 611 76 l 611 457 l 236 0 l 0 0 l 125 76 l 496 521 l 214 814 l 1 903 l 372 903 l 274 831 l 611 486 l 611 826 l 472 903 l 882 903 "},"җ":{"ha":972,"x_min":0,"x_max":0,"o":"m 653 0 l 319 0 l 431 63 l 431 324 l 174 0 l -28 0 l 76 63 l 331 369 l 132 563 l -35 625 l 278 625 l 188 569 l 431 339 l 431 563 l 319 625 l 653 625 l 542 563 l 542 339 l 785 569 l 694 625 l 1007 625 l 840 563 l 642 369 l 907 49 l 1021 49 l 903 -264 l 903 0 l 799 0 l 542 324 l 542 63 "},"Ґ":{"ha":750,"x_min":0,"x_max":0,"o":"m 292 76 l 444 0 l 21 0 l 160 76 l 160 826 l 21 903 l 590 903 l 715 1188 l 715 854 l 340 854 l 292 826 "},"ґ":{"ha":556,"x_min":0,"x_max":0,"o":"m 250 76 l 389 0 l 28 0 l 139 63 l 139 563 l 28 625 l 424 625 l 535 861 l 535 583 l 275 583 l 250 569 "},"є":{"ha":632,"x_min":0,"x_max":0,"o":"m 410 306 l 163 306 b 383 83 181 136 294 83 b 590 246 451 83 540 128 b 338 -21 579 86 479 -21 b 49 313 158 -21 49 125 b 351 646 49 507 186 646 b 572 490 490 646 572 571 b 507 425 572 447 539 425 b 447 492 465 425 447 461 b 349 604 447 564 410 604 b 160 354 251 604 160 510 l 410 354 "},"Є":{"ha":882,"x_min":0,"x_max":0,"o":"m 813 -21 l 729 56 b 486 -21 729 56 644 -21 b 49 451 231 -21 49 132 b 486 924 49 771 231 924 b 729 847 644 924 729 847 l 813 924 l 813 583 l 708 806 b 507 882 708 806 639 882 b 203 493 329 882 214 738 l 625 493 l 625 444 l 201 444 b 507 21 204 178 321 21 b 708 97 639 21 708 97 l 813 319 "},"Ї":{"ha":451,"x_min":0,"x_max":0,"o":"m 292 826 l 292 76 l 431 0 l 21 0 l 160 76 l 160 826 l 21 903 l 431 903 m 24 1083 b 100 1160 24 1125 58 1160 b 176 1083 142 1160 176 1125 b 100 1007 176 1042 142 1007 b 24 1083 58 1007 24 1042 m 275 1083 b 351 1160 275 1125 310 1160 b 428 1083 393 1160 428 1125 b 351 1007 428 1042 393 1007 b 275 1083 310 1007 275 1042 "},"ї":{"ha":382,"x_min":0,"x_max":0,"o":"m 139 539 l 139 63 l 28 0 l 361 0 l 250 63 l 250 646 l 28 565 m -14 847 b 63 924 -14 889 21 924 b 139 847 104 924 139 889 b 63 771 139 806 104 771 b -14 847 21 771 -14 806 m 229 847 b 306 924 229 889 264 924 b 382 847 347 924 382 889 b 306 771 382 806 347 771 b 229 847 264 771 229 806 "},"Ҳ":{"ha":972,"x_min":0,"x_max":0,"o":"m 421 451 l 153 819 l 0 903 l 410 903 l 299 833 l 499 560 l 694 833 l 569 903 l 924 903 l 757 826 l 532 513 l 872 49 l 1021 49 l 868 -292 l 868 0 l 590 0 l 701 69 l 456 406 l 215 69 l 340 0 l -14 0 l 153 76 "},"ҳ":{"ha":722,"x_min":0,"x_max":0,"o":"m 236 576 l 372 396 l 507 569 l 410 625 l 694 625 l 563 563 l 401 357 l 635 49 l 750 49 l 632 -264 l 632 0 l 403 0 l 500 49 l 333 268 l 167 56 l 264 0 l -21 0 l 111 63 l 303 308 l 111 563 l -14 625 l 333 625 "},"Ç":{"ha":896,"x_min":0,"x_max":0,"o":"m 813 583 l 708 806 b 507 882 708 806 639 882 b 201 472 319 882 201 715 b 528 63 201 236 313 63 b 847 304 764 63 843 293 b 501 -19 844 289 785 -8 l 476 -62 b 563 -160 476 -62 563 -69 b 417 -278 563 -229 504 -278 b 326 -243 356 -278 328 -246 b 389 -257 329 -246 350 -257 b 472 -181 444 -257 472 -222 b 417 -125 472 -146 449 -125 b 396 -128 404 -125 396 -128 l 463 -19 b 49 444 218 -8 49 182 b 486 924 49 743 231 924 b 729 847 644 924 729 847 l 813 924 "},"ç":{"ha":632,"x_min":0,"x_max":0,"o":"m 590 246 b 365 -19 579 96 492 -6 l 338 -62 b 424 -160 338 -62 424 -69 b 278 -278 424 -229 365 -278 b 188 -243 217 -278 189 -246 b 250 -257 190 -246 211 -257 b 333 -181 306 -257 333 -222 b 278 -125 333 -146 310 -125 b 257 -128 265 -125 257 -128 l 322 -21 b 49 313 153 -12 49 129 b 351 646 49 507 186 646 b 572 490 490 646 572 571 b 507 425 572 447 539 425 b 447 492 465 425 447 461 b 349 604 447 564 410 604 b 160 356 251 604 160 511 b 383 83 160 149 286 83 b 590 246 451 83 540 128 "},"Ë":{"ha":847,"x_min":0,"x_max":0,"o":"m 292 493 l 465 493 l 563 639 l 563 299 l 465 444 l 292 444 l 292 76 l 340 49 l 639 49 l 764 292 l 764 0 l 21 0 l 160 76 l 160 826 l 21 903 l 743 903 l 743 611 l 618 854 l 340 854 l 292 826 m 514 1083 b 590 1160 514 1125 549 1160 b 667 1083 632 1160 667 1125 b 590 1007 667 1042 632 1007 b 514 1083 549 1007 514 1042 m 208 1083 b 285 1160 208 1125 243 1160 b 361 1083 326 1160 361 1125 b 285 1007 361 1042 326 1007 b 208 1083 243 1007 208 1042 "},"ë":{"ha":653,"x_min":0,"x_max":0,"o":"m 590 246 b 338 -21 579 86 479 -21 b 49 313 158 -21 49 125 b 344 646 49 507 181 646 b 590 375 521 646 590 521 l 160 375 l 160 356 b 383 83 160 135 286 83 b 590 246 451 83 540 128 m 347 604 b 164 417 263 604 185 536 l 368 417 b 479 493 438 417 479 438 b 347 604 479 563 424 604 m 111 847 b 188 924 111 889 146 924 b 264 847 229 924 264 889 b 188 771 264 806 229 771 b 111 847 146 771 111 806 m 382 847 b 458 924 382 889 417 924 b 535 847 500 924 535 889 b 458 771 535 806 500 771 b 382 847 417 771 382 806 "},"Ñ":{"ha":1021,"x_min":0,"x_max":0,"o":"m 806 236 l 806 826 l 653 903 l 1007 903 l 868 826 l 868 -21 l 222 683 l 222 76 l 375 0 l 21 0 l 160 76 l 160 751 l 21 903 l 194 903 m 661 993 b 333 1069 535 993 431 1069 b 213 968 233 1069 215 985 b 371 1167 211 979 203 1167 b 699 1090 497 1167 601 1090 b 819 1189 794 1090 815 1169 b 661 993 819 1174 825 993 "},"ñ":{"ha":743,"x_min":0,"x_max":0,"o":"m 521 63 l 521 400 b 413 563 521 514 499 563 b 250 475 354 563 292 526 l 250 63 l 361 0 l 28 0 l 139 63 l 139 539 l 28 565 l 250 646 l 250 517 b 461 646 299 569 372 646 b 632 418 594 646 632 556 l 632 63 l 743 0 l 410 0 m 604 931 b 490 757 604 931 621 757 b 236 819 413 757 306 819 b 150 729 161 819 150 729 b 264 903 150 729 133 903 b 518 840 342 903 449 840 b 604 931 593 840 604 931 "},"Á":{"ha":944,"x_min":0,"x_max":0,"o":"m 118 76 l 403 750 l 271 903 l 475 903 l 819 83 l 958 0 l 569 0 l 688 69 l 597 285 l 263 285 l 174 69 l 299 0 l -28 0 m 283 333 l 578 333 l 431 688 m 714 1250 l 367 972 l 526 1250 "},"á":{"ha":653,"x_min":0,"x_max":0,"o":"m 217 329 b 63 139 124 290 63 229 b 210 -21 63 43 125 -21 b 310 11 251 -21 279 -11 l 417 82 b 493 -21 417 8 444 -21 b 653 118 542 -21 653 118 l 528 69 l 528 444 b 326 646 528 563 478 646 b 86 483 243 646 86 569 b 143 418 86 443 110 418 b 200 483 176 418 200 440 b 313 604 200 568 236 604 b 417 444 389 604 417 568 l 417 411 m 417 126 b 272 58 360 81 307 58 b 176 160 208 58 176 104 b 310 326 176 229 207 283 l 417 371 l 417 126 m 542 972 l 222 694 l 382 972 "},"Â":{"ha":944,"x_min":0,"x_max":0,"o":"m 118 76 l 403 750 l 271 903 l 475 903 l 819 83 l 958 0 l 569 0 l 688 69 l 597 285 l 263 285 l 174 69 l 299 0 l -28 0 m 283 333 l 578 333 l 431 688 m 174 972 l 451 1236 l 729 972 l 451 1111 "},"â":{"ha":653,"x_min":0,"x_max":0,"o":"m 417 411 l 417 444 b 313 604 417 568 389 604 b 200 483 236 604 200 568 b 143 418 200 440 176 418 b 86 483 110 418 86 443 b 326 646 86 569 243 646 b 528 444 478 646 528 563 l 528 69 l 653 118 b 493 -21 653 118 542 -21 b 417 82 444 -21 417 8 l 310 11 b 210 -21 279 -11 251 -21 b 63 139 125 -21 63 43 b 217 329 63 229 124 290 m 417 371 l 310 326 b 176 160 207 283 176 229 b 272 58 176 104 208 58 b 417 126 307 58 360 81 m 92 694 l 314 944 l 536 694 l 314 819 "},"Ã":{"ha":944,"x_min":0,"x_max":0,"o":"m 118 76 l 403 750 l 271 903 l 475 903 l 819 83 l 958 0 l 569 0 l 688 69 l 597 285 l 263 285 l 174 69 l 299 0 l -28 0 m 613 993 b 285 1069 486 993 382 1069 b 164 968 185 1069 167 985 b 322 1167 163 979 154 1167 b 650 1090 449 1167 553 1090 b 771 1189 746 1090 767 1169 b 613 993 771 1174 776 993 m 283 333 l 578 333 l 431 688 "},"ã":{"ha":653,"x_min":0,"x_max":0,"o":"m 417 411 l 417 444 b 313 604 417 568 389 604 b 200 483 236 604 200 568 b 143 418 200 440 176 418 b 86 483 110 418 86 443 b 326 646 86 569 243 646 b 528 444 478 646 528 563 l 528 69 l 653 118 b 493 -21 653 118 542 -21 b 417 82 444 -21 417 8 l 310 11 b 210 -21 279 -11 251 -21 b 63 139 125 -21 63 43 b 217 329 63 229 124 290 m 417 371 l 310 326 b 176 160 207 283 176 229 b 272 58 176 104 208 58 b 417 126 307 58 360 81 m 556 931 b 442 757 556 931 572 757 b 188 819 364 757 257 819 b 101 729 113 819 101 729 b 215 903 101 729 85 903 b 469 840 293 903 400 840 b 556 931 544 840 556 931 "},"À":{"ha":944,"x_min":0,"x_max":0,"o":"m 118 76 l 403 750 l 271 903 l 475 903 l 819 83 l 958 0 l 569 0 l 688 69 l 597 285 l 263 285 l 174 69 l 299 0 l -28 0 m 283 333 l 578 333 l 431 688 m 403 1250 l 563 972 l 215 1250 "},"à":{"ha":653,"x_min":0,"x_max":0,"o":"m 417 411 l 417 444 b 313 604 417 568 389 604 b 200 483 236 604 200 568 b 143 418 200 440 176 418 b 86 483 110 418 86 443 b 326 646 86 569 243 646 b 528 444 478 646 528 563 l 528 69 l 653 118 b 493 -21 653 118 542 -21 b 417 82 444 -21 417 8 l 310 11 b 210 -21 279 -11 251 -21 b 63 139 125 -21 63 43 b 217 329 63 229 124 290 m 417 371 l 310 326 b 176 160 207 283 176 229 b 272 58 176 104 208 58 b 417 126 307 58 360 81 m 285 972 l 444 694 l 125 972 "},"É":{"ha":847,"x_min":0,"x_max":0,"o":"m 292 493 l 465 493 l 563 639 l 563 299 l 465 444 l 292 444 l 292 76 l 340 49 l 639 49 l 764 292 l 764 0 l 21 0 l 160 76 l 160 826 l 21 903 l 743 903 l 743 611 l 618 854 l 340 854 l 292 826 m 651 1250 l 304 972 l 464 1250 "},"é":{"ha":653,"x_min":0,"x_max":0,"o":"m 590 246 b 338 -21 579 86 479 -21 b 49 313 158 -21 49 125 b 344 646 49 507 181 646 b 590 375 521 646 590 521 l 160 375 l 160 356 b 383 83 160 135 286 83 b 590 246 451 83 540 128 m 347 604 b 164 417 263 604 185 536 l 368 417 b 479 493 438 417 479 438 b 347 604 479 563 424 604 m 542 972 l 222 694 l 382 972 "},"Ê":{"ha":847,"x_min":0,"x_max":0,"o":"m 292 493 l 465 493 l 563 639 l 563 299 l 465 444 l 292 444 l 292 76 l 340 49 l 639 49 l 764 292 l 764 0 l 21 0 l 160 76 l 160 826 l 21 903 l 743 903 l 743 611 l 618 854 l 340 854 l 292 826 m 160 972 l 438 1236 l 715 972 l 438 1111 "},"ê":{"ha":653,"x_min":0,"x_max":0,"o":"m 590 246 b 338 -21 579 86 479 -21 b 49 313 158 -21 49 125 b 344 646 49 507 181 646 b 590 375 521 646 590 521 l 160 375 l 160 356 b 383 83 160 135 286 83 b 590 246 451 83 540 128 m 347 604 b 164 417 263 604 185 536 l 368 417 b 479 493 438 417 479 438 b 347 604 479 563 424 604 m 106 694 l 328 944 l 550 694 l 328 819 "},"Í":{"ha":451,"x_min":0,"x_max":0,"o":"m 292 826 l 292 76 l 431 0 l 21 0 l 160 76 l 160 826 l 21 903 l 431 903 m 464 1250 l 117 972 l 276 1250 "},"í":{"ha":382,"x_min":0,"x_max":0,"o":"m 139 539 l 139 63 l 28 0 l 361 0 l 250 63 l 250 646 l 28 565 m 389 972 l 69 694 l 229 972 "},"Ó":{"ha":944,"x_min":0,"x_max":0,"o":"m 49 451 b 472 924 49 736 229 924 b 896 451 715 924 896 736 b 472 -21 896 167 715 -21 b 49 451 229 -21 49 167 m 201 451 b 472 21 201 188 306 21 b 743 451 639 21 743 188 b 472 882 743 715 639 882 b 201 451 306 882 201 715 m 742 1250 l 394 972 l 554 1250 "},"ó":{"ha":700,"x_min":0,"x_max":0,"o":"m 332 597 b 174 368 231 597 174 507 b 369 28 174 165 256 28 b 526 257 472 28 526 121 b 332 597 526 460 447 597 m 49 313 b 350 646 49 493 171 646 b 651 313 543 646 651 493 b 350 -21 651 132 529 -21 b 49 313 157 -21 49 132 m 563 972 l 243 694 l 403 972 "},"Ô":{"ha":944,"x_min":0,"x_max":0,"o":"m 49 451 b 472 924 49 736 229 924 b 896 451 715 924 896 736 b 472 -21 896 167 715 -21 b 49 451 229 -21 49 167 m 201 451 b 472 21 201 188 306 21 b 743 451 639 21 743 188 b 472 882 743 715 639 882 b 201 451 306 882 201 715 m 194 972 l 472 1236 l 750 972 l 472 1111 "},"ô":{"ha":700,"x_min":0,"x_max":0,"o":"m 332 597 b 174 368 231 597 174 507 b 369 28 174 165 256 28 b 526 257 472 28 526 121 b 332 597 526 460 447 597 m 49 313 b 350 646 49 493 171 646 b 651 313 543 646 651 493 b 350 -21 651 132 529 -21 b 49 313 157 -21 49 132 m 133 694 l 356 944 l 578 694 l 356 819 "},"Õ":{"ha":944,"x_min":0,"x_max":0,"o":"m 49 451 b 472 924 49 736 229 924 b 896 451 715 924 896 736 b 472 -21 896 167 715 -21 b 49 451 229 -21 49 167 m 201 451 b 472 21 201 188 306 21 b 743 451 639 21 743 188 b 472 882 743 715 639 882 b 201 451 306 882 201 715 m 619 993 b 319 1069 521 993 417 1069 b 192 965 242 1069 196 979 b 371 1167 196 983 246 1167 b 671 1090 469 1167 574 1090 b 799 1193 750 1090 796 1189 b 619 993 796 1183 746 993 "},"õ":{"ha":700,"x_min":0,"x_max":0,"o":"m 49 313 b 350 646 49 493 171 646 b 651 313 543 646 651 493 b 350 -21 651 132 529 -21 b 49 313 157 -21 49 132 m 332 597 b 174 368 231 597 174 507 b 369 28 174 165 256 28 b 526 257 472 28 526 121 b 332 597 526 460 447 597 m 453 736 b 236 799 368 736 306 799 b 136 722 172 799 140 733 b 274 882 139 740 178 882 b 490 819 358 882 421 819 b 590 894 556 819 589 892 b 453 736 589 888 553 736 "},"Ú":{"ha":972,"x_min":0,"x_max":0,"o":"m 278 826 l 417 903 l 7 903 l 146 826 l 146 322 b 503 -21 146 132 243 -21 b 833 322 735 -21 833 132 l 833 826 l 972 903 l 632 903 l 771 826 l 771 301 b 524 56 771 165 701 56 b 278 301 346 56 278 165 m 728 1250 l 381 972 l 540 1250 "},"ú":{"ha":729,"x_min":0,"x_max":0,"o":"m -7 565 l 215 646 l 215 225 b 324 63 215 111 238 63 b 493 150 382 63 451 99 l 493 539 l 382 565 l 604 646 l 604 86 l 715 60 l 493 -21 l 493 108 b 275 -21 444 56 364 -21 b 104 207 142 -21 104 69 l 104 539 m 604 972 l 285 694 l 444 972 "},"Ä":{"ha":944,"x_min":0,"x_max":0,"o":"m 118 76 l 403 750 l 271 903 l 475 903 l 819 83 l 958 0 l 569 0 l 688 69 l 597 285 l 263 285 l 174 69 l 299 0 l -28 0 m 283 333 l 578 333 l 431 688 m 201 1083 b 278 1160 201 1125 236 1160 b 354 1083 319 1160 354 1125 b 278 1007 354 1042 319 1007 b 201 1083 236 1007 201 1042 m 507 1083 b 583 1160 507 1125 542 1160 b 660 1083 625 1160 660 1125 b 583 1007 660 1042 625 1007 b 507 1083 542 1007 507 1042 "},"ä":{"ha":653,"x_min":0,"x_max":0,"o":"m 217 329 b 63 139 124 290 63 229 b 210 -21 63 43 125 -21 b 310 11 251 -21 279 -11 l 417 82 b 493 -21 417 8 444 -21 b 653 118 542 -21 653 118 l 528 69 l 528 444 b 326 646 528 563 478 646 b 86 483 243 646 86 569 b 143 418 86 443 110 418 b 200 483 176 418 200 440 b 313 604 200 568 236 604 b 417 444 389 604 417 568 l 417 411 m 417 126 b 272 58 360 81 307 58 b 176 160 208 58 176 104 b 310 326 176 229 207 283 l 417 371 l 417 126 m 111 847 b 188 924 111 889 146 924 b 264 847 229 924 264 889 b 188 771 264 806 229 771 b 111 847 146 771 111 806 m 382 847 b 458 924 382 889 417 924 b 535 847 500 924 535 889 b 458 771 535 806 500 771 b 382 847 417 771 382 806 "},"Ö":{"ha":944,"x_min":0,"x_max":0,"o":"m 49 451 b 472 924 49 736 229 924 b 896 451 715 924 896 736 b 472 -21 896 167 715 -21 b 49 451 229 -21 49 167 m 201 451 b 472 21 201 188 306 21 b 743 451 639 21 743 188 b 472 882 743 715 639 882 b 201 451 306 882 201 715 m 243 1083 b 319 1160 243 1125 278 1160 b 396 1083 361 1160 396 1125 b 319 1007 396 1042 361 1007 b 243 1083 278 1007 243 1042 m 549 1083 b 625 1160 549 1125 583 1160 b 701 1083 667 1160 701 1125 b 625 1007 701 1042 667 1007 b 549 1083 583 1007 549 1042 "},"ö":{"ha":700,"x_min":0,"x_max":0,"o":"m 332 597 b 174 368 231 597 174 507 b 369 28 174 165 256 28 b 526 257 472 28 526 121 b 332 597 526 460 447 597 m 49 313 b 350 646 49 493 171 646 b 651 313 543 646 651 493 b 350 -21 651 132 529 -21 b 49 313 157 -21 49 132 m 139 847 b 215 924 139 889 174 924 b 292 847 257 924 292 889 b 215 771 292 806 257 771 b 139 847 174 771 139 806 m 410 847 b 486 924 410 889 444 924 b 563 847 528 924 563 889 b 486 771 563 806 528 771 b 410 847 444 771 410 806 "},"Ü":{"ha":972,"x_min":0,"x_max":0,"o":"m 278 826 l 417 903 l 7 903 l 146 826 l 146 322 b 503 -21 146 132 243 -21 b 833 322 735 -21 833 132 l 833 826 l 972 903 l 632 903 l 771 826 l 771 301 b 524 56 771 165 701 56 b 278 301 346 56 278 165 m 271 1083 b 347 1160 271 1125 306 1160 b 424 1083 389 1160 424 1125 b 347 1007 424 1042 389 1007 b 271 1083 306 1007 271 1042 m 576 1083 b 653 1160 576 1125 611 1160 b 729 1083 694 1160 729 1125 b 653 1007 729 1042 694 1007 b 576 1083 611 1007 576 1042 "},"ü":{"ha":729,"x_min":0,"x_max":0,"o":"m -7 565 l 215 646 l 215 225 b 324 63 215 111 238 63 b 493 150 382 63 451 99 l 493 539 l 382 565 l 604 646 l 604 86 l 715 60 l 493 -21 l 493 108 b 275 -21 444 56 364 -21 b 104 207 142 -21 104 69 l 104 539 m 132 847 b 208 924 132 889 167 924 b 285 847 250 924 285 889 b 208 771 285 806 250 771 b 132 847 167 771 132 806 m 403 847 b 479 924 403 889 438 924 b 556 847 521 924 556 889 b 479 771 556 806 521 771 b 403 847 438 771 403 806 "},"ß":{"ha":826,"x_min":0,"x_max":0,"o":"m 208 625 l 749 625 l 551 399 b 792 201 551 399 792 410 b 514 -21 792 83 694 -21 b 264 146 354 -21 264 56 b 319 215 264 188 285 215 b 372 146 361 215 372 176 b 514 21 372 69 410 21 b 667 194 611 21 667 90 b 493 361 667 271 632 361 b 382 340 424 361 382 340 l 582 576 l 233 576 l 208 563 l 208 -229 l 340 -292 l -14 -292 l 97 -229 l 97 625 b 389 993 97 868 236 993 b 535 911 465 993 535 967 b 474 847 535 871 507 847 b 340 944 397 847 403 944 b 208 681 264 944 208 861 "},"È":{"ha":847,"x_min":0,"x_max":0,"o":"m 292 493 l 465 493 l 563 639 l 563 299 l 465 444 l 292 444 l 292 76 l 340 49 l 639 49 l 764 292 l 764 0 l 21 0 l 160 76 l 160 826 l 21 903 l 743 903 l 743 611 l 618 854 l 340 854 l 292 826 m 360 1250 l 519 972 l 172 1250 "},"è":{"ha":653,"x_min":0,"x_max":0,"o":"m 590 246 b 338 -21 579 86 479 -21 b 49 313 158 -21 49 125 b 344 646 49 507 181 646 b 590 375 521 646 590 521 l 160 375 l 160 356 b 383 83 160 135 286 83 b 590 246 451 83 540 128 m 347 604 b 164 417 263 604 185 536 l 368 417 b 479 493 438 417 479 438 b 347 604 479 563 424 604 m 278 972 l 438 694 l 118 972 "},"ù":{"ha":729,"x_min":0,"x_max":0,"o":"m -7 565 l 215 646 l 215 225 b 324 63 215 111 238 63 b 493 150 382 63 451 99 l 493 539 l 382 565 l 604 646 l 604 86 l 715 60 l 493 -21 l 493 108 b 275 -21 444 56 364 -21 b 104 207 142 -21 104 69 l 104 539 m 271 972 l 431 694 l 111 972 "},"Ù":{"ha":972,"x_min":0,"x_max":0,"o":"m 278 301 b 524 56 278 165 346 56 b 771 301 701 56 771 165 l 771 826 l 632 903 l 972 903 l 833 826 l 833 322 b 503 -21 833 132 735 -21 b 146 322 243 -21 146 132 l 146 826 l 7 903 l 417 903 l 278 826 m 422 1250 l 582 972 l 235 1250 "},"Î":{"ha":451,"x_min":0,"x_max":0,"o":"m 292 826 l 292 76 l 431 0 l 21 0 l 160 76 l 160 826 l 21 903 l 431 903 m -53 972 l 225 1236 l 503 972 l 225 1111 "},"î":{"ha":382,"x_min":0,"x_max":0,"o":"m 28 565 l 250 646 l 250 63 l 361 0 l 28 0 l 139 63 l 139 539 m -35 694 l 188 944 l 410 694 l 188 819 "},"Û":{"ha":972,"x_min":0,"x_max":0,"o":"m 278 301 b 524 56 278 165 346 56 b 771 301 701 56 771 165 l 771 826 l 632 903 l 972 903 l 833 826 l 833 322 b 503 -21 833 132 735 -21 b 146 322 243 -21 146 132 l 146 826 l 7 903 l 417 903 l 278 826 m 229 972 l 507 1236 l 785 972 l 507 1111 "},"û":{"ha":729,"x_min":0,"x_max":0,"o":"m -7 565 l 215 646 l 215 225 b 324 63 215 111 238 63 b 493 150 382 63 451 99 l 493 539 l 382 565 l 604 646 l 604 86 l 715 60 l 493 -21 l 493 108 b 275 -21 444 56 364 -21 b 104 207 142 -21 104 69 l 104 539 m 125 694 l 347 944 l 569 694 l 347 819 "},"Ï":{"ha":451,"x_min":0,"x_max":0,"o":"m 292 826 l 292 76 l 431 0 l 21 0 l 160 76 l 160 826 l 21 903 l 431 903 m 24 1083 b 100 1160 24 1125 58 1160 b 176 1083 142 1160 176 1125 b 100 1007 176 1042 142 1007 b 24 1083 58 1007 24 1042 m 275 1083 b 351 1160 275 1125 310 1160 b 428 1083 393 1160 428 1125 b 351 1007 428 1042 393 1007 b 275 1083 310 1007 275 1042 "},"ï":{"ha":382,"x_min":0,"x_max":0,"o":"m 139 539 l 139 63 l 28 0 l 361 0 l 250 63 l 250 646 l 28 565 m -14 847 b 63 924 -14 889 21 924 b 139 847 104 924 139 889 b 63 771 139 806 104 771 b -14 847 21 771 -14 806 m 229 847 b 306 924 229 889 264 924 b 382 847 347 924 382 889 b 306 771 382 806 347 771 b 229 847 264 771 229 806 "},"ÿ":{"ha":688,"x_min":0,"x_max":0,"o":"m 597 563 l 310 -161 b 153 -312 263 -286 208 -312 b 69 -239 104 -312 69 -281 b 132 -169 69 -197 97 -169 b 189 -197 157 -169 171 -182 b 251 -153 211 -217 232 -200 l 329 40 l 76 563 l -49 625 l 307 625 l 196 569 l 383 178 l 539 569 l 428 625 l 722 625 m 147 847 b 224 924 147 889 182 924 b 300 847 265 924 300 889 b 224 771 300 806 265 771 b 147 847 182 771 147 806 m 418 847 b 494 924 418 889 453 924 b 571 847 536 924 571 889 b 494 771 571 806 536 771 b 418 847 453 771 418 806 "},"Ÿ":{"ha":931,"x_min":0,"x_max":0,"o":"m 264 833 l 507 451 l 750 833 l 639 903 l 958 903 l 819 826 l 549 399 l 549 76 l 688 0 l 278 0 l 417 76 l 417 361 l 125 819 l -14 903 l 375 903 m 576 1083 b 653 1160 576 1125 611 1160 b 729 1083 694 1160 729 1125 b 653 1007 729 1042 694 1007 b 576 1083 611 1007 576 1042 m 271 1083 b 347 1160 271 1125 306 1160 b 424 1083 389 1160 424 1125 b 347 1007 424 1042 389 1007 b 271 1083 306 1007 271 1042 "},"Č":{"ha":896,"x_min":0,"x_max":0,"o":"m 750 1236 l 472 972 l 194 1236 l 472 1097 m 813 583 l 708 806 b 507 882 708 806 639 882 b 201 472 319 882 201 715 b 528 63 201 236 313 63 b 847 304 764 63 843 293 b 486 -21 844 289 783 -21 b 49 444 229 -21 49 174 b 486 924 49 743 231 924 b 729 847 644 924 729 847 l 813 924 "},"č":{"ha":632,"x_min":0,"x_max":0,"o":"m 590 246 b 338 -21 579 86 479 -21 b 49 313 158 -21 49 125 b 351 646 49 507 186 646 b 572 490 490 646 572 571 b 507 425 572 447 539 425 b 447 492 465 425 447 461 b 349 604 447 564 410 604 b 160 356 251 604 160 511 b 383 83 160 149 286 83 b 590 246 451 83 540 128 m 556 944 l 333 694 l 111 944 l 333 819 "},"Ć":{"ha":896,"x_min":0,"x_max":0,"o":"m 672 1250 l 325 972 l 485 1250 m 813 583 l 708 806 b 507 882 708 806 639 882 b 201 472 319 882 201 715 b 528 63 201 236 313 63 b 847 304 764 63 843 293 b 486 -21 844 289 783 -21 b 49 444 229 -21 49 174 b 486 924 49 743 231 924 b 729 847 644 924 729 847 l 813 924 "},"ć":{"ha":632,"x_min":0,"x_max":0,"o":"m 590 246 b 338 -21 579 86 479 -21 b 49 313 158 -21 49 125 b 351 646 49 507 186 646 b 572 490 490 646 572 571 b 507 425 572 447 539 425 b 447 492 465 425 447 461 b 349 604 447 564 410 604 b 160 356 251 604 160 511 b 383 83 160 149 286 83 b 590 246 451 83 540 128 m 514 972 l 194 694 l 354 972 "},"Ž":{"ha":833,"x_min":0,"x_max":0,"o":"m 565 854 l 208 854 l 83 611 l 83 903 l 750 903 l 232 49 l 632 49 l 757 292 l 757 0 l 49 0 m 701 1236 l 424 972 l 146 1236 l 424 1097 "},"ž":{"ha":632,"x_min":0,"x_max":0,"o":"m 583 194 l 583 0 l 42 0 l 431 583 l 188 583 l 76 431 l 76 625 l 583 625 l 194 42 l 472 42 m 542 944 l 319 694 l 97 944 l 319 819 "},"Đ":{"ha":917,"x_min":0,"x_max":0,"o":"m 14 493 l 160 493 l 160 826 l 21 903 l 389 903 b 868 451 632 903 868 764 b 389 0 868 139 632 0 l 21 0 l 160 76 l 160 444 l 14 444 m 292 493 l 542 493 l 542 444 l 292 444 l 292 76 l 340 49 l 389 49 b 715 451 556 49 715 160 b 389 854 715 743 556 854 l 340 854 l 292 826 "},"đ":{"ha":736,"x_min":0,"x_max":0,"o":"m 611 86 l 722 60 l 500 -21 l 500 117 b 299 -21 451 42 389 -21 b 49 299 153 -21 49 97 b 340 646 49 507 175 646 b 500 583 451 646 500 583 l 500 722 l 326 722 l 326 771 l 500 771 l 500 886 l 389 913 l 611 993 l 611 771 l 764 771 l 764 722 l 611 722 m 500 479 b 364 597 500 556 431 597 b 167 333 257 597 167 507 b 354 69 167 153 250 69 b 500 154 410 69 460 96 "},"Š":{"ha":736,"x_min":0,"x_max":0,"o":"m 632 1236 l 354 972 l 76 1236 l 354 1097 m 632 625 l 528 813 b 354 882 528 813 458 882 b 167 729 243 882 167 813 b 313 569 167 654 231 606 l 486 493 b 681 250 575 454 681 403 b 354 -21 681 76 535 -21 b 153 42 222 -21 153 42 l 69 -21 l 69 319 l 181 90 b 354 21 181 90 236 21 b 556 201 472 21 556 90 b 403 368 556 313 461 342 l 229 444 b 56 674 131 488 56 557 b 354 924 56 847 194 924 b 549 861 472 924 549 861 l 632 924 "},"š":{"ha":556,"x_min":0,"x_max":0,"o":"m 493 944 l 271 694 l 49 944 l 271 819 m 278 -21 b 125 28 174 -21 125 28 l 69 -21 l 69 257 b 278 21 125 104 174 21 b 396 125 354 21 396 69 b 306 243 396 194 357 218 l 208 289 b 63 465 146 317 63 354 b 271 646 63 567 146 646 b 403 604 354 646 403 604 l 465 646 l 465 403 l 382 563 b 271 604 382 563 347 604 b 153 507 201 604 153 563 b 264 396 153 444 196 428 l 361 350 b 500 167 467 300 500 250 b 278 -21 500 56 403 -21 "},"Ď":{"ha":917,"x_min":0,"x_max":0,"o":"m 21 0 l 160 76 l 160 826 l 21 903 l 389 903 b 868 451 632 903 868 764 b 389 0 868 139 632 0 m 292 76 l 340 49 l 389 49 b 715 451 556 49 715 160 b 389 854 715 743 556 854 l 340 854 l 292 826 m 694 1236 l 417 972 l 139 1236 l 417 1097 "},"ď":{"ha":806,"x_min":0,"x_max":0,"o":"m 611 86 l 722 60 l 500 -21 l 500 117 b 299 -21 451 42 389 -21 b 49 299 153 -21 49 97 b 340 646 49 507 175 646 b 500 583 451 646 500 583 l 500 886 l 389 913 l 611 993 m 500 479 b 364 597 500 556 431 597 b 167 333 257 597 167 507 b 354 69 167 153 250 69 b 500 154 410 69 460 96 m 688 896 b 764 972 688 938 722 972 b 840 896 813 972 840 938 b 715 688 840 840 806 792 l 771 819 l 764 819 b 688 896 722 819 688 854 "},"Ě":{"ha":847,"x_min":0,"x_max":0,"o":"m 292 493 l 465 493 l 563 639 l 563 299 l 465 444 l 292 444 l 292 76 l 340 49 l 639 49 l 764 292 l 764 0 l 21 0 l 160 76 l 160 826 l 21 903 l 743 903 l 743 611 l 618 854 l 340 854 l 292 826 m 715 1236 l 438 972 l 160 1236 l 438 1097 "},"ě":{"ha":653,"x_min":0,"x_max":0,"o":"m 590 246 b 338 -21 579 86 479 -21 b 49 313 158 -21 49 125 b 344 646 49 507 181 646 b 590 375 521 646 590 521 l 160 375 l 160 356 b 383 83 160 135 286 83 b 590 246 451 83 540 128 m 347 604 b 164 417 263 604 185 536 l 368 417 b 479 493 438 417 479 438 b 347 604 479 563 424 604 m 556 944 l 333 694 l 111 944 l 333 819 "},"Ř":{"ha":889,"x_min":0,"x_max":0,"o":"m 21 0 l 160 76 l 160 826 l 21 903 l 396 903 b 757 660 597 903 757 833 b 528 428 757 526 663 454 l 814 75 l 938 0 l 701 0 l 378 417 l 292 417 l 292 76 l 431 0 m 292 465 l 382 465 b 604 660 507 465 604 507 b 382 854 604 813 507 854 l 292 854 m 688 1236 l 410 972 l 132 1236 l 410 1097 "},"ř":{"ha":569,"x_min":0,"x_max":0,"o":"m 28 565 l 250 646 l 250 500 l 306 561 b 444 646 368 629 406 646 b 535 567 493 646 535 619 b 474 500 535 526 507 500 b 375 563 410 500 424 563 b 250 451 347 563 313 528 l 250 63 l 389 0 l 28 0 l 139 63 l 139 539 m 514 944 l 292 694 l 69 944 l 292 819 "},"Ť":{"ha":868,"x_min":0,"x_max":0,"o":"m 813 611 l 688 854 l 500 854 l 500 76 l 653 0 l 215 0 l 368 76 l 368 854 l 181 854 l 56 611 l 56 903 l 813 903 m 711 1236 l 433 972 l 156 1236 l 433 1097 "},"ť":{"ha":458,"x_min":0,"x_max":0,"o":"m 7 576 l 118 576 l 118 111 b 229 -21 118 21 160 -21 b 389 118 313 -21 389 118 b 285 63 389 118 333 63 b 229 132 257 63 229 76 l 229 576 l 375 576 l 375 625 l 229 625 l 229 785 m 278 896 b 354 972 278 938 313 972 b 431 896 403 972 431 938 b 306 688 431 840 396 792 l 361 819 l 354 819 b 278 896 313 819 278 854 "},"ů":{"ha":729,"x_min":0,"x_max":0,"o":"m -7 565 l 215 646 l 215 225 b 324 63 215 111 238 63 b 493 150 382 63 451 99 l 493 539 l 382 565 l 604 646 l 604 86 l 715 60 l 493 -21 l 493 108 b 275 -21 444 56 364 -21 b 104 207 142 -21 104 69 l 104 539 m 222 847 b 354 979 222 919 275 979 b 486 847 433 979 486 919 b 354 715 486 775 433 715 b 222 847 275 715 222 775 m 275 847 b 354 764 275 794 311 764 b 433 847 397 764 433 794 b 354 931 433 900 397 931 b 275 847 311 931 275 900 "},"Ů":{"ha":972,"x_min":0,"x_max":0,"o":"m 278 826 l 417 903 l 7 903 l 146 826 l 146 322 b 503 -21 146 132 243 -21 b 833 322 735 -21 833 132 l 833 826 l 972 903 l 632 903 l 771 826 l 771 301 b 524 56 771 165 701 56 b 278 301 346 56 278 165 m 382 1111 b 514 1243 382 1183 435 1243 b 646 1111 593 1243 646 1183 b 514 979 646 1039 593 979 b 382 1111 435 979 382 1039 m 435 1111 b 514 1028 435 1058 471 1028 b 593 1111 557 1028 593 1058 b 514 1194 593 1164 557 1194 b 435 1111 471 1194 435 1164 "},"ý":{"ha":688,"x_min":0,"x_max":0,"o":"m 597 563 l 310 -161 b 153 -312 263 -286 208 -312 b 69 -239 104 -312 69 -281 b 132 -169 69 -197 97 -169 b 189 -197 157 -169 171 -182 b 251 -153 211 -217 232 -200 l 329 40 l 76 563 l -49 625 l 307 625 l 196 569 l 383 178 l 539 569 l 428 625 l 722 625 m 597 972 l 278 694 l 438 972 "},"Ý":{"ha":931,"x_min":0,"x_max":0,"o":"m 264 833 l 507 451 l 750 833 l 639 903 l 958 903 l 819 826 l 549 399 l 549 76 l 688 0 l 278 0 l 417 76 l 417 361 l 125 819 l -14 903 l 375 903 m 776 1250 l 429 972 l 589 1250 "},"Œ":{"ha":1389,"x_min":0,"x_max":0,"o":"m 49 451 b 507 924 49 750 264 924 b 674 903 597 924 674 903 l 1285 903 l 1285 611 l 1160 854 l 882 854 l 833 826 l 833 493 l 1007 493 l 1104 639 l 1104 299 l 1007 444 l 833 444 l 833 76 l 882 49 l 1181 49 l 1306 292 l 1306 0 l 674 0 b 507 -21 674 0 597 -21 b 49 451 264 -21 49 153 m 201 451 b 507 21 201 174 340 21 b 701 132 625 21 701 76 l 701 771 b 507 882 701 826 625 882 b 201 451 340 882 201 729 "},"œ":{"ha":1144,"x_min":0,"x_max":0,"o":"m 332 597 b 174 368 231 597 174 507 b 369 28 174 165 256 28 b 526 257 472 28 526 121 b 332 597 526 460 447 597 m 1082 246 b 829 -21 1071 86 971 -21 b 592 110 722 -21 642 29 b 350 -21 539 31 454 -21 b 49 313 157 -21 49 132 b 350 646 49 493 171 646 b 597 514 463 646 547 593 b 836 646 650 596 738 646 b 1082 375 1013 646 1082 521 l 651 375 l 651 356 b 875 83 651 135 778 83 b 1082 246 943 83 1032 128 m 839 604 b 656 417 754 604 676 536 l 860 417 b 971 493 929 417 971 438 b 839 604 971 563 915 604 "},"Æ":{"ha":1264,"x_min":0,"x_max":0,"o":"m 90 76 l 576 826 l 438 903 l 1160 903 l 1160 611 l 1035 854 l 757 854 l 708 826 l 708 493 l 882 493 l 979 639 l 979 299 l 882 444 l 708 444 l 708 76 l 757 49 l 1056 49 l 1181 292 l 1181 0 l 438 0 l 576 76 l 576 285 l 286 285 l 149 69 l 274 0 l -56 0 m 576 333 l 576 736 l 318 333 "},"æ":{"ha":1035,"x_min":0,"x_max":0,"o":"m 313 646 b 521 540 418 646 488 606 b 740 646 575 606 653 646 b 986 410 917 646 986 556 l 556 343 b 779 83 560 133 683 83 b 986 246 847 83 936 128 b 733 -21 975 86 875 -21 b 468 169 603 -21 510 56 b 236 -21 438 49 344 -21 b 49 139 118 -21 49 50 b 336 347 49 236 103 310 l 444 364 l 444 444 b 299 604 444 568 389 604 b 186 483 222 604 186 568 b 129 418 186 440 163 418 b 72 483 96 418 72 443 b 313 646 72 569 229 646 m 285 65 b 444 265 389 65 444 150 l 444 325 l 375 315 b 163 167 214 290 163 250 b 285 65 163 111 208 65 m 743 604 b 556 382 651 604 565 524 l 778 418 b 875 493 847 429 875 444 b 743 604 875 563 819 604 "},"Å":{"ha":944,"x_min":0,"x_max":0,"o":"m 118 76 l 403 750 l 271 903 l 475 903 l 819 83 l 958 0 l 569 0 l 688 69 l 597 285 l 263 285 l 174 69 l 299 0 l -28 0 m 326 1111 b 458 1243 326 1183 379 1243 b 590 1111 538 1243 590 1183 b 458 979 590 1039 538 979 b 326 1111 379 979 326 1039 m 283 333 l 578 333 l 431 688 m 379 1111 b 458 1028 379 1058 415 1028 b 538 1111 501 1028 538 1058 b 458 1194 538 1164 501 1194 b 379 1111 415 1194 379 1164 "},"å":{"ha":653,"x_min":0,"x_max":0,"o":"m 417 411 l 417 444 b 313 604 417 568 389 604 b 200 483 236 604 200 568 b 143 418 200 440 176 418 b 86 483 110 418 86 443 b 326 646 86 569 243 646 b 528 444 478 646 528 563 l 528 69 l 653 118 b 493 -21 653 118 542 -21 b 417 82 444 -21 417 8 l 310 11 b 210 -21 279 -11 251 -21 b 63 139 125 -21 63 43 b 217 329 63 229 124 290 m 417 371 l 310 326 b 176 160 207 283 176 229 b 272 58 176 104 208 58 b 417 126 307 58 360 81 m 188 847 b 319 979 188 919 240 979 b 451 847 399 979 451 919 b 319 715 451 775 399 715 b 188 847 240 715 188 775 m 240 847 b 319 764 240 794 276 764 b 399 847 363 764 399 794 b 319 931 399 900 363 931 b 240 847 276 931 240 900 "},"Ø":{"ha":944,"x_min":0,"x_max":0,"o":"m 79 11 l 164 114 b 49 451 92 196 49 313 b 472 924 49 736 229 924 b 744 824 578 924 672 888 l 826 924 l 865 892 l 781 788 b 896 451 853 706 896 590 b 472 -21 896 167 715 -21 b 200 79 365 -21 272 15 l 118 -21 m 201 451 b 240 207 201 356 215 274 l 681 746 b 472 882 633 833 563 882 b 201 451 306 882 201 715 m 743 451 b 704 694 743 546 729 628 l 263 156 b 472 21 310 69 382 21 b 743 451 639 21 743 188 "},"ø":{"ha":700,"x_min":0,"x_max":0,"o":"m 69 11 l 125 79 b 49 313 75 140 49 222 b 350 646 49 493 171 646 b 538 581 426 646 489 621 l 592 646 l 631 614 l 574 544 b 651 313 624 485 651 401 b 350 -21 651 132 529 -21 b 161 43 272 -21 210 3 l 108 -21 m 526 257 b 496 450 526 331 515 397 l 228 124 b 369 28 263 63 311 28 b 526 257 472 28 526 121 m 332 597 b 174 368 231 597 174 507 b 204 175 174 293 185 228 l 472 501 b 332 597 439 563 390 597 "},"Ő":{"ha":944,"x_min":0,"x_max":0,"o":"m 49 451 b 472 924 49 736 229 924 b 896 451 715 924 896 736 b 472 -21 896 167 715 -21 b 49 451 229 -21 49 167 m 201 451 b 472 21 201 188 306 21 b 743 451 639 21 743 188 b 472 882 743 715 639 882 b 201 451 306 882 201 715 m 631 1250 l 283 972 l 443 1250 m 881 1250 l 533 972 l 693 1250 "},"ő":{"ha":700,"x_min":0,"x_max":0,"o":"m 332 597 b 174 368 231 597 174 507 b 369 28 174 165 256 28 b 526 257 472 28 526 121 b 332 597 526 460 447 597 m 49 313 b 350 646 49 493 171 646 b 651 313 543 646 651 493 b 350 -21 651 132 529 -21 b 49 313 157 -21 49 132 m 479 972 l 160 694 l 319 972 m 715 972 l 396 694 l 556 972 "},"Ű":{"ha":972,"x_min":0,"x_max":0,"o":"m 278 826 l 417 903 l 7 903 l 146 826 l 146 322 b 503 -21 146 132 243 -21 b 833 322 735 -21 833 132 l 833 826 l 972 903 l 632 903 l 771 826 l 771 301 b 524 56 771 165 701 56 b 278 301 346 56 278 165 m 658 1250 l 311 972 l 471 1250 m 908 1250 l 561 972 l 721 1250 "},"ű":{"ha":729,"x_min":0,"x_max":0,"o":"m -7 565 l 215 646 l 215 225 b 324 63 215 111 238 63 b 493 150 382 63 451 99 l 493 539 l 382 565 l 604 646 l 604 86 l 715 60 l 493 -21 l 493 108 b 275 -21 444 56 364 -21 b 104 207 142 -21 104 69 l 104 539 m 465 972 l 146 694 l 306 972 m 701 972 l 382 694 l 542 972 "},"Ð":{"ha":917,"x_min":0,"x_max":0,"o":"m 14 493 l 160 493 l 160 826 l 21 903 l 389 903 b 868 451 632 903 868 764 b 389 0 868 139 632 0 l 21 0 l 160 76 l 160 444 l 14 444 m 292 493 l 542 493 l 542 444 l 292 444 l 292 76 l 340 49 l 389 49 b 715 451 556 49 715 160 b 389 854 715 743 556 854 l 340 854 l 292 826 "},"ð":{"ha":704,"x_min":0,"x_max":0,"o":"m 454 814 b 656 368 565 721 656 579 b 350 -21 656 125 531 -21 b 49 299 157 -21 49 125 b 336 618 49 472 157 618 b 504 550 419 618 472 585 b 385 774 478 642 435 715 l 229 685 l 204 726 l 350 811 b 51 993 221 942 64 989 b 413 847 60 992 249 965 l 583 944 l 608 903 m 332 569 b 174 354 231 569 174 486 b 369 28 174 158 256 28 b 526 243 472 28 526 121 b 332 569 526 439 447 569 "},"Þ":{"ha":819,"x_min":0,"x_max":0,"o":"m 292 826 l 292 736 l 389 736 b 778 458 639 736 778 632 b 389 181 778 285 639 181 l 292 181 l 292 76 l 431 0 l 21 0 l 160 76 l 160 826 l 21 903 l 431 903 m 292 688 l 292 229 l 361 229 b 625 458 528 229 625 306 b 361 688 625 611 528 688 "},"þ":{"ha":701,"x_min":0,"x_max":0,"o":"m 201 146 b 338 28 201 69 271 28 b 535 292 444 28 535 118 b 347 556 535 472 451 556 b 201 471 292 556 242 529 m 90 -229 l 90 886 l -21 913 l 201 993 l 201 508 b 403 646 250 583 313 646 b 653 326 549 646 653 528 b 361 -21 653 118 526 -21 b 201 42 250 -21 201 42 l 201 -229 l 313 -292 l -21 -292 "},"Ā":{"ha":944,"x_min":0,"x_max":0,"o":"m 118 76 l 403 750 l 271 903 l 475 903 l 819 83 l 958 0 l 569 0 l 688 69 l 597 285 l 263 285 l 174 69 l 299 0 l -28 0 m 283 333 l 578 333 l 431 688 m 160 1076 l 743 1076 l 743 1028 l 160 1028 "},"ā":{"ha":653,"x_min":0,"x_max":0,"o":"m 217 329 b 63 139 124 290 63 229 b 210 -21 63 43 125 -21 b 310 11 251 -21 279 -11 l 417 82 b 493 -21 417 8 444 -21 b 653 118 542 -21 653 118 l 528 69 l 528 444 b 326 646 528 563 478 646 b 86 483 243 646 86 569 b 143 418 86 443 110 418 b 200 483 176 418 200 440 b 313 604 200 568 236 604 b 417 444 389 604 417 568 l 417 411 m 417 126 b 272 58 360 81 307 58 b 176 160 208 58 176 104 b 310 326 176 229 207 283 l 417 371 l 417 126 m 90 806 l 535 806 l 535 757 l 90 757 "},"Ē":{"ha":847,"x_min":0,"x_max":0,"o":"m 292 493 l 465 493 l 563 639 l 563 299 l 465 444 l 292 444 l 292 76 l 340 49 l 639 49 l 764 292 l 764 0 l 21 0 l 160 76 l 160 826 l 21 903 l 743 903 l 743 611 l 618 854 l 340 854 l 292 826 m 146 1076 l 729 1076 l 729 1028 l 146 1028 "},"ē":{"ha":653,"x_min":0,"x_max":0,"o":"m 590 246 b 338 -21 579 86 479 -21 b 49 313 158 -21 49 125 b 344 646 49 507 181 646 b 590 375 521 646 590 521 l 160 375 l 160 356 b 383 83 160 135 286 83 b 590 246 451 83 540 128 m 347 604 b 164 417 263 604 185 536 l 368 417 b 479 493 438 417 479 438 b 347 604 479 563 424 604 m 118 806 l 563 806 l 563 757 l 118 757 "},"Ģ":{"ha":972,"x_min":0,"x_max":0,"o":"m 431 -146 b 507 -69 431 -104 465 -69 b 583 -146 549 -69 583 -104 b 444 -382 583 -201 569 -229 l 514 -222 l 507 -222 b 431 -146 465 -222 431 -187 m 840 583 l 736 806 b 521 882 736 806 653 882 b 201 451 333 882 201 715 b 528 35 201 222 313 35 b 715 118 660 35 715 118 l 715 354 l 549 431 l 958 431 l 847 354 l 847 -14 l 743 90 b 486 -21 743 90 667 -21 b 49 444 229 -21 49 167 b 507 924 49 757 257 924 b 757 847 665 924 757 847 l 840 924 "},"ģ":{"ha":681,"x_min":0,"x_max":0,"o":"m 69 424 b 313 646 69 546 167 646 b 514 604 410 646 458 604 b 535 640 549 604 535 622 b 588 694 535 669 554 694 b 646 639 626 694 646 667 b 563 569 646 601 625 569 b 493 576 528 569 493 576 b 556 424 493 576 556 521 b 313 201 556 301 458 201 b 281 203 301 201 290 201 b 174 146 239 203 174 194 b 229 104 174 111 208 104 l 458 104 b 653 -56 597 104 653 49 b 299 -312 653 -160 535 -312 b 21 -132 104 -312 21 -215 b 157 3 21 -35 110 -6 b 83 97 119 14 83 50 b 224 215 83 181 160 208 b 69 424 129 246 69 328 m 186 0 b 118 -90 183 -1 118 -22 b 333 -222 118 -160 181 -222 b 611 -62 535 -222 611 -125 b 535 0 611 -21 583 0 m 188 424 b 313 236 188 306 236 236 b 438 424 389 236 438 306 b 313 611 438 542 389 611 b 188 424 236 611 188 542 m 403 847 b 326 771 403 806 368 771 b 250 847 285 771 250 806 b 389 1083 250 903 264 931 l 319 924 l 326 924 b 403 847 368 924 403 889 "},"Ī":{"ha":451,"x_min":0,"x_max":0,"o":"m 292 826 l 292 76 l 431 0 l 21 0 l 160 76 l 160 826 l 21 903 l 431 903 m -7 1076 l 458 1076 l 458 1028 l -7 1028 "},"ī":{"ha":382,"x_min":0,"x_max":0,"o":"m 139 539 l 139 63 l 28 0 l 361 0 l 250 63 l 250 646 l 28 565 m -42 806 l 403 806 l 403 757 l -42 757 "},"Ķ":{"ha":944,"x_min":0,"x_max":0,"o":"m 292 826 l 292 486 l 650 831 l 558 903 l 915 903 l 703 814 l 410 521 l 833 76 l 944 0 l 722 0 l 292 457 l 292 76 l 431 0 l 21 0 l 160 76 l 160 826 l 21 903 l 431 903 m 403 -146 b 479 -69 403 -104 438 -69 b 556 -146 521 -69 556 -104 b 417 -382 556 -201 542 -229 l 486 -222 l 479 -222 b 403 -146 438 -222 403 -187 "},"ķ":{"ha":694,"x_min":0,"x_max":0,"o":"m 486 569 l 403 625 l 701 625 l 542 563 l 343 369 l 618 63 l 715 0 l 521 0 l 243 325 l 243 63 l 354 0 l 21 0 l 132 63 l 132 886 l 21 913 l 243 993 l 243 339 m 292 -146 b 368 -69 292 -104 326 -69 b 444 -146 410 -69 444 -104 b 306 -382 444 -201 431 -229 l 375 -222 l 368 -222 b 292 -146 326 -222 292 -187 "},"Ļ":{"ha":813,"x_min":0,"x_max":0,"o":"m 292 826 l 292 76 l 340 49 l 625 49 l 757 306 l 757 0 l 21 0 l 160 76 l 160 826 l 21 903 l 444 903 m 347 -146 b 424 -69 347 -104 382 -69 b 500 -146 465 -69 500 -104 b 361 -382 500 -201 486 -229 l 431 -222 l 424 -222 b 347 -146 382 -222 347 -187 "},"ļ":{"ha":375,"x_min":0,"x_max":0,"o":"m 21 913 l 243 993 l 243 63 l 354 0 l 21 0 l 132 63 l 132 886 m 111 -146 b 188 -69 111 -104 146 -69 b 264 -146 229 -69 264 -104 b 125 -382 264 -201 250 -229 l 194 -222 l 188 -222 b 111 -146 146 -222 111 -187 "},"Ņ":{"ha":1021,"x_min":0,"x_max":0,"o":"m 806 236 l 806 826 l 653 903 l 1007 903 l 868 826 l 868 -21 l 222 683 l 222 76 l 375 0 l 21 0 l 160 76 l 160 751 l 21 903 l 194 903 m 431 -146 b 507 -69 431 -104 465 -69 b 583 -146 549 -69 583 -104 b 444 -382 583 -201 569 -229 l 514 -222 l 507 -222 b 431 -146 465 -222 431 -187 "},"ņ":{"ha":743,"x_min":0,"x_max":0,"o":"m 521 63 l 521 400 b 413 563 521 514 499 563 b 250 475 354 563 292 526 l 250 63 l 361 0 l 28 0 l 139 63 l 139 539 l 28 565 l 250 646 l 250 517 b 461 646 299 569 372 646 b 632 418 594 646 632 556 l 632 63 l 743 0 l 410 0 m 319 -146 b 396 -69 319 -104 354 -69 b 472 -146 438 -69 472 -104 b 333 -382 472 -201 458 -229 l 403 -222 l 396 -222 b 319 -146 354 -222 319 -187 "},"Ū":{"ha":972,"x_min":0,"x_max":0,"o":"m 278 826 l 417 903 l 7 903 l 146 826 l 146 322 b 503 -21 146 132 243 -21 b 833 322 735 -21 833 132 l 833 826 l 972 903 l 632 903 l 771 826 l 771 301 b 524 56 771 165 701 56 b 278 301 346 56 278 165 m 208 1076 l 792 1076 l 792 1028 l 208 1028 "},"ū":{"ha":729,"x_min":0,"x_max":0,"o":"m -7 565 l 215 646 l 215 225 b 324 63 215 111 238 63 b 493 150 382 63 451 99 l 493 539 l 382 565 l 604 646 l 604 86 l 715 60 l 493 -21 l 493 108 b 275 -21 444 56 364 -21 b 104 207 142 -21 104 69 l 104 539 m 132 806 l 576 806 l 576 757 l 132 757 "},"Ą":{"ha":944,"x_min":0,"x_max":0,"o":"m 118 76 l 403 750 l 271 903 l 475 903 l 819 83 l 958 0 l 850 0 b 736 -143 806 -19 736 -61 b 819 -229 736 -199 771 -229 b 896 -201 861 -229 896 -201 b 764 -292 896 -201 861 -292 b 646 -174 701 -292 646 -243 b 801 0 646 -74 743 -22 l 569 0 l 688 69 l 597 285 l 263 285 l 174 69 l 299 0 l -28 0 m 283 333 l 578 333 l 431 688 "},"ą":{"ha":653,"x_min":0,"x_max":0,"o":"m 528 69 l 653 118 b 458 -143 563 7 458 -28 b 542 -229 458 -199 493 -229 b 618 -201 583 -229 618 -201 b 486 -292 618 -201 583 -292 b 368 -174 424 -292 368 -243 b 463 -15 368 -106 415 -53 b 417 82 433 -4 417 25 l 310 11 b 210 -21 279 -11 251 -21 b 63 139 125 -21 63 43 b 217 329 63 229 124 290 l 417 411 l 417 444 b 313 604 417 568 389 604 b 200 483 236 604 200 568 b 143 418 200 440 176 418 b 86 483 110 418 86 443 b 326 646 86 569 243 646 b 528 444 478 646 528 563 m 417 371 l 310 326 b 176 160 207 283 176 229 b 272 58 176 104 208 58 b 417 126 307 58 360 81 "},"Ę":{"ha":847,"x_min":0,"x_max":0,"o":"m 292 493 l 465 493 l 563 639 l 563 299 l 465 444 l 292 444 l 292 76 l 340 49 l 639 49 l 764 292 l 764 0 l 693 0 b 597 -143 656 -19 597 -64 b 681 -229 597 -199 632 -229 b 757 -201 722 -229 757 -201 b 625 -292 757 -201 722 -292 b 507 -174 563 -292 507 -243 b 644 0 507 -76 593 -24 l 21 0 l 160 76 l 160 826 l 21 903 l 743 903 l 743 611 l 618 854 l 340 854 l 292 826 "},"ę":{"ha":653,"x_min":0,"x_max":0,"o":"m 590 246 b 386 -15 581 106 501 6 b 313 -143 351 -42 313 -82 b 396 -229 313 -199 347 -229 b 472 -201 438 -229 472 -201 b 340 -292 472 -201 438 -292 b 222 -174 278 -292 222 -243 b 342 -21 222 -100 286 -50 l 338 -21 b 49 313 158 -21 49 125 b 344 646 49 507 181 646 b 590 375 521 646 590 521 l 160 375 l 160 356 b 383 83 160 135 286 83 b 590 246 451 83 540 128 m 347 604 b 164 417 263 604 185 536 l 368 417 b 479 493 438 417 479 438 b 347 604 479 563 424 604 "},"Ė":{"ha":847,"x_min":0,"x_max":0,"o":"m 292 493 l 465 493 l 563 639 l 563 299 l 465 444 l 292 444 l 292 76 l 340 49 l 639 49 l 764 292 l 764 0 l 21 0 l 160 76 l 160 826 l 21 903 l 743 903 l 743 611 l 618 854 l 340 854 l 292 826 m 361 1083 b 438 1160 361 1125 396 1160 b 514 1083 479 1160 514 1125 b 438 1007 514 1042 479 1007 b 361 1083 396 1007 361 1042 "},"ė":{"ha":653,"x_min":0,"x_max":0,"o":"m 590 246 b 338 -21 579 86 479 -21 b 49 313 158 -21 49 125 b 344 646 49 507 181 646 b 590 375 521 646 590 521 l 160 375 l 160 356 b 383 83 160 135 286 83 b 590 246 451 83 540 128 m 347 604 b 164 417 263 604 185 536 l 368 417 b 479 493 438 417 479 438 b 347 604 479 563 424 604 m 257 847 b 333 924 257 889 292 924 b 410 847 375 924 410 889 b 333 771 410 806 375 771 b 257 847 292 771 257 806 "},"Į":{"ha":451,"x_min":0,"x_max":0,"o":"m 292 826 l 292 76 l 431 0 l 308 0 b 194 -143 264 -19 194 -61 b 278 -229 194 -199 229 -229 b 354 -201 319 -229 354 -201 b 222 -292 354 -201 319 -292 b 104 -174 160 -292 104 -243 b 260 0 104 -74 201 -22 l 21 0 l 160 76 l 160 826 l 21 903 l 431 903 "},"į":{"ha":382,"x_min":0,"x_max":0,"o":"m 139 539 l 139 63 l 28 0 l 225 0 b 69 -174 167 -22 69 -74 b 188 -292 69 -243 125 -292 b 319 -201 285 -292 319 -201 b 243 -229 319 -201 285 -229 b 160 -143 194 -229 160 -199 b 274 0 160 -62 229 -19 l 361 0 l 250 63 l 250 646 l 28 565 m 104 847 b 181 924 104 889 139 924 b 257 847 222 924 257 889 b 181 771 257 806 222 771 b 104 847 139 771 104 806 "},"Ų":{"ha":972,"x_min":0,"x_max":0,"o":"m 278 301 b 524 56 278 165 346 56 b 771 301 701 56 771 165 l 771 826 l 632 903 l 972 903 l 833 826 l 833 322 b 558 -17 833 147 750 6 b 486 -143 524 -43 486 -85 b 569 -229 486 -199 521 -229 b 646 -201 611 -229 646 -201 b 514 -292 646 -201 611 -292 b 396 -174 451 -292 396 -243 b 515 -21 396 -100 460 -50 l 503 -21 b 146 322 243 -21 146 132 l 146 826 l 7 903 l 417 903 l 278 826 "},"ų":{"ha":729,"x_min":0,"x_max":0,"o":"m -7 565 l 215 646 l 215 225 b 324 63 215 111 238 63 b 493 150 382 63 451 99 l 493 539 l 382 565 l 604 646 l 604 86 l 715 60 b 542 -143 715 60 542 -11 b 625 -229 542 -199 576 -229 b 701 -201 667 -229 701 -201 b 569 -292 701 -201 667 -292 b 451 -174 507 -292 451 -243 b 594 15 451 -82 538 -17 l 493 -21 l 493 108 b 275 -21 444 56 364 -21 b 104 207 142 -21 104 69 l 104 539 "},"Ċ":{"ha":896,"x_min":0,"x_max":0,"o":"m 410 1083 b 486 1160 410 1125 444 1160 b 563 1083 528 1160 563 1125 b 486 1007 563 1042 528 1007 b 410 1083 444 1007 410 1042 m 813 583 l 708 806 b 507 882 708 806 639 882 b 201 472 319 882 201 715 b 528 63 201 236 313 63 b 847 304 764 63 843 293 b 486 -21 844 289 783 -21 b 49 444 229 -21 49 174 b 486 924 49 743 231 924 b 729 847 644 924 729 847 l 813 924 "},"ċ":{"ha":632,"x_min":0,"x_max":0,"o":"m 590 246 b 338 -21 579 86 479 -21 b 49 313 158 -21 49 125 b 351 646 49 507 186 646 b 572 490 490 646 572 571 b 507 425 572 447 539 425 b 447 492 465 425 447 461 b 349 604 447 564 410 604 b 160 356 251 604 160 511 b 383 83 160 149 286 83 b 590 246 451 83 540 128 m 257 847 b 333 924 257 889 292 924 b 410 847 375 924 410 889 b 333 771 410 806 375 771 b 257 847 292 771 257 806 "},"Ġ":{"ha":972,"x_min":0,"x_max":0,"o":"m 417 1083 b 493 1160 417 1125 451 1160 b 569 1083 535 1160 569 1125 b 493 1007 569 1042 535 1007 b 417 1083 451 1007 417 1042 m 840 583 l 736 806 b 521 882 736 806 653 882 b 201 451 333 882 201 715 b 528 35 201 222 313 35 b 715 118 660 35 715 118 l 715 354 l 549 431 l 958 431 l 847 354 l 847 -14 l 743 90 b 486 -21 743 90 667 -21 b 49 444 229 -21 49 167 b 507 924 49 757 257 924 b 757 847 665 924 757 847 l 840 924 "},"ġ":{"ha":681,"x_min":0,"x_max":0,"o":"m 69 424 b 313 646 69 546 167 646 b 514 604 410 646 458 604 b 535 640 549 604 535 622 b 588 694 535 669 554 694 b 646 639 626 694 646 667 b 563 569 646 601 625 569 b 493 576 528 569 493 576 b 556 424 493 576 556 521 b 313 201 556 301 458 201 b 281 203 301 201 290 201 b 174 146 239 203 174 194 b 229 104 174 111 208 104 l 458 104 b 653 -56 597 104 653 49 b 299 -312 653 -160 535 -312 b 21 -132 104 -312 21 -215 b 157 3 21 -35 110 -6 b 83 97 119 14 83 50 b 224 215 83 181 160 208 b 69 424 129 246 69 328 m 186 0 b 118 -90 183 -1 118 -22 b 333 -222 118 -160 181 -222 b 611 -62 535 -222 611 -125 b 535 0 611 -21 583 0 m 188 424 b 313 236 188 306 236 236 b 438 424 389 236 438 306 b 313 611 438 542 389 611 b 188 424 236 611 188 542 m 264 847 b 340 924 264 889 299 924 b 417 847 382 924 417 889 b 340 771 417 806 382 771 b 264 847 299 771 264 806 "},"Ħ":{"ha":1007,"x_min":0,"x_max":0,"o":"m 0 715 l 160 715 l 160 826 l 21 903 l 431 903 l 292 826 l 292 715 l 715 715 l 715 826 l 576 903 l 986 903 l 847 826 l 847 715 l 1007 715 l 1007 667 l 847 667 l 847 76 l 986 0 l 576 0 l 715 76 l 715 444 l 292 444 l 292 76 l 431 0 l 21 0 l 160 76 l 160 667 l 0 667 m 292 493 l 715 493 l 715 667 l 292 667 "},"ħ":{"ha":736,"x_min":0,"x_max":0,"o":"m 243 517 b 454 646 292 569 365 646 b 625 418 588 646 625 556 l 625 63 l 736 0 l 403 0 l 514 63 l 514 400 b 406 563 514 514 492 563 b 243 475 347 563 285 526 l 243 63 l 354 0 l 21 0 l 132 63 l 132 722 l -21 722 l -21 771 l 132 771 l 132 886 l 21 913 l 243 993 l 243 771 l 417 771 l 417 722 l 243 722 "},"Ż":{"ha":833,"x_min":0,"x_max":0,"o":"m 565 854 l 208 854 l 83 611 l 83 903 l 750 903 l 232 49 l 632 49 l 757 292 l 757 0 l 49 0 m 340 1083 b 417 1160 340 1125 375 1160 b 493 1083 458 1160 493 1125 b 417 1007 493 1042 458 1007 b 340 1083 375 1007 340 1042 "},"ż":{"ha":632,"x_min":0,"x_max":0,"o":"m 472 42 l 194 42 l 583 625 l 76 625 l 76 431 l 188 583 l 431 583 l 42 0 l 583 0 l 583 194 m 250 847 b 326 924 250 889 285 924 b 403 847 368 924 403 889 b 326 771 403 806 368 771 b 250 847 285 771 250 806 "},"Ă":{"ha":944,"x_min":0,"x_max":0,"o":"m 118 76 l 403 750 l 271 903 l 475 903 l 819 83 l 958 0 l 569 0 l 688 69 l 597 285 l 263 285 l 174 69 l 299 0 l -28 0 m 283 333 l 578 333 l 431 688 m 451 993 b 213 1204 244 993 214 1186 b 451 1083 217 1190 267 1083 b 692 1207 640 1083 688 1196 b 451 993 690 1197 664 993 "},"ă":{"ha":653,"x_min":0,"x_max":0,"o":"m 217 329 b 63 139 124 290 63 229 b 210 -21 63 43 125 -21 b 310 11 251 -21 279 -11 l 417 82 b 493 -21 417 8 444 -21 b 653 118 542 -21 653 118 l 528 69 l 528 444 b 326 646 528 563 478 646 b 86 483 243 646 86 569 b 143 418 86 443 110 418 b 200 483 176 418 200 440 b 313 604 200 568 236 604 b 417 444 389 604 417 568 l 417 411 m 417 126 b 272 58 360 81 307 58 b 176 160 208 58 176 104 b 310 326 176 229 207 283 l 417 371 l 417 126 m 315 743 b 125 919 138 743 125 907 b 315 819 129 908 169 819 b 507 922 464 819 503 913 b 315 743 507 918 496 743 "},"Ş":{"ha":736,"x_min":0,"x_max":0,"o":"m 632 625 l 528 813 b 354 882 528 813 458 882 b 167 729 243 882 167 813 b 313 569 167 654 231 606 l 486 493 b 681 250 575 454 681 403 b 422 -15 681 99 569 6 l 393 -62 b 479 -160 393 -62 479 -69 b 333 -278 479 -229 421 -278 b 243 -243 272 -278 244 -246 b 306 -257 246 -246 267 -257 b 389 -181 361 -257 389 -222 b 333 -125 389 -146 365 -125 b 313 -128 321 -125 313 -128 l 378 -19 b 354 -21 369 -21 361 -21 b 153 42 222 -21 153 42 l 69 -21 l 69 319 l 181 90 b 354 21 181 90 236 21 b 556 201 472 21 556 90 b 403 368 556 313 461 342 l 229 444 b 56 674 131 488 56 557 b 354 924 56 847 194 924 b 549 861 472 924 549 861 l 632 924 "},"ş":{"ha":556,"x_min":0,"x_max":0,"o":"m 278 -21 b 125 28 174 -21 125 28 l 69 -21 l 69 257 b 278 21 125 104 174 21 b 396 125 354 21 396 69 b 306 243 396 194 357 218 l 208 289 b 63 465 146 317 63 354 b 271 646 63 567 146 646 b 403 604 354 646 403 604 l 465 646 l 465 403 l 382 563 b 271 604 382 563 347 604 b 153 507 201 604 153 563 b 264 396 153 444 196 428 l 361 350 b 500 167 467 300 500 250 b 331 -15 500 72 429 3 l 303 -62 b 389 -160 303 -62 389 -69 b 243 -278 389 -229 331 -278 b 153 -243 182 -278 154 -244 b 215 -257 157 -246 178 -257 b 299 -181 271 -257 299 -222 b 243 -125 299 -146 275 -125 b 222 -128 231 -125 222 -128 l 288 -21 "},"Ţ":{"ha":868,"x_min":0,"x_max":0,"o":"m 813 611 l 688 854 l 500 854 l 500 76 l 653 0 l 215 0 l 368 76 l 368 854 l 181 854 l 56 611 l 56 903 l 813 903 m 361 -146 b 438 -69 361 -104 396 -69 b 514 -146 479 -69 514 -104 b 375 -382 514 -201 500 -229 l 444 -222 l 438 -222 b 361 -146 396 -222 361 -187 "},"ţ":{"ha":417,"x_min":0,"x_max":0,"o":"m 229 785 l 229 625 l 375 625 l 375 576 l 229 576 l 229 132 b 285 63 229 76 257 63 b 389 118 333 63 389 118 b 229 -21 389 118 313 -21 b 118 111 160 -21 118 21 l 118 576 l 7 576 m 139 -146 b 215 -69 139 -104 174 -69 b 292 -146 257 -69 292 -104 b 153 -382 292 -201 278 -229 l 222 -222 l 215 -222 b 139 -146 174 -222 139 -187 "},"Ł":{"ha":813,"x_min":0,"x_max":0,"o":"m 14 354 l 160 418 l 160 826 l 21 903 l 444 903 l 292 826 l 292 476 l 556 593 l 556 542 l 292 425 l 292 76 l 340 49 l 625 49 l 757 306 l 757 0 l 21 0 l 160 76 l 160 367 l 14 303 "},"ł":{"ha":458,"x_min":0,"x_max":0,"o":"m 28 415 l 174 479 l 174 886 l 63 913 l 285 993 l 285 528 l 431 593 l 431 542 l 285 476 l 285 63 l 396 0 l 63 0 l 174 63 l 174 428 l 28 364 "},"Ń":{"ha":1021,"x_min":0,"x_max":0,"o":"m 194 903 l 21 903 l 160 751 l 160 76 l 21 0 l 375 0 l 222 76 l 222 683 l 868 -21 l 868 826 l 1007 903 l 653 903 l 806 826 l 806 236 m 728 1250 l 381 972 l 540 1250 "},"ń":{"ha":743,"x_min":0,"x_max":0,"o":"m 521 63 l 521 400 b 413 563 521 514 499 563 b 250 475 354 563 292 526 l 250 63 l 361 0 l 28 0 l 139 63 l 139 539 l 28 565 l 250 646 l 250 517 b 461 646 299 569 372 646 b 632 418 594 646 632 556 l 632 63 l 743 0 l 410 0 m 576 972 l 257 694 l 417 972 "},"Ś":{"ha":736,"x_min":0,"x_max":0,"o":"m 603 1250 l 256 972 l 415 1250 m 632 625 l 528 813 b 354 882 528 813 458 882 b 167 729 243 882 167 813 b 313 569 167 654 231 606 l 486 493 b 681 250 575 454 681 403 b 354 -21 681 76 535 -21 b 153 42 222 -21 153 42 l 69 -21 l 69 319 l 181 90 b 354 21 181 90 236 21 b 556 201 472 21 556 90 b 403 368 556 313 461 342 l 229 444 b 56 674 131 488 56 557 b 354 924 56 847 194 924 b 549 861 472 924 549 861 l 632 924 "},"ś":{"ha":556,"x_min":0,"x_max":0,"o":"m 479 972 l 160 694 l 319 972 m 278 -21 b 500 167 403 -21 500 56 b 361 350 500 250 467 300 l 264 396 b 153 507 196 428 153 444 b 271 604 153 563 201 604 b 382 563 347 604 382 563 l 465 403 l 465 646 l 403 604 b 271 646 403 604 354 646 b 63 465 146 646 63 567 b 208 289 63 354 146 317 l 306 243 b 396 125 357 218 396 194 b 278 21 396 69 354 21 b 69 257 174 21 125 104 l 69 -21 l 125 28 b 278 -21 125 28 174 -21 "},"Ź":{"ha":833,"x_min":0,"x_max":0,"o":"m 565 854 l 208 854 l 83 611 l 83 903 l 750 903 l 232 49 l 632 49 l 757 292 l 757 0 l 49 0 m 631 1250 l 283 972 l 443 1250 "},"ź":{"ha":632,"x_min":0,"x_max":0,"o":"m 472 42 l 194 42 l 583 625 l 76 625 l 76 431 l 188 583 l 431 583 l 42 0 l 583 0 l 583 194 m 542 972 l 222 694 l 382 972 "},"Ĺ":{"ha":813,"x_min":0,"x_max":0,"o":"m 292 826 l 292 76 l 340 49 l 625 49 l 757 306 l 757 0 l 21 0 l 160 76 l 160 826 l 21 903 l 444 903 m 547 1250 l 200 972 l 360 1250 "},"ĺ":{"ha":375,"x_min":0,"x_max":0,"o":"m 132 886 l 132 63 l 21 0 l 354 0 l 243 63 l 243 993 l 21 913 m 381 1250 l 61 972 l 221 1250 "},"Ľ":{"ha":813,"x_min":0,"x_max":0,"o":"m 292 826 l 292 76 l 340 49 l 625 49 l 757 306 l 757 0 l 21 0 l 160 76 l 160 826 l 21 903 l 444 903 m 486 896 b 563 972 486 938 521 972 b 639 896 611 972 639 938 b 514 688 639 840 604 792 l 569 819 l 563 819 b 486 896 521 819 486 854 "},"ľ":{"ha":444,"x_min":0,"x_max":0,"o":"m 21 913 l 243 993 l 243 63 l 354 0 l 21 0 l 132 63 l 132 886 m 319 896 b 396 972 319 938 354 972 b 472 896 444 972 472 938 b 347 688 472 840 438 792 l 403 819 l 396 819 b 319 896 354 819 319 854 "},"Ň":{"ha":1021,"x_min":0,"x_max":0,"o":"m 806 236 l 806 826 l 653 903 l 1007 903 l 868 826 l 868 -21 l 222 683 l 222 76 l 375 0 l 21 0 l 160 76 l 160 751 l 21 903 l 194 903 m 778 1236 l 500 972 l 222 1236 l 500 1097 "},"ň":{"ha":743,"x_min":0,"x_max":0,"o":"m 521 63 l 521 400 b 413 563 521 514 499 563 b 250 475 354 563 292 526 l 250 63 l 361 0 l 28 0 l 139 63 l 139 539 l 28 565 l 250 646 l 250 517 b 461 646 299 569 372 646 b 632 418 594 646 632 556 l 632 63 l 743 0 l 410 0 m 590 944 l 368 694 l 146 944 l 368 819 "},"Ŝ":{"ha":736,"x_min":0,"x_max":0,"o":"m 76 972 l 354 1236 l 632 972 l 354 1111 m 632 625 l 528 813 b 354 882 528 813 458 882 b 167 729 243 882 167 813 b 313 569 167 654 231 606 l 486 493 b 681 250 575 454 681 403 b 354 -21 681 76 535 -21 b 153 42 222 -21 153 42 l 69 -21 l 69 319 l 181 90 b 354 21 181 90 236 21 b 556 201 472 21 556 90 b 403 368 556 313 461 342 l 229 444 b 56 674 131 488 56 557 b 354 924 56 847 194 924 b 549 861 472 924 549 861 l 632 924 "},"ŝ":{"ha":556,"x_min":0,"x_max":0,"o":"m 49 694 l 271 944 l 493 694 l 271 819 m 278 -21 b 125 28 174 -21 125 28 l 69 -21 l 69 257 b 278 21 125 104 174 21 b 396 125 354 21 396 69 b 306 243 396 194 357 218 l 208 289 b 63 465 146 317 63 354 b 271 646 63 567 146 646 b 403 604 354 646 403 604 l 465 646 l 465 403 l 382 563 b 271 604 382 563 347 604 b 153 507 201 604 153 563 b 264 396 153 444 196 428 l 361 350 b 500 167 467 300 500 250 b 278 -21 500 56 403 -21 "},"Ũ":{"ha":972,"x_min":0,"x_max":0,"o":"m 278 301 b 524 56 278 165 346 56 b 771 301 701 56 771 165 l 771 826 l 632 903 l 972 903 l 833 826 l 833 322 b 503 -21 833 132 735 -21 b 146 322 243 -21 146 132 l 146 826 l 7 903 l 417 903 l 278 826 m 661 993 b 333 1069 535 993 431 1069 b 213 968 233 1069 215 985 b 371 1167 211 979 203 1167 b 699 1090 497 1167 601 1090 b 819 1189 794 1090 815 1169 b 661 993 819 1174 825 993 "},"ũ":{"ha":729,"x_min":0,"x_max":0,"o":"m -7 565 l 215 646 l 215 225 b 324 63 215 111 238 63 b 493 150 382 63 451 99 l 493 539 l 382 565 l 604 646 l 604 86 l 715 60 l 493 -21 l 493 108 b 275 -21 444 56 364 -21 b 104 207 142 -21 104 69 l 104 539 m 590 931 b 476 757 590 931 607 757 b 222 819 399 757 292 819 b 136 729 147 819 136 729 b 250 903 136 729 119 903 b 504 840 328 903 435 840 b 590 931 579 840 590 931 "},"Ğ":{"ha":972,"x_min":0,"x_max":0,"o":"m 840 583 l 736 806 b 521 882 736 806 653 882 b 201 451 333 882 201 715 b 528 35 201 222 313 35 b 715 118 660 35 715 118 l 715 354 l 549 431 l 958 431 l 847 354 l 847 -14 l 743 90 b 486 -21 743 90 667 -21 b 49 444 229 -21 49 167 b 507 924 49 757 257 924 b 757 847 665 924 757 847 l 840 924 m 479 993 b 240 1204 272 993 242 1186 b 479 1083 244 1190 294 1083 b 719 1207 668 1083 715 1196 b 479 993 718 1197 692 993 "},"ğ":{"ha":681,"x_min":0,"x_max":0,"o":"m 69 424 b 313 646 69 546 167 646 b 514 604 410 646 458 604 b 535 640 549 604 535 622 b 588 694 535 669 554 694 b 646 639 626 694 646 667 b 563 569 646 601 625 569 b 493 576 528 569 493 576 b 556 424 493 576 556 521 b 313 201 556 301 458 201 b 281 203 301 201 290 201 b 174 146 239 203 174 194 b 229 104 174 111 208 104 l 458 104 b 653 -56 597 104 653 49 b 299 -312 653 -160 535 -312 b 21 -132 104 -312 21 -215 b 157 3 21 -35 110 -6 b 83 97 119 14 83 50 b 224 215 83 181 160 208 b 69 424 129 246 69 328 m 186 0 b 118 -90 183 -1 118 -22 b 333 -222 118 -160 181 -222 b 611 -62 535 -222 611 -125 b 535 0 611 -21 583 0 m 188 424 b 313 236 188 306 236 236 b 438 424 389 236 438 306 b 313 611 438 542 389 611 b 188 424 236 611 188 542 m 322 743 b 132 919 144 743 132 907 b 322 819 136 908 176 819 b 514 922 471 819 510 913 b 322 743 514 918 503 743 "},"Ō":{"ha":944,"x_min":0,"x_max":0,"o":"m 49 451 b 472 924 49 736 229 924 b 896 451 715 924 896 736 b 472 -21 896 167 715 -21 b 49 451 229 -21 49 167 m 201 451 b 472 21 201 188 306 21 b 743 451 639 21 743 188 b 472 882 743 715 639 882 b 201 451 306 882 201 715 m 181 1076 l 764 1076 l 764 1028 l 181 1028 "},"ō":{"ha":700,"x_min":0,"x_max":0,"o":"m 332 597 b 174 368 231 597 174 507 b 369 28 174 165 256 28 b 526 257 472 28 526 121 b 332 597 526 460 447 597 m 49 313 b 350 646 49 493 171 646 b 651 313 543 646 651 493 b 350 -21 651 132 529 -21 b 49 313 157 -21 49 132 m 132 806 l 576 806 l 576 757 l 132 757 "},"Ĉ":{"ha":896,"x_min":0,"x_max":0,"o":"m 194 972 l 472 1236 l 750 972 l 472 1111 m 813 583 l 708 806 b 507 882 708 806 639 882 b 201 472 319 882 201 715 b 528 63 201 236 313 63 b 847 304 764 63 843 293 b 486 -21 844 289 783 -21 b 49 444 229 -21 49 174 b 486 924 49 743 231 924 b 729 847 644 924 729 847 l 813 924 "},"ĉ":{"ha":632,"x_min":0,"x_max":0,"o":"m 590 246 b 338 -21 579 86 479 -21 b 49 313 158 -21 49 125 b 351 646 49 507 186 646 b 572 490 490 646 572 571 b 507 425 572 447 539 425 b 447 492 465 425 447 461 b 349 604 447 564 410 604 b 160 356 251 604 160 511 b 383 83 160 149 286 83 b 590 246 451 83 540 128 m 111 694 l 333 944 l 556 694 l 333 819 "},"Ĝ":{"ha":972,"x_min":0,"x_max":0,"o":"m 208 972 l 486 1236 l 764 972 l 486 1111 m 840 583 l 736 806 b 521 882 736 806 653 882 b 201 451 333 882 201 715 b 528 35 201 222 313 35 b 715 118 660 35 715 118 l 715 354 l 549 431 l 958 431 l 847 354 l 847 -14 l 743 90 b 486 -21 743 90 667 -21 b 49 444 229 -21 49 167 b 507 924 49 757 257 924 b 757 847 665 924 757 847 l 840 924 "},"ĝ":{"ha":681,"x_min":0,"x_max":0,"o":"m 69 424 b 313 646 69 546 167 646 b 514 604 410 646 458 604 b 535 640 549 604 535 622 b 588 694 535 669 554 694 b 646 639 626 694 646 667 b 563 569 646 601 625 569 b 493 576 528 569 493 576 b 556 424 493 576 556 521 b 313 201 556 301 458 201 b 281 203 301 201 290 201 b 174 146 239 203 174 194 b 229 104 174 111 208 104 l 458 104 b 653 -56 597 104 653 49 b 299 -312 653 -160 535 -312 b 21 -132 104 -312 21 -215 b 157 3 21 -35 110 -6 b 83 97 119 14 83 50 b 224 215 83 181 160 208 b 69 424 129 246 69 328 m 186 0 b 118 -90 183 -1 118 -22 b 333 -222 118 -160 181 -222 b 611 -62 535 -222 611 -125 b 535 0 611 -21 583 0 m 188 424 b 313 236 188 306 236 236 b 438 424 389 236 438 306 b 313 611 438 542 389 611 b 188 424 236 611 188 542 m 104 694 l 326 944 l 549 694 l 326 819 "},"İ":{"ha":451,"x_min":0,"x_max":0,"o":"m 292 826 l 292 76 l 431 0 l 21 0 l 160 76 l 160 826 l 21 903 l 431 903 m 149 1083 b 225 1160 149 1125 183 1160 b 301 1083 267 1160 301 1125 b 225 1007 301 1042 267 1007 b 149 1083 183 1007 149 1042 "},"ı":{"ha":382,"x_min":0,"x_max":0,"o":"m 28 565 l 250 646 l 250 63 l 361 0 l 28 0 l 139 63 l 139 539 "},"Ŷ":{"ha":931,"x_min":0,"x_max":0,"o":"m 264 833 l 507 451 l 750 833 l 639 903 l 958 903 l 819 826 l 549 399 l 549 76 l 688 0 l 278 0 l 417 76 l 417 361 l 125 819 l -14 903 l 375 903 m 222 972 l 500 1236 l 778 972 l 500 1111 "},"ŷ":{"ha":688,"x_min":0,"x_max":0,"o":"m 597 563 l 310 -161 b 153 -312 263 -286 208 -312 b 69 -239 104 -312 69 -281 b 132 -169 69 -197 97 -169 b 189 -197 157 -169 171 -182 b 251 -153 211 -217 232 -200 l 329 40 l 76 563 l -49 625 l 307 625 l 196 569 l 383 178 l 539 569 l 428 625 l 722 625 m 139 694 l 361 944 l 583 694 l 361 819 "},"Ŭ":{"ha":972,"x_min":0,"x_max":0,"o":"m 278 826 l 417 903 l 7 903 l 146 826 l 146 322 b 503 -21 146 132 243 -21 b 833 322 735 -21 833 132 l 833 826 l 972 903 l 632 903 l 771 826 l 771 301 b 524 56 771 165 701 56 b 278 301 346 56 278 165 m 507 993 b 268 1204 300 993 269 1186 b 507 1083 272 1190 322 1083 b 747 1207 696 1083 743 1196 b 507 993 746 1197 719 993 "},"ŭ":{"ha":729,"x_min":0,"x_max":0,"o":"m -7 565 l 215 646 l 215 225 b 324 63 215 111 238 63 b 493 150 382 63 451 99 l 493 539 l 382 565 l 604 646 l 604 86 l 715 60 l 493 -21 l 493 108 b 275 -21 444 56 364 -21 b 104 207 142 -21 104 69 l 104 539 m 350 743 b 160 919 172 743 160 907 b 350 819 164 908 204 819 b 542 922 499 819 538 913 b 350 743 542 918 531 743 "},"Ŗ":{"ha":889,"x_min":0,"x_max":0,"o":"m 21 0 l 160 76 l 160 826 l 21 903 l 396 903 b 757 660 597 903 757 833 b 528 428 757 526 663 454 l 814 75 l 938 0 l 701 0 l 378 417 l 292 417 l 292 76 l 431 0 m 292 465 l 382 465 b 604 660 507 465 604 507 b 382 854 604 813 507 854 l 292 854 m 403 -146 b 479 -69 403 -104 438 -69 b 556 -146 521 -69 556 -104 b 417 -382 556 -201 542 -229 l 486 -222 l 479 -222 b 403 -146 438 -222 403 -187 "},"ŗ":{"ha":569,"x_min":0,"x_max":0,"o":"m 28 565 l 250 646 l 250 500 l 306 561 b 444 646 368 629 406 646 b 535 567 493 646 535 619 b 474 500 535 526 507 500 b 375 563 410 500 424 563 b 250 451 347 563 313 528 l 250 63 l 389 0 l 28 0 l 139 63 l 139 539 m 153 -146 b 229 -69 153 -104 188 -69 b 306 -146 271 -69 306 -104 b 167 -382 306 -201 292 -229 l 236 -222 l 229 -222 b 153 -146 188 -222 153 -187 "},"ŕ":{"ha":569,"x_min":0,"x_max":0,"o":"m 139 539 l 139 63 l 28 0 l 389 0 l 250 63 l 250 451 b 375 563 313 528 347 563 b 474 500 424 563 410 500 b 535 567 507 500 535 526 b 444 646 535 619 493 646 b 306 561 406 646 368 629 l 250 500 l 250 646 l 28 565 m 493 972 l 174 694 l 333 972 "},"Ŕ":{"ha":889,"x_min":0,"x_max":0,"o":"m 378 417 l 292 417 l 292 76 l 431 0 l 21 0 l 160 76 l 160 826 l 21 903 l 396 903 b 757 660 597 903 757 833 b 528 428 757 526 663 454 l 814 75 l 938 0 l 701 0 m 292 465 l 382 465 b 604 660 507 465 604 507 b 382 854 604 813 507 854 l 292 854 m 631 1250 l 283 972 l 443 1250 "},"ŏ":{"ha":700,"x_min":0,"x_max":0,"o":"m 49 313 b 350 646 49 493 171 646 b 651 313 543 646 651 493 b 350 -21 651 132 529 -21 b 49 313 157 -21 49 132 m 332 597 b 174 368 231 597 174 507 b 369 28 174 165 256 28 b 526 257 472 28 526 121 b 332 597 526 460 447 597 m 350 743 b 160 919 172 743 160 907 b 350 819 164 908 204 819 b 542 922 499 819 538 913 b 350 743 542 918 531 743 "},"Ŏ":{"ha":944,"x_min":0,"x_max":0,"o":"m 49 451 b 472 924 49 736 229 924 b 896 451 715 924 896 736 b 472 -21 896 167 715 -21 b 49 451 229 -21 49 167 m 201 451 b 472 21 201 188 306 21 b 743 451 639 21 743 188 b 472 882 743 715 639 882 b 201 451 306 882 201 715 m 472 993 b 233 1204 265 993 235 1186 b 472 1083 238 1190 288 1083 b 713 1207 661 1083 708 1196 b 472 993 711 1197 685 993 "},"Ŋ":{"ha":1021,"x_min":0,"x_max":0,"o":"m 806 236 l 806 826 l 653 903 l 1007 903 l 868 826 l 868 56 b 667 -312 868 -215 806 -312 b 542 -217 590 -312 542 -272 b 603 -153 542 -176 569 -153 b 694 -257 679 -153 660 -257 b 806 0 736 -257 806 -222 l 806 47 l 222 683 l 222 76 l 375 0 l 21 0 l 160 76 l 160 751 l 21 903 l 194 903 "},"ŋ":{"ha":729,"x_min":0,"x_max":0,"o":"m 521 400 b 413 563 521 514 499 563 b 250 475 354 563 292 526 l 250 63 l 361 0 l 28 0 l 139 63 l 139 539 l 28 565 l 250 646 l 250 517 b 461 646 299 569 372 646 b 632 418 594 646 632 556 l 632 56 b 410 -312 632 -187 549 -312 b 306 -231 354 -312 306 -286 b 367 -167 306 -190 333 -167 b 458 -264 443 -167 424 -264 b 521 0 500 -264 521 -181 "},"Ĵ":{"ha":715,"x_min":0,"x_max":0,"o":"m 569 826 l 569 313 b 292 -21 569 97 458 -21 b 42 188 101 -21 42 97 b 139 317 42 285 93 317 b 215 243 194 317 215 278 b 146 125 215 167 146 188 b 285 21 146 69 194 21 b 438 229 382 21 438 88 l 438 826 l 271 903 l 708 903 m 215 972 l 493 1236 l 771 972 l 493 1111 "},"ĵ":{"ha":319,"x_min":0,"x_max":0,"o":"m 111 539 l 0 565 l 222 646 l 222 56 b 0 -312 222 -187 139 -312 b -104 -231 -56 -312 -104 -286 b -43 -167 -104 -190 -76 -167 b 49 -264 33 -167 14 -264 b 111 0 90 -264 111 -181 m -62 694 l 160 944 l 382 694 l 160 819 "},"ĭ":{"ha":382,"x_min":0,"x_max":0,"o":"m 139 539 l 139 63 l 28 0 l 361 0 l 250 63 l 250 646 l 28 565 m 190 743 b 0 919 13 743 0 907 b 190 819 4 908 44 819 b 382 922 339 819 378 913 b 190 743 382 918 371 743 "},"Ĭ":{"ha":451,"x_min":0,"x_max":0,"o":"m 292 826 l 292 76 l 431 0 l 21 0 l 160 76 l 160 826 l 21 903 l 431 903 m 225 993 b 0 1204 22 993 0 1189 b 225 1083 4 1190 47 1083 b 450 1204 400 1083 443 1186 b 225 993 447 1181 421 993 "},"ĩ":{"ha":382,"x_min":0,"x_max":0,"o":"m 28 565 l 250 646 l 250 63 l 361 0 l 28 0 l 139 63 l 139 539 m 286 736 b 69 799 201 736 139 799 b -31 722 6 799 -26 733 b 107 875 -26 739 11 875 b 324 813 192 875 254 813 b 424 888 389 813 422 885 b 286 736 422 881 386 736 "},"Ĩ":{"ha":451,"x_min":0,"x_max":0,"o":"m 292 826 l 292 76 l 431 0 l 21 0 l 160 76 l 160 826 l 21 903 l 431 903 m 383 993 b 83 1069 285 993 181 1069 b -44 967 6 1069 -39 978 b 135 1167 -40 982 8 1167 b 435 1090 233 1167 338 1090 b 563 1193 514 1090 560 1189 b 383 993 560 1183 510 993 "},"ĥ":{"ha":736,"x_min":0,"x_max":0,"o":"m 514 63 l 514 400 b 406 563 514 514 492 563 b 243 475 347 563 285 526 l 243 63 l 354 0 l 21 0 l 132 63 l 132 886 l 21 913 l 243 993 l 243 517 b 454 646 292 569 365 646 b 625 418 588 646 625 556 l 625 63 l 736 0 l 403 0 m -7 986 l 215 1236 l 438 986 l 215 1111 "},"Ĥ":{"ha":1007,"x_min":0,"x_max":0,"o":"m 847 826 l 847 76 l 986 0 l 576 0 l 715 76 l 715 444 l 292 444 l 292 76 l 431 0 l 21 0 l 160 76 l 160 826 l 21 903 l 431 903 l 292 826 l 292 493 l 715 493 l 715 826 l 576 903 l 986 903 m 225 972 l 503 1236 l 781 972 l 503 1111 "},"ĕ":{"ha":653,"x_min":0,"x_max":0,"o":"m 590 246 b 338 -21 579 86 479 -21 b 49 313 158 -21 49 125 b 344 646 49 507 181 646 b 590 375 521 646 590 521 l 160 375 l 160 356 b 383 83 160 135 286 83 b 590 246 451 83 540 128 m 347 604 b 164 417 263 604 185 536 l 368 417 b 479 493 438 417 479 438 b 347 604 479 563 424 604 m 322 743 b 132 919 144 743 132 907 b 322 819 136 908 176 819 b 514 922 471 819 510 913 b 322 743 514 918 503 743 "},"Ĕ":{"ha":847,"x_min":0,"x_max":0,"o":"m 292 493 l 465 493 l 563 639 l 563 299 l 465 444 l 292 444 l 292 76 l 340 49 l 639 49 l 764 292 l 764 0 l 21 0 l 160 76 l 160 826 l 21 903 l 743 903 l 743 611 l 618 854 l 340 854 l 292 826 m 438 993 b 199 1204 231 993 200 1186 b 438 1083 203 1190 253 1083 b 678 1207 626 1083 674 1196 b 438 993 676 1197 650 993 "},"Ì":{"ha":451,"x_min":0,"x_max":0,"o":"m 292 826 l 292 76 l 431 0 l 21 0 l 160 76 l 160 826 l 21 903 l 431 903 m 138 1250 l 297 972 l -50 1250 "},"ì":{"ha":382,"x_min":0,"x_max":0,"o":"m 28 565 l 250 646 l 250 63 l 361 0 l 28 0 l 139 63 l 139 539 m 118 972 l 278 694 l -42 972 "},"Ò":{"ha":944,"x_min":0,"x_max":0,"o":"m 49 451 b 472 924 49 736 229 924 b 896 451 715 924 896 736 b 472 -21 896 167 715 -21 b 49 451 229 -21 49 167 m 201 451 b 472 21 201 188 306 21 b 743 451 639 21 743 188 b 472 882 743 715 639 882 b 201 451 306 882 201 715 m 374 1250 l 533 972 l 186 1250 "},"ò":{"ha":700,"x_min":0,"x_max":0,"o":"m 332 597 b 174 368 231 597 174 507 b 369 28 174 165 256 28 b 526 257 472 28 526 121 b 332 597 526 460 447 597 m 49 313 b 350 646 49 493 171 646 b 651 313 543 646 651 493 b 350 -21 651 132 529 -21 b 49 313 157 -21 49 132 m 243 972 l 403 694 l 83 972 "}," ":{"ha":361,"x_min":0,"x_max":0,"o":""},".":{"ha":347,"x_min":0,"x_max":0,"o":"m 97 69 b 174 146 97 111 132 146 b 250 69 215 146 250 111 b 174 -7 250 28 215 -7 b 97 69 132 -7 97 28 "},",":{"ha":347,"x_min":0,"x_max":0,"o":"m 97 69 b 174 146 97 111 132 146 b 250 69 215 146 250 111 b 111 -167 250 14 236 -14 l 181 -7 l 174 -7 b 97 69 132 -7 97 28 "},"!":{"ha":375,"x_min":0,"x_max":0,"o":"m 264 993 l 188 208 l 111 903 m 111 69 b 188 146 111 111 146 146 b 264 69 229 146 264 111 b 188 -7 264 28 229 -7 b 111 69 146 -7 111 28 "},";":{"ha":375,"x_min":0,"x_max":0,"o":"m 111 535 b 188 611 111 576 146 611 b 264 535 229 611 264 576 b 188 458 264 493 229 458 b 111 535 146 458 111 493 m 111 69 b 188 146 111 111 146 146 b 264 69 229 146 264 111 b 125 -167 264 14 250 -14 l 194 -7 l 188 -7 b 111 69 146 -7 111 28 "},":":{"ha":375,"x_min":0,"x_max":0,"o":"m 111 69 b 188 146 111 111 146 146 b 264 69 229 146 264 111 b 188 -7 264 28 229 -7 b 111 69 146 -7 111 28 m 111 535 b 188 611 111 576 146 611 b 264 535 229 611 264 576 b 188 458 264 493 229 458 b 111 535 146 458 111 493 "},"%":{"ha":1007,"x_min":0,"x_max":0,"o":"m 132 0 l 813 903 l 875 903 l 194 0 m 56 722 b 257 924 56 818 128 924 b 458 722 386 924 458 818 b 257 521 458 626 386 521 b 56 722 128 521 56 626 m 111 722 b 257 572 111 653 161 572 b 403 722 353 572 403 653 b 257 872 403 792 353 872 b 111 722 161 872 111 792 m 549 181 b 750 382 549 276 621 382 b 951 181 879 382 951 276 b 750 -21 951 85 879 -21 b 549 181 621 -21 549 85 m 604 181 b 750 31 604 111 654 31 b 896 181 846 31 896 111 b 750 331 896 250 846 331 b 604 181 654 331 604 250 "},"‰":{"ha":1465,"x_min":0,"x_max":0,"o":"m 132 0 l 813 903 l 875 903 l 194 0 m 56 722 b 257 924 56 818 128 924 b 458 722 386 924 458 818 b 257 521 458 626 386 521 b 56 722 128 521 56 626 m 111 722 b 257 572 111 653 161 572 b 403 722 353 572 403 653 b 257 872 403 792 353 872 b 111 722 161 872 111 792 m 549 181 b 750 382 549 276 621 382 b 951 181 879 382 951 276 b 750 -21 951 85 879 -21 b 549 181 621 -21 549 85 m 604 181 b 750 31 604 111 654 31 b 896 181 846 31 896 111 b 750 331 896 250 846 331 b 604 181 654 331 604 250 m 1007 181 b 1208 382 1007 276 1079 382 b 1410 181 1338 382 1410 276 b 1208 -21 1410 85 1338 -21 b 1007 181 1079 -21 1007 85 m 1063 181 b 1208 31 1063 111 1113 31 b 1354 181 1304 31 1354 111 b 1208 331 1354 250 1304 331 b 1063 181 1113 331 1063 250 "},"-":{"ha":597,"x_min":0,"x_max":0,"o":"m 83 368 l 514 368 l 514 306 l 83 306 "},"–":{"ha":931,"x_min":0,"x_max":0,"o":"m 97 382 l 833 382 l 833 333 l 97 333 "},"—":{"ha":1069,"x_min":0,"x_max":0,"o":"m 0 382 l 1069 382 l 1069 333 l 0 333 "},"‘":{"ha":347,"x_min":0,"x_max":0,"o":"m 250 757 b 174 681 250 715 215 681 b 97 757 132 681 97 715 b 236 993 97 813 111 840 l 167 833 l 174 833 b 250 757 215 833 250 799 "},"’":{"ha":347,"x_min":0,"x_max":0,"o":"m 97 896 b 174 972 97 938 132 972 b 250 896 215 972 250 938 b 111 660 250 840 236 813 l 181 819 l 174 819 b 97 896 132 819 97 854 "},"“":{"ha":556,"x_min":0,"x_max":0,"o":"m 458 757 b 382 681 458 715 424 681 b 306 757 340 681 306 715 b 444 993 306 813 319 840 l 375 833 l 382 833 b 458 757 424 833 458 799 m 250 757 b 174 681 250 715 215 681 b 97 757 132 681 97 715 b 236 993 97 813 111 840 l 167 833 l 174 833 b 250 757 215 833 250 799 "},"”":{"ha":556,"x_min":0,"x_max":0,"o":"m 97 896 b 174 972 97 938 132 972 b 250 896 215 972 250 938 b 111 660 250 840 236 813 l 181 819 l 174 819 b 97 896 132 819 97 854 m 306 896 b 382 972 306 938 340 972 b 458 896 424 972 458 938 b 319 660 458 840 444 813 l 389 819 l 382 819 b 306 896 340 819 306 854 "},"‚":{"ha":347,"x_min":0,"x_max":0,"o":"m 97 69 b 174 146 97 111 132 146 b 250 69 215 146 250 111 b 111 -167 250 14 236 -14 l 181 -7 l 174 -7 b 97 69 132 -7 97 28 "},"„":{"ha":556,"x_min":0,"x_max":0,"o":"m 97 69 b 174 146 97 111 132 146 b 250 69 215 146 250 111 b 111 -167 250 14 236 -14 l 181 -7 l 174 -7 b 97 69 132 -7 97 28 m 306 69 b 382 146 306 111 340 146 b 458 69 424 146 458 111 b 319 -167 458 14 444 -14 l 389 -7 l 382 -7 b 306 69 340 -7 306 28 "},"…":{"ha":1264,"x_min":0,"x_max":0,"o":"m 181 69 b 257 146 181 111 215 146 b 333 69 299 146 333 111 b 257 -7 333 28 299 -7 b 181 69 215 -7 181 28 m 556 69 b 632 146 556 111 590 146 b 708 69 674 146 708 111 b 632 -7 708 28 674 -7 b 556 69 590 -7 556 28 m 931 69 b 1007 146 931 111 965 146 b 1083 69 1049 146 1083 111 b 1007 -7 1083 28 1049 -7 b 931 69 965 -7 931 28 "},"»":{"ha":708,"x_min":0,"x_max":0,"o":"m 472 313 l 306 625 l 611 313 l 306 0 m 236 313 l 97 625 l 375 313 l 97 0 "},"›":{"ha":500,"x_min":0,"x_max":0,"o":"m 97 625 l 403 313 l 97 0 l 264 313 "},"«":{"ha":708,"x_min":0,"x_max":0,"o":"m 236 313 l 403 0 l 97 313 l 403 625 m 472 313 l 611 0 l 333 313 l 611 625 "},"‹":{"ha":500,"x_min":0,"x_max":0,"o":"m 236 313 l 403 0 l 97 313 l 403 625 "},"_":{"ha":958,"x_min":0,"x_max":0,"o":"m 83 49 l 875 49 l 875 0 l 83 0 "},"[":{"ha":521,"x_min":0,"x_max":0,"o":"m 194 972 l 465 972 l 465 924 l 250 924 l 250 -243 l 465 -243 l 465 -292 l 194 -292 "},"]":{"ha":521,"x_min":0,"x_max":0,"o":"m 326 -292 l 56 -292 l 56 -243 l 271 -243 l 271 924 l 56 924 l 56 972 l 326 972 "},"\\":{"ha":618,"x_min":0,"x_max":0,"o":"m 590 -292 l 42 972 l 97 972 l 646 -292 "},"}":{"ha":517,"x_min":0,"x_max":0,"o":"m 294 181 b 329 -35 294 104 329 49 b 42 -292 329 -250 42 -292 b 211 -97 42 -292 211 -229 b 176 111 211 -14 176 36 b 383 340 176 267 374 336 b 176 569 374 343 176 414 b 211 778 176 644 211 694 b 42 972 211 910 42 972 b 329 715 42 972 329 931 b 294 500 329 632 294 576 b 458 340 294 381 443 343 b 294 181 442 335 294 297 "},"|":{"ha":444,"x_min":0,"x_max":0,"o":"m 194 -292 l 194 972 l 250 972 l 250 -292 "},"{":{"ha":517,"x_min":0,"x_max":0,"o":"m 222 181 b 57 340 222 299 72 336 b 222 500 65 342 222 378 b 188 715 222 576 188 632 b 475 972 188 931 475 972 b 306 778 475 972 306 910 b 340 569 306 694 340 644 b 132 340 340 414 142 343 b 340 111 142 336 340 267 b 306 -97 340 36 306 -14 b 475 -292 306 -229 475 -292 b 188 -35 475 -292 188 -250 b 222 181 188 49 222 104 "},"~":{"ha":833,"x_min":0,"x_max":0,"o":"m 111 347 b 278 451 111 347 174 451 b 556 361 396 451 458 361 b 681 444 632 361 681 444 l 722 417 b 556 313 722 417 660 313 b 278 403 438 313 375 403 b 153 319 201 403 153 319 l 111 347 "},"¦":{"ha":444,"x_min":0,"x_max":0,"o":"m 194 -292 l 194 278 l 250 278 l 250 -292 m 194 403 l 194 972 l 250 972 l 250 403 "},"(":{"ha":506,"x_min":0,"x_max":0,"o":"m 125 340 b 519 924 125 814 501 918 b 250 340 507 918 250 814 b 519 -243 250 -133 507 -237 b 125 340 501 -237 125 -133 "},")":{"ha":506,"x_min":0,"x_max":0,"o":"m 381 340 b -14 -243 381 -133 4 -237 b 256 340 -1 -237 256 -133 b -14 924 256 814 -1 918 b 381 340 4 918 381 814 "},"'":{"ha":319,"x_min":0,"x_max":0,"o":"m 222 903 l 160 583 l 97 903 "},"\"":{"ha":500,"x_min":0,"x_max":0,"o":"m 222 903 l 160 583 l 97 903 m 403 903 l 340 583 l 278 903 "},"#":{"ha":878,"x_min":0,"x_max":0,"o":"m 104 590 l 360 590 l 496 903 l 551 903 l 415 590 l 582 590 l 718 903 l 774 903 l 638 590 l 843 590 l 843 542 l 617 542 l 539 361 l 774 361 l 774 313 l 518 313 l 382 0 l 326 0 l 461 313 l 296 313 l 160 0 l 104 0 l 239 313 l 35 313 l 35 361 l 260 361 l 339 542 l 104 542 m 317 361 l 482 361 l 561 542 l 394 542 "},"&":{"ha":1104,"x_min":0,"x_max":0,"o":"m 875 507 b 731 210 875 507 832 351 b 924 97 803 143 872 97 b 1028 194 1014 97 1028 194 b 889 -21 1028 194 1063 -21 b 643 108 817 -21 729 31 b 340 -21 565 33 465 -21 b 69 229 215 -21 69 49 b 332 539 69 386 200 469 b 285 722 301 608 285 672 b 514 924 285 868 417 924 b 708 778 625 924 708 868 b 463 567 708 683 586 633 b 693 247 518 460 606 339 b 819 514 778 372 819 514 l 701 597 l 1035 597 m 417 63 b 607 144 490 63 553 96 b 353 497 507 244 413 376 b 215 250 275 439 215 364 b 417 63 215 167 271 63 m 403 750 b 447 600 403 711 419 658 b 611 785 539 650 611 703 b 514 882 611 833 583 882 b 403 750 451 882 403 840 "},"/":{"ha":618,"x_min":0,"x_max":0,"o":"m -28 -292 l 521 972 l 576 972 l 28 -292 "},"^":{"ha":750,"x_min":0,"x_max":0,"o":"m 375 924 l 653 646 l 618 613 l 375 856 l 132 613 l 97 646 "},"?":{"ha":715,"x_min":0,"x_max":0,"o":"m 322 208 l 281 507 l 326 507 b 556 729 479 507 556 597 b 340 951 556 861 465 951 b 132 806 208 951 132 868 b 181 701 132 757 181 753 b 124 646 181 671 158 646 b 49 743 82 646 49 681 b 340 993 49 882 174 993 b 667 694 496 993 667 903 b 361 403 667 542 542 403 m 250 69 b 326 146 250 111 285 146 b 403 69 368 146 403 111 b 326 -7 403 28 368 -7 b 250 69 285 -7 250 28 "},"@":{"ha":1368,"x_min":0,"x_max":0,"o":"m 718 646 b 865 535 857 646 865 535 l 885 625 l 996 625 l 875 56 b 1219 438 1069 111 1219 229 b 708 872 1219 690 1017 872 b 149 313 400 872 149 635 b 708 -247 149 -24 400 -247 b 1104 -83 863 -247 1003 -185 l 1139 -118 b 708 -299 1028 -229 878 -299 b 97 313 371 -299 97 -53 b 708 924 97 664 371 924 b 1271 438 1046 924 1271 719 b 750 -21 1271 149 1007 28 l 785 142 b 563 -21 719 39 639 -21 b 382 225 450 -21 382 72 b 718 646 382 474 574 646 m 828 347 b 744 597 857 479 844 597 b 508 236 640 597 508 457 b 622 63 508 122 546 63 b 807 250 692 63 783 139 l 828 347 "},">":{"ha":618,"x_min":0,"x_max":0,"o":"m 185 53 l 153 90 l 446 333 l 153 576 l 185 614 l 521 333 "},"=":{"ha":833,"x_min":0,"x_max":0,"o":"m 111 264 l 722 264 l 722 215 l 111 215 m 111 444 l 722 444 l 722 396 l 111 396 "},"<":{"ha":618,"x_min":0,"x_max":0,"o":"m 97 333 l 433 614 l 465 576 l 172 333 l 465 90 l 433 53 "},"+":{"ha":806,"x_min":0,"x_max":0,"o":"m 97 354 l 375 354 l 375 646 l 431 646 l 431 354 l 708 354 l 708 299 l 431 299 l 431 14 l 375 14 l 375 299 l 97 299 "},"*":{"ha":622,"x_min":0,"x_max":0,"o":"m 256 701 b 296 876 256 757 289 797 b 164 754 229 831 213 782 b 76 767 128 733 92 740 b 108 850 61 794 72 829 b 279 903 157 878 208 869 b 108 956 208 936 157 926 b 76 1038 72 976 61 1011 b 164 1051 92 1065 128 1072 b 296 929 213 1024 229 974 b 256 1104 289 1008 256 1047 b 311 1174 256 1146 281 1174 b 367 1104 342 1174 367 1146 b 326 929 367 1047 332 1008 b 458 1051 392 974 408 1024 b 546 1038 494 1072 531 1065 b 514 956 561 1011 550 976 b 342 903 465 926 414 936 b 514 850 414 869 465 878 b 546 767 550 829 561 794 b 458 754 531 740 494 733 b 326 876 408 782 392 831 b 367 701 332 797 367 757 b 311 632 367 660 342 632 b 256 701 281 632 256 660 "},"•":{"ha":597,"x_min":0,"x_max":0,"o":"m 125 438 b 299 611 125 533 203 611 b 472 438 394 611 472 533 b 299 264 472 342 394 264 b 125 438 203 264 125 342 "},"·":{"ha":458,"x_min":0,"x_max":0,"o":"m 153 417 b 229 493 153 458 188 493 b 306 417 271 493 306 458 b 229 340 306 375 271 340 b 153 417 188 340 153 375 "},"¶":{"ha":917,"x_min":0,"x_max":0,"o":"m 694 924 l 694 -278 l 639 -278 l 639 924 l 500 924 l 500 -278 l 444 -278 l 444 278 b 97 625 253 278 97 417 b 444 972 97 833 253 972 l 819 972 l 819 924 "},"±":{"ha":833,"x_min":0,"x_max":0,"o":"m 111 465 l 392 465 l 392 743 l 440 743 l 440 465 l 722 465 l 722 417 l 440 417 l 440 139 l 392 139 l 392 417 l 111 417 m 111 49 l 722 49 l 722 0 l 111 0 "},"÷":{"ha":806,"x_min":0,"x_max":0,"o":"m 97 354 l 708 354 l 708 299 l 97 299 m 326 97 b 403 174 326 139 361 174 b 479 97 444 174 479 139 b 403 21 479 56 444 21 b 326 97 361 21 326 56 m 326 556 b 403 632 326 597 361 632 b 479 556 444 632 479 597 b 403 479 479 514 444 479 b 326 556 361 479 326 514 "},"×":{"ha":806,"x_min":0,"x_max":0,"o":"m 181 590 l 403 368 l 625 590 l 667 549 l 444 326 l 667 104 l 625 63 l 403 285 l 181 63 l 139 104 l 361 326 l 139 549 "},"©":{"ha":1417,"x_min":0,"x_max":0,"o":"m 97 313 b 708 924 97 650 371 924 b 1319 313 1046 924 1319 650 b 708 -299 1319 -25 1046 -299 b 97 313 371 -299 97 -25 m 149 313 b 708 -247 149 4 400 -247 b 1268 313 1017 -247 1268 4 b 708 872 1268 621 1017 872 b 149 313 400 872 149 621 m 957 246 b 704 -21 946 86 846 -21 b 415 313 525 -21 415 125 b 718 646 415 507 553 646 b 939 490 857 646 939 571 b 874 425 939 447 906 425 b 814 492 832 425 814 461 b 715 604 814 564 776 604 b 526 356 618 604 526 511 b 750 83 526 149 653 83 b 957 246 818 83 907 128 "},"®":{"ha":1417,"x_min":0,"x_max":0,"o":"m 97 313 b 708 924 97 650 371 924 b 1319 313 1046 924 1319 650 b 708 -299 1319 -25 1046 -299 b 97 313 371 -299 97 -25 m 149 313 b 708 -247 149 4 400 -247 b 1268 313 1017 -247 1268 4 b 708 872 1268 621 1017 872 b 149 313 400 872 149 621 m 486 563 l 486 63 l 375 0 l 708 0 l 597 63 l 597 278 l 679 278 l 879 0 l 1069 0 l 972 63 l 800 288 b 951 451 881 306 951 351 b 701 625 951 590 813 625 l 375 625 m 597 326 l 597 563 l 622 576 l 694 576 b 833 451 778 576 833 521 b 694 326 833 382 792 326 "},"™":{"ha":1174,"x_min":0,"x_max":0,"o":"m 201 556 l 201 861 l 132 861 l 56 736 l 56 903 l 444 903 l 444 736 l 368 861 l 299 861 l 299 556 l 389 500 l 111 500 m 903 556 l 903 815 l 750 479 l 597 815 l 597 556 l 688 500 l 458 500 l 549 556 l 549 847 l 458 903 l 664 903 l 781 646 l 896 903 l 1090 903 l 1000 847 l 1000 556 l 1090 500 l 813 500 "},"§":{"ha":686,"x_min":0,"x_max":0,"o":"m 208 -92 b 264 -143 250 -92 264 -119 b 246 -211 264 -175 246 -182 b 336 -278 246 -240 268 -278 b 454 -162 394 -278 454 -243 b 97 340 454 33 97 99 b 269 576 97 457 204 538 b 135 799 197 639 135 708 b 350 993 135 910 228 993 b 540 846 475 993 540 922 b 478 772 540 800 510 772 b 422 824 436 772 422 800 b 440 892 422 856 440 863 b 350 958 440 921 418 958 b 232 843 292 958 232 924 b 589 340 232 647 589 582 b 417 104 589 224 482 142 b 551 -118 489 40 551 -28 b 336 -312 551 -229 458 -312 b 146 -165 211 -312 146 -242 b 208 -92 146 -119 176 -92 m 492 306 b 286 561 492 404 383 478 b 194 375 249 525 194 458 b 399 119 194 275 301 201 b 492 306 438 156 492 221 "},"†":{"ha":597,"x_min":0,"x_max":0,"o":"m 83 903 b 150 958 83 933 108 958 b 285 917 194 958 225 922 b 243 1076 281 990 243 1024 b 299 1146 243 1118 268 1146 b 354 1076 329 1146 354 1118 b 313 917 354 1024 317 990 b 447 958 372 922 401 958 b 514 903 489 958 514 933 b 447 847 514 872 489 847 b 313 888 401 847 372 883 b 368 736 315 814 336 775 l 299 188 l 229 736 b 285 888 263 775 282 814 b 150 847 225 883 194 847 b 83 903 108 847 83 872 "},"‡":{"ha":597,"x_min":0,"x_max":0,"o":"m 299 118 b 243 185 268 118 243 143 b 285 339 243 236 281 267 b 150 299 225 335 194 299 b 83 354 108 299 83 324 b 150 410 83 385 108 410 b 285 368 194 410 225 374 b 229 507 282 440 260 468 b 285 628 229 507 285 549 b 229 750 285 708 229 750 b 285 888 263 789 282 815 b 150 847 225 883 194 847 b 83 903 108 847 83 872 b 150 958 83 933 108 958 b 285 917 194 958 225 922 b 243 1072 281 989 243 1019 b 299 1139 243 1114 268 1139 b 354 1072 329 1139 354 1114 b 313 917 354 1019 317 989 b 447 958 372 922 401 958 b 514 903 489 958 514 933 b 447 847 514 872 489 847 b 313 888 401 847 372 883 b 367 750 315 817 336 789 b 313 628 364 749 313 719 b 368 507 313 535 368 507 b 313 368 333 468 314 440 b 447 410 372 374 401 410 b 514 354 489 410 514 385 b 447 299 514 324 489 299 b 313 339 401 299 372 335 b 354 185 317 267 354 236 b 299 118 354 143 329 118 "},"№":{"ha":1250,"x_min":0,"x_max":0,"o":"m 667 269 l 667 826 l 514 903 l 868 903 l 729 826 l 729 -21 l 222 640 l 222 76 l 375 0 l 21 0 l 160 76 l 160 721 l 21 903 l 181 903 m 854 736 b 1028 924 854 828 910 924 b 1201 736 1146 924 1201 828 b 1028 549 1201 644 1146 549 b 854 736 910 549 854 644 m 947 736 b 1028 581 947 632 982 581 b 1108 736 1074 581 1108 632 b 1028 892 1108 840 1074 892 b 947 736 982 892 947 840 m 854 486 l 1201 486 l 1201 431 l 854 431 "},"°":{"ha":514,"x_min":0,"x_max":0,"o":"m 83 819 b 257 993 83 915 156 993 b 431 819 358 993 431 915 b 257 646 431 724 358 646 b 83 819 156 646 83 724 m 136 819 b 257 694 136 750 188 694 b 378 819 326 694 378 750 b 257 944 378 889 326 944 b 136 819 188 944 136 889 "},"‱":{"ha":1924,"x_min":0,"x_max":0,"o":"m 132 0 l 813 903 l 875 903 l 194 0 m 56 722 b 257 924 56 818 128 924 b 458 722 386 924 458 818 b 257 521 458 626 386 521 b 56 722 128 521 56 626 m 111 722 b 257 572 111 653 161 572 b 403 722 353 572 403 653 b 257 872 403 792 353 872 b 111 722 161 872 111 792 m 549 181 b 750 382 549 276 621 382 b 951 181 879 382 951 276 b 750 -21 951 85 879 -21 b 549 181 621 -21 549 85 m 604 181 b 750 31 604 111 654 31 b 896 181 846 31 896 111 b 750 331 896 250 846 331 b 604 181 654 331 604 250 m 1007 181 b 1208 382 1007 276 1079 382 b 1410 181 1338 382 1410 276 b 1208 -21 1410 85 1338 -21 b 1007 181 1079 -21 1007 85 m 1063 181 b 1208 31 1063 111 1113 31 b 1354 181 1304 31 1354 111 b 1208 331 1354 250 1304 331 b 1063 181 1113 331 1063 250 m 1465 181 b 1667 382 1465 276 1538 382 b 1868 181 1796 382 1868 276 b 1667 -21 1868 85 1796 -21 b 1465 181 1538 -21 1465 85 m 1521 181 b 1667 31 1521 111 1571 31 b 1813 181 1763 31 1813 111 b 1667 331 1813 250 1763 331 b 1521 181 1571 331 1521 250 "},"¿":{"ha":715,"x_min":0,"x_max":0,"o":"m 393 472 l 435 174 l 389 174 b 160 -49 236 174 160 83 b 375 -271 160 -181 250 -271 b 583 -125 507 -271 583 -187 b 535 -21 583 -76 535 -72 b 592 35 535 10 557 35 b 667 -62 633 35 667 0 b 375 -312 667 -201 542 -312 b 49 -14 219 -312 49 -222 b 354 278 49 139 174 278 m 465 611 b 389 535 465 569 431 535 b 313 611 347 535 313 569 b 389 688 313 653 347 688 b 465 611 431 688 465 653 "},"¡":{"ha":375,"x_min":0,"x_max":0,"o":"m 111 -312 l 188 472 l 264 -222 m 264 611 b 188 535 264 569 229 535 b 111 611 146 535 111 569 b 188 688 111 653 146 688 b 264 611 229 688 264 653 "},"※":{"ha":1056,"x_min":0,"x_max":0,"o":"m 125 88 l 489 451 l 125 815 l 164 854 l 528 490 l 892 854 l 931 815 l 567 451 l 931 88 l 892 49 l 528 413 l 164 49 m 451 174 b 528 250 451 215 486 250 b 604 174 569 250 604 215 b 528 97 604 132 569 97 b 451 174 486 97 451 132 m 174 451 b 250 528 174 493 208 528 b 326 451 292 528 326 493 b 250 375 326 410 292 375 b 174 451 208 375 174 410 m 451 729 b 528 806 451 771 486 806 b 604 729 569 806 604 771 b 528 653 604 688 569 653 b 451 729 486 653 451 688 m 729 451 b 806 528 729 493 764 528 b 882 451 847 528 882 493 b 806 375 882 410 847 375 b 729 451 764 375 729 410 "},"⁂":{"ha":1065,"x_min":0,"x_max":0,"o":"m 104 611 b 183 624 119 638 154 640 b 286 518 222 600 239 553 b 247 660 281 576 247 615 b 297 722 247 694 267 722 b 347 660 328 722 347 694 b 307 518 347 615 314 576 b 411 624 356 553 372 600 b 490 611 447 644 478 632 b 461 536 501 590 497 557 b 318 500 422 514 372 524 b 461 464 372 475 422 485 b 490 389 497 443 501 410 b 411 376 478 368 447 356 b 307 481 372 399 356 446 b 347 340 314 422 347 385 b 297 278 347 299 321 278 b 247 340 274 278 247 299 b 286 482 247 385 281 422 b 183 376 239 447 222 399 b 104 389 154 360 119 363 b 133 464 89 415 104 446 b 275 500 172 485 222 475 b 133 536 222 524 172 514 b 104 611 104 554 89 585 m 576 611 b 656 624 592 638 626 640 b 758 518 694 600 711 553 b 719 660 753 576 719 615 b 769 722 719 694 739 722 b 819 660 800 722 819 694 b 779 518 819 615 786 576 b 883 624 828 553 844 600 b 963 611 919 644 950 632 b 933 536 974 590 969 557 b 790 500 894 514 844 524 b 933 464 844 475 894 485 b 963 389 969 443 974 410 b 883 376 950 368 919 356 b 779 481 844 399 828 446 b 819 340 786 422 819 385 b 769 278 819 299 793 278 b 719 340 746 278 719 299 b 758 482 719 385 753 422 b 656 376 711 447 694 399 b 576 389 626 360 592 363 b 606 464 561 415 576 446 b 747 500 644 485 694 475 b 606 536 694 524 644 514 b 576 611 576 554 561 585 m 340 1014 b 419 1026 356 1040 390 1043 b 522 921 458 1003 475 956 b 483 1063 517 979 483 1018 b 533 1125 483 1097 503 1125 b 583 1063 564 1125 583 1097 b 543 921 583 1018 550 979 b 647 1026 592 956 608 1003 b 726 1014 683 1047 714 1035 b 697 939 738 993 733 960 b 554 903 658 917 608 926 b 697 867 608 878 658 888 b 726 792 733 846 738 813 b 647 779 714 771 683 758 b 543 883 608 801 592 849 b 583 743 550 825 583 788 b 533 681 583 701 557 681 b 483 743 510 681 483 701 b 522 885 483 788 517 825 b 419 779 475 850 458 801 b 340 792 390 763 356 765 b 369 867 325 818 340 849 b 511 903 408 888 458 878 b 369 939 458 926 408 917 b 340 1014 340 957 325 988 "},"‽":{"ha":715,"x_min":0,"x_max":0,"o":"m 410 840 l 369 508 b 556 729 496 522 556 608 b 347 951 556 861 472 951 b 132 806 215 951 132 868 b 181 701 132 757 181 753 b 124 646 181 671 158 646 b 49 743 82 646 49 681 b 347 993 49 882 181 993 b 667 694 503 993 667 903 b 357 403 667 542 538 403 l 333 208 l 257 750 m 257 69 b 333 146 257 111 292 146 b 410 69 375 146 410 111 b 333 -7 410 28 375 -7 b 257 69 292 -7 257 28 "},"⁑":{"ha":649,"x_min":0,"x_max":0,"o":"m 132 1014 b 211 1026 147 1040 182 1043 b 314 921 250 1003 267 956 b 275 1063 308 979 275 1018 b 325 1125 275 1097 294 1125 b 375 1063 356 1125 375 1097 b 335 921 375 1018 342 979 b 439 1026 383 956 400 1003 b 518 1014 475 1047 506 1035 b 489 939 529 993 525 960 b 346 903 450 917 400 926 b 489 867 400 878 450 888 b 518 792 525 846 529 813 b 439 779 506 771 475 758 b 335 883 400 801 383 849 b 375 743 342 825 375 788 b 325 681 375 701 349 681 b 275 743 301 681 275 701 b 314 885 275 788 308 825 b 211 779 267 850 250 801 b 132 792 182 763 147 765 b 161 867 117 818 132 849 b 303 903 200 888 250 878 b 161 939 250 926 200 917 b 132 1014 132 957 117 988 m 132 528 b 211 540 147 554 182 557 b 314 435 250 517 267 469 b 275 576 308 493 275 532 b 325 639 275 611 294 639 b 375 576 356 639 375 611 b 335 435 375 532 342 493 b 439 540 383 469 400 517 b 518 528 475 561 506 549 b 489 453 529 507 525 474 b 346 417 450 431 400 440 b 489 381 400 392 450 401 b 518 306 525 360 529 326 b 439 293 506 285 475 272 b 335 397 400 315 383 363 b 375 257 342 339 375 301 b 325 194 375 215 349 194 b 275 257 301 194 275 215 b 314 399 275 301 308 339 b 211 293 267 364 250 315 b 132 306 182 276 147 279 b 161 381 117 332 132 363 b 303 417 200 401 250 392 b 161 453 250 440 200 431 b 132 528 132 471 117 501 "},"〈":{"ha":483,"x_min":0,"x_max":0,"o":"m 97 340 l 372 972 l 428 972 l 153 340 l 428 -292 l 372 -292 "},"〉":{"ha":483,"x_min":0,"x_max":0,"o":"m 111 -292 l 56 -292 l 331 340 l 56 972 l 111 972 l 386 340 "},"《":{"ha":650,"x_min":0,"x_max":0,"o":"m 264 340 l 539 972 l 594 972 l 319 340 l 594 -292 l 539 -292 m 97 340 l 372 972 l 428 972 l 153 340 l 428 -292 l 372 -292 "},"》":{"ha":650,"x_min":0,"x_max":0,"o":"m 111 -292 l 56 -292 l 331 340 l 56 972 l 111 972 l 386 340 m 278 -292 l 222 -292 l 497 340 l 222 972 l 278 972 l 553 340 "},"⸮":{"ha":715,"x_min":0,"x_max":0,"o":"m 354 403 b 49 694 174 403 49 542 b 375 993 49 903 219 993 b 667 743 542 993 667 882 b 592 646 667 681 633 646 b 535 701 557 646 535 671 b 583 806 535 753 583 757 b 375 951 583 868 507 951 b 160 729 250 951 160 861 b 389 507 160 597 236 507 l 435 507 l 393 208 m 465 69 b 389 -7 465 28 431 -7 b 313 69 347 -7 313 28 b 389 146 313 111 347 146 b 465 69 431 146 465 111 "},"←":{"ha":1139,"x_min":0,"x_max":0,"o":"m 1021 428 l 292 428 l 292 326 l 97 451 l 292 576 l 292 475 l 1021 475 "},"↑":{"ha":1139,"x_min":0,"x_max":0,"o":"m 444 729 l 569 924 l 694 729 l 593 729 l 593 0 l 546 0 l 546 729 "},"→":{"ha":1139,"x_min":0,"x_max":0,"o":"m 847 576 l 1042 451 l 847 326 l 847 428 l 118 428 l 118 475 l 847 475 "},"↓":{"ha":1139,"x_min":0,"x_max":0,"o":"m 694 174 l 569 -21 l 444 174 l 546 174 l 546 903 l 593 903 l 593 174 "},"↔":{"ha":1139,"x_min":0,"x_max":0,"o":"m 847 576 l 1042 451 l 847 326 l 847 428 l 292 428 l 292 326 l 97 451 l 292 576 l 292 475 l 847 475 "},"↕":{"ha":1139,"x_min":0,"x_max":0,"o":"m 444 729 l 569 924 l 694 729 l 593 729 l 593 174 l 694 174 l 569 -21 l 444 174 l 546 174 l 546 729 "},"↖":{"ha":1139,"x_min":0,"x_max":0,"o":"m 988 0 l 239 749 l 167 678 l 118 903 l 343 854 l 272 782 l 1021 33 "},"↗":{"ha":1139,"x_min":0,"x_max":0,"o":"m 118 33 l 867 782 l 796 854 l 1021 903 l 972 678 l 900 749 l 151 0 "},"↘":{"ha":1139,"x_min":0,"x_max":0,"o":"m 151 903 l 900 154 l 972 225 l 1021 0 l 796 49 l 867 121 l 118 869 "},"↙":{"ha":1139,"x_min":0,"x_max":0,"o":"m 1021 869 l 272 121 l 343 49 l 118 0 l 167 225 l 239 154 l 988 903 "},"↰":{"ha":1139,"x_min":0,"x_max":0,"o":"m 653 475 l 653 0 l 606 0 l 606 428 l 290 428 l 290 326 l 96 451 l 290 576 l 290 475 "},"↱":{"ha":1139,"x_min":0,"x_max":0,"o":"m 847 475 l 847 576 l 1042 451 l 847 326 l 847 428 l 532 428 l 532 0 l 485 0 l 485 475 "},"↲":{"ha":1139,"x_min":0,"x_max":0,"o":"m 290 428 l 290 326 l 96 451 l 290 576 l 290 475 l 606 475 l 606 903 l 653 903 l 653 428 "},"↳":{"ha":1139,"x_min":0,"x_max":0,"o":"m 485 428 l 485 903 l 532 903 l 532 475 l 847 475 l 847 576 l 1042 451 l 847 326 l 847 428 "},"↴":{"ha":1139,"x_min":0,"x_max":0,"o":"m 593 174 l 694 174 l 569 -21 l 444 174 l 546 174 l 546 489 l 118 489 l 118 536 l 593 536 "},"⇄":{"ha":1139,"x_min":0,"x_max":0,"o":"m 847 715 l 1042 590 l 847 465 l 847 567 l 118 567 l 118 614 l 847 614 m 1021 289 l 292 289 l 292 188 l 97 313 l 292 438 l 292 336 l 1021 336 "},"⇅":{"ha":1139,"x_min":0,"x_max":0,"o":"m 847 174 l 722 -21 l 597 174 l 699 174 l 699 903 l 746 903 l 746 174 m 292 729 l 417 924 l 542 729 l 440 729 l 440 0 l 393 0 l 393 729 "},"↺":{"ha":1139,"x_min":0,"x_max":0,"o":"m 271 451 b 569 153 271 286 404 153 b 868 451 735 153 868 286 b 781 661 868 533 835 607 l 710 590 l 661 817 l 888 767 l 815 696 b 917 451 878 632 917 547 b 569 104 917 260 761 104 b 222 451 378 104 222 260 b 324 697 222 547 261 633 l 358 663 b 271 451 304 608 271 533 "},"↻":{"ha":1139,"x_min":0,"x_max":0,"o":"m 868 451 b 781 663 868 533 835 608 l 815 697 b 917 451 878 633 917 547 b 569 104 917 260 761 104 b 222 451 378 104 222 260 b 324 696 222 547 261 632 l 251 767 l 478 817 l 429 590 l 358 661 b 271 451 304 607 271 533 b 569 153 271 286 404 153 b 868 451 735 153 868 286 "},"−":{"ha":806,"x_min":0,"x_max":0,"o":"m 97 354 l 708 354 l 708 299 l 97 299 "},"∞":{"ha":1215,"x_min":0,"x_max":0,"o":"m 292 614 b 554 453 388 615 472 539 b 868 688 604 543 710 688 b 1146 392 1033 688 1146 571 b 868 96 1146 221 1026 96 b 499 339 718 96 604 226 b 278 143 471 272 400 143 b 69 368 139 143 69 258 b 292 614 69 490 139 613 m 847 583 b 567 440 722 583 621 500 b 903 214 669 332 774 214 b 1104 399 1010 214 1104 279 b 847 583 1104 511 1006 583 m 271 233 b 492 347 383 233 458 304 b 257 503 414 431 339 503 b 111 368 174 503 111 451 b 271 233 111 292 174 233 "},"∑":{"ha":840,"x_min":0,"x_max":0,"o":"m 357 453 l 56 903 l 750 903 l 625 611 l 625 854 l 240 854 l 465 514 l 197 118 l 667 118 l 757 292 l 757 0 l 56 0 "},"∆":{"ha":961,"x_min":0,"x_max":0,"o":"m 97 0 l 481 924 l 864 0 m 175 49 l 706 49 l 442 688 "},"≠":{"ha":833,"x_min":0,"x_max":0,"o":"m 111 444 l 431 444 l 525 660 l 581 660 l 486 444 l 722 444 l 722 396 l 465 396 l 408 264 l 722 264 l 722 215 l 386 215 l 293 0 l 238 0 l 331 215 l 111 215 l 111 264 l 353 264 l 410 396 l 111 396 "},"√":{"ha":689,"x_min":0,"x_max":0,"o":"m 69 514 l 294 514 l 394 243 l 604 972 l 661 972 l 376 -21 l 193 465 l 69 465 "},"≤":{"ha":618,"x_min":0,"x_max":0,"o":"m 97 368 l 438 608 l 465 569 l 185 369 l 465 194 l 440 153 m 124 271 l 465 56 l 440 14 l 97 229 "},"≥":{"ha":618,"x_min":0,"x_max":0,"o":"m 178 153 l 153 194 l 433 369 l 153 569 l 181 608 l 521 368 m 521 229 l 178 14 l 153 56 l 494 271 "},"π":{"ha":771,"x_min":0,"x_max":0,"o":"m 174 514 b 35 419 86 514 42 435 b 229 625 40 440 92 625 l 715 625 l 715 514 l 579 514 l 556 132 b 611 63 551 76 583 63 b 715 118 660 63 715 118 b 556 -21 715 118 639 -21 b 444 111 486 -21 439 21 l 468 514 l 288 514 l 285 479 b 104 -21 265 250 229 -21 b 42 40 69 -21 42 0 b 236 479 42 149 204 88 l 239 514 "},"☺":{"ha":1139,"x_min":0,"x_max":0,"o":"m 271 396 b 569 225 271 396 347 225 b 868 396 792 225 868 396 b 569 153 868 396 813 153 b 271 396 326 153 271 396 m 97 451 b 569 924 97 713 308 924 b 1042 451 831 924 1042 713 b 569 -21 1042 190 831 -21 b 97 451 308 -21 97 190 m 149 451 b 569 31 149 219 338 31 b 990 451 801 31 990 219 b 569 872 990 683 801 872 b 149 451 338 872 149 683 m 639 569 b 701 708 639 639 660 708 b 764 569 743 708 764 639 b 701 431 764 500 743 431 b 639 569 660 431 639 500 m 375 569 b 438 708 375 639 396 708 b 500 569 479 708 500 639 b 438 431 500 500 479 431 b 375 569 396 431 375 500 "},"★":{"ha":981,"x_min":0,"x_max":0,"o":"m 490 924 l 596 597 l 939 597 l 661 396 l 768 69 l 490 271 l 213 69 l 318 396 l 42 597 l 385 597 "},"✓":{"ha":986,"x_min":0,"x_max":0,"o":"m 285 -21 l 21 417 l 278 201 l 917 993 "},"¤":{"ha":889,"x_min":0,"x_max":0,"o":"m 188 340 b 244 501 188 401 208 457 l 139 607 l 178 646 l 283 540 b 444 597 326 575 383 597 b 606 540 506 597 561 575 l 711 646 l 750 607 l 644 501 b 701 340 679 457 701 401 b 644 179 701 279 679 222 l 750 74 l 711 35 l 606 140 b 444 83 561 104 506 83 b 283 140 383 83 326 104 l 178 35 l 139 74 l 244 179 b 188 340 208 222 188 279 m 239 340 b 444 135 239 226 331 135 b 650 340 558 135 650 226 b 444 546 650 454 558 546 b 239 340 331 546 239 454 "},"$":{"ha":840,"x_min":0,"x_max":0,"o":"m 382 -215 l 382 -19 b 208 42 268 -12 208 42 l 125 -21 l 125 319 l 236 90 b 382 22 236 90 283 32 l 382 401 l 285 444 b 111 674 186 488 111 557 b 382 922 111 836 233 914 l 382 1132 l 438 1132 l 438 922 b 604 861 539 914 604 861 l 688 924 l 688 625 l 583 813 b 438 879 583 813 525 869 l 438 539 l 542 493 b 736 250 631 454 736 403 b 438 -19 736 85 604 -10 l 438 -215 m 438 376 l 438 22 b 611 201 540 32 611 99 b 458 368 611 313 517 342 m 222 729 b 368 569 222 654 286 606 l 382 563 l 382 881 b 222 729 286 869 222 806 "},"€":{"ha":1090,"x_min":0,"x_max":0,"o":"m 958 583 l 854 806 b 653 882 854 806 785 882 b 350 542 483 882 371 746 l 736 542 l 736 493 l 347 493 l 347 472 b 349 424 347 456 347 439 l 736 424 l 736 375 l 354 375 b 674 63 381 190 489 63 b 993 304 910 63 989 293 b 632 -21 990 289 929 -21 b 199 375 397 -21 226 140 l 56 375 l 56 424 l 194 424 l 194 444 b 196 493 194 461 194 476 l 56 493 l 56 542 l 201 542 b 632 924 236 782 406 924 b 875 847 790 924 875 847 l 958 924 "},"¢":{"ha":632,"x_min":0,"x_max":0,"o":"m 306 -215 l 306 -19 b 49 313 146 -3 49 136 b 306 642 49 489 161 619 l 306 854 l 361 854 l 361 646 b 572 490 494 642 572 568 b 507 425 572 447 539 425 b 447 492 465 425 447 461 b 361 603 447 558 414 597 l 361 85 b 383 83 368 83 376 83 b 590 246 451 83 540 128 b 361 -19 579 94 490 -8 l 361 -215 m 160 356 b 306 97 160 201 229 125 l 306 597 b 160 356 225 575 160 488 "},"¥":{"ha":931,"x_min":0,"x_max":0,"o":"m 181 375 l 407 375 l 125 819 l -14 903 l 375 903 l 264 833 l 507 451 l 750 833 l 639 903 l 958 903 l 819 826 l 549 399 l 549 375 l 785 375 l 785 326 l 549 326 l 549 257 l 785 257 l 785 208 l 549 208 l 549 76 l 688 0 l 278 0 l 417 76 l 417 208 l 181 208 l 181 257 l 417 257 l 417 326 l 181 326 "},"₽":{"ha":868,"x_min":0,"x_max":0,"o":"m 69 465 l 215 465 l 215 826 l 76 903 l 451 903 b 813 660 653 903 813 833 b 451 417 813 486 653 417 l 347 417 l 347 354 l 653 354 l 653 306 l 347 306 l 347 76 l 514 0 l 76 0 l 215 76 l 215 306 l 69 306 l 69 354 l 215 354 l 215 417 l 69 417 m 347 465 l 438 465 b 660 660 563 465 660 507 b 438 854 660 813 563 854 l 347 854 "},"≈":{"ha":833,"x_min":0,"x_max":0,"o":"m 111 229 b 278 333 111 229 174 333 b 556 243 396 333 458 243 b 681 326 632 243 681 326 l 722 299 b 556 194 722 299 660 194 b 278 285 438 194 375 285 b 153 201 201 285 153 201 l 111 229 m 111 410 b 278 514 111 410 174 514 b 556 424 396 514 458 424 b 681 507 632 424 681 507 l 722 479 b 556 375 722 479 660 375 b 278 465 438 375 375 465 b 153 382 201 465 153 382 l 111 410 "},"":{"ha":1486,"x_min":0,"x_max":0,"o":"m 743 465 l 192 78 b 158 129 179 94 169 111 l 743 465 l 132 181 b 110 235 124 199 117 215 l 743 465 l 92 292 b 79 347 88 310 83 329 l 743 465 l 71 406 b 69 465 69 425 69 444 l 743 465 l 71 524 b 79 582 72 544 76 563 l 743 465 l 92 639 b 110 696 97 658 103 676 l 743 465 l 132 750 b 158 801 140 767 149 785 l 743 465 l 192 851 b 226 899 203 868 214 883 l 743 465 l 267 942 b 310 981 281 956 294 968 l 743 465 l 356 1017 b 407 1049 372 1028 389 1039 l 743 465 l 458 1075 b 513 1099 476 1083 493 1092 l 743 465 l 569 1115 b 625 1128 588 1121 607 1125 l 743 465 l 683 1136 b 743 1139 703 1138 722 1139 l 743 465 l 801 1136 b 860 1128 822 1135 840 1132 l 743 465 l 917 1115 b 974 1099 936 1111 954 1106 l 743 465 l 1028 1075 b 1081 1049 1046 1067 1063 1058 l 743 465 l 1129 1017 b 1176 981 1146 1006 1161 993 l 743 465 l 1219 942 b 1258 899 1233 928 1246 913 l 743 465 l 1294 851 b 1326 801 1306 835 1317 818 l 743 465 l 1353 750 b 1376 696 1361 732 1369 714 l 743 465 l 1393 639 b 1406 582 1399 619 1403 601 l 743 465 l 1414 524 b 1417 465 1415 504 1417 485 l 743 465 l 1414 406 b 1406 347 1413 386 1410 367 l 743 465 l 1393 292 b 1376 235 1389 272 1383 253 l 743 465 l 1353 181 b 1326 128 1344 163 1336 144 l 743 465 l 1294 78 b 1258 32 1283 63 1271 47 l 743 465 l 1219 -11 b 1176 -50 1206 -25 1190 -37 l 743 465 l 1129 -86 b 1079 -118 1113 -97 1096 -108 l 743 465 l 1028 -144 b 974 -168 1010 -153 992 -161 l 743 465 l 917 -185 b 860 -197 897 -190 879 -194 l 743 465 l 801 -206 b 743 -208 782 -207 763 -208 l 743 465 l 683 -206 b 625 -197 664 -204 644 -201 l 743 465 l 569 -185 b 513 -168 550 -181 531 -175 l 743 465 l 458 -144 b 407 -118 440 -136 424 -128 l 743 465 l 356 -86 b 310 -50 340 -75 325 -62 l 743 465 l 267 -11 b 226 32 253 3 239 17 "},"":{"ha":1486,"x_min":0,"x_max":0,"o":"m 760 272 l 760 -208 l 726 -208 l 726 272 l 643 -201 l 610 -196 l 693 275 l 528 -174 l 497 -162 l 661 288 l 421 -126 l 392 -110 l 631 304 l 324 -62 l 297 -40 l 604 326 l 238 19 l 215 46 l 582 353 l 168 114 l 151 143 l 567 382 l 115 218 l 104 250 l 557 415 l 82 332 l 76 365 l 550 449 l 69 449 l 69 482 l 550 482 l 76 565 l 82 599 l 557 515 l 104 681 l 115 713 l 567 547 l 151 788 l 168 817 l 582 578 l 215 885 l 238 911 l 604 603 l 297 971 l 324 993 l 631 626 l 392 1040 l 421 1057 l 660 642 l 496 1093 l 528 1104 l 694 649 l 610 1126 l 643 1132 l 726 658 l 726 1139 l 760 1139 l 760 658 l 843 1132 l 876 1126 l 792 649 l 958 1104 l 990 1093 l 826 642 l 1065 1057 l 1094 1040 l 856 626 l 1163 993 l 1189 971 l 882 603 l 1249 911 l 1271 885 l 904 578 l 1318 817 l 1335 788 l 919 547 l 1371 713 l 1382 681 l 929 515 l 1404 599 l 1410 565 l 936 482 l 1417 482 l 1417 449 l 936 449 l 1410 365 l 1404 332 l 929 415 l 1382 250 l 1371 218 l 919 382 l 1335 143 l 1318 114 l 904 353 l 1271 46 l 1249 19 l 882 326 l 1189 -40 l 1163 -62 l 856 304 l 1094 -110 l 1065 -126 l 825 288 l 989 -162 l 958 -174 l 793 275 l 876 -196 l 843 -201 "},"A":{"ha":944,"x_min":0,"x_max":0,"o":"m 118 76 l 403 750 l 271 903 l 475 903 l 819 83 l 958 0 l 569 0 l 688 69 l 597 285 l 263 285 l 174 69 l 299 0 l -28 0 m 283 333 l 578 333 l 431 688 "},"Ș":{"ha":736,"x_min":0,"x_max":0,"o":"m 285 -146 b 361 -69 285 -104 319 -69 b 438 -146 403 -69 438 -104 b 299 -382 438 -201 424 -229 l 368 -222 l 361 -222 b 285 -146 319 -222 285 -187 m 632 625 l 528 813 b 354 882 528 813 458 882 b 167 729 243 882 167 813 b 313 569 167 654 231 606 l 486 493 b 681 250 575 454 681 403 b 354 -21 681 76 535 -21 b 153 42 222 -21 153 42 l 69 -21 l 69 319 l 181 90 b 354 21 181 90 236 21 b 556 201 472 21 556 90 b 403 368 556 313 461 342 l 229 444 b 56 674 131 488 56 557 b 354 924 56 847 194 924 b 549 861 472 924 549 861 l 632 924 "},"ș":{"ha":556,"x_min":0,"x_max":0,"o":"m 201 -146 b 278 -69 201 -104 236 -69 b 354 -146 319 -69 354 -104 b 215 -382 354 -201 340 -229 l 285 -222 l 278 -222 b 201 -146 236 -222 201 -187 m 278 -21 b 125 28 174 -21 125 28 l 69 -21 l 69 257 b 278 21 125 104 174 21 b 396 125 354 21 396 69 b 306 243 396 194 357 218 l 208 289 b 63 465 146 317 63 354 b 271 646 63 567 146 646 b 403 604 354 646 403 604 l 465 646 l 465 403 l 382 563 b 271 604 382 563 347 604 b 153 507 201 604 153 563 b 264 396 153 444 196 428 l 361 350 b 500 167 467 300 500 250 b 278 -21 500 56 403 -21 "},"¬":{"ha":806,"x_min":0,"x_max":0,"o":"m 97 465 l 708 465 l 708 181 l 653 181 l 653 410 l 97 410 "},"☜":{"ha":903,"x_min":0,"x_max":0,"o":"m 667 188 l 167 451 l 667 715 "},"☝":{"ha":903,"x_min":0,"x_max":0,"o":"m 201 278 l 465 778 l 729 278 "},"☞":{"ha":903,"x_min":0,"x_max":0,"o":"m 236 715 l 736 451 l 236 188 "},"☟":{"ha":903,"x_min":0,"x_max":0,"o":"m 729 625 l 465 125 l 201 625 "},"N":{"ha":1021,"x_min":0,"x_max":0,"o":"m 806 236 l 806 826 l 653 903 l 1007 903 l 868 826 l 868 -21 l 222 683 l 222 76 l 375 0 l 21 0 l 160 76 l 160 751 l 21 903 l 194 903 "}}}
